<?xml version="1.0" encoding="iso-8859-1"?>
<!-- Generator: Adobe Illustrator 19.0.0, SVG Export Plug-In . SVG Version: 6.00 Build 0)  -->
<svg version="1.1" id="Layer_1" xmlns="http://www.w3.org/2000/svg" xmlns:xlink="http://www.w3.org/1999/xlink" x="0px" y="0px"
	 viewBox="0 0 512 512" style="enable-background:new 0 0 512 512;" xml:space="preserve">
<path style="fill:#1E0478;" d="M512,73.236v250.535c0,23.027-18.729,41.768-41.756,41.768h-272.24L86.5,477.031
	c-2.274,2.286-5.322,3.489-8.418,3.489c-1.536,0-3.084-0.298-4.56-0.905c-4.441-1.845-7.346-6.179-7.346-11.001V365.539h-24.42
	C18.729,365.539,0,346.798,0,323.771V73.236c0-23.027,18.729-41.756,41.756-41.756h428.488C493.271,31.481,512,50.209,512,73.236z
	 M488.187,323.771V73.236c0-9.894-8.049-17.943-17.943-17.943H41.756c-9.894,0-17.943,8.049-17.943,17.943v250.535
	c0,9.894,8.049,17.955,17.943,17.955H78.07c6.203,0,11.299,4.739,11.859,10.799c0.036,0.321,0.06,0.691,0.06,1.107v86.238
	l94.585-94.585c0.143-0.143,0.286-0.274,0.441-0.405c0.012-0.024,0.036-0.048,0.06-0.06c2.107-1.917,4.905-3.096,7.989-3.096
	h277.182C480.138,341.726,488.187,333.666,488.187,323.771z"/>
<path style="fill:#9B8CCC;" d="M488.187,73.236v250.535c0,9.894-8.049,17.955-17.943,17.955H193.063
	c-3.084,0-5.882,1.179-7.989,3.096c-0.024,0.012-0.048,0.036-0.06,0.06c-0.155,0.131-0.298,0.262-0.441,0.405l-94.585,94.585
	v-86.238c0-0.417-0.024-0.786-0.06-1.107c-0.56-6.06-5.656-10.799-11.859-10.799H41.756c-9.894,0-17.943-8.061-17.943-17.955V73.236
	c0-9.894,8.049-17.943,17.943-17.943h428.488C480.138,55.293,488.187,63.342,488.187,73.236z M419.32,130.34
	c0-6.572-5.334-11.906-11.906-11.906H243.51c-6.584,0-11.906,5.334-11.906,11.906c0,6.572,5.322,11.906,11.906,11.906h163.904
	C413.986,142.246,419.32,136.912,419.32,130.34z M419.32,198.504c0-6.572-5.334-11.906-11.906-11.906h-43.101
	c-6.572,0-11.906,5.334-11.906,11.906c0,6.572,5.334,11.906,11.906,11.906h43.101C413.986,210.41,419.32,205.076,419.32,198.504z
	 M419.32,266.668c0-6.572-5.334-11.906-11.906-11.906H275.669c-6.572,0-11.906,5.334-11.906,11.906
	c0,6.584,5.334,11.906,11.906,11.906h131.745C413.986,278.575,419.32,273.252,419.32,266.668z M309.65,198.504
	c0-6.572-5.334-11.906-11.906-11.906H104.586c-6.572,0-11.906,5.334-11.906,11.906c0,6.572,5.334,11.906,11.906,11.906h193.158
	C304.316,210.41,309.65,205.076,309.65,198.504z M224.317,266.668c0-6.572-5.334-11.906-11.906-11.906H104.586
	c-6.572,0-11.906,5.334-11.906,11.906c0,6.584,5.334,11.906,11.906,11.906h107.825C218.983,278.575,224.317,273.252,224.317,266.668
	z M185.895,130.34c0-6.572-5.334-11.906-11.906-11.906h-69.403c-6.572,0-11.906,5.334-11.906,11.906
	c0,6.572,5.334,11.906,11.906,11.906h69.403C180.561,142.246,185.895,136.912,185.895,130.34z"/>
<g>
	<path style="fill:#1E0478;" d="M407.414,118.433c6.572,0,11.906,5.334,11.906,11.906c0,6.572-5.334,11.906-11.906,11.906H243.51
		c-6.584,0-11.906-5.334-11.906-11.906c0-6.572,5.322-11.906,11.906-11.906H407.414z"/>
	<path style="fill:#1E0478;" d="M407.414,186.597c6.572,0,11.906,5.334,11.906,11.906c0,6.572-5.334,11.906-11.906,11.906h-43.101
		c-6.572,0-11.906-5.334-11.906-11.906c0-6.572,5.334-11.906,11.906-11.906H407.414z"/>
	<path style="fill:#1E0478;" d="M407.414,254.762c6.572,0,11.906,5.334,11.906,11.906c0,6.584-5.334,11.906-11.906,11.906H275.669
		c-6.572,0-11.906-5.322-11.906-11.906c0-6.572,5.334-11.906,11.906-11.906H407.414z"/>
	<path style="fill:#1E0478;" d="M297.744,186.597c6.572,0,11.906,5.334,11.906,11.906c0,6.572-5.334,11.906-11.906,11.906H104.586
		c-6.572,0-11.906-5.334-11.906-11.906c0-6.572,5.334-11.906,11.906-11.906H297.744z"/>
	<path style="fill:#1E0478;" d="M212.411,254.762c6.572,0,11.906,5.334,11.906,11.906c0,6.584-5.334,11.906-11.906,11.906H104.586
		c-6.572,0-11.906-5.322-11.906-11.906c0-6.572,5.334-11.906,11.906-11.906H212.411z"/>
	<path style="fill:#1E0478;" d="M173.989,118.433c6.572,0,11.906,5.334,11.906,11.906c0,6.572-5.334,11.906-11.906,11.906h-69.403
		c-6.572,0-11.906-5.334-11.906-11.906c0-6.572,5.334-11.906,11.906-11.906H173.989z"/>
</g>
<g>
</g>
<g>
</g>
<g>
</g>
<g>
</g>
<g>
</g>
<g>
</g>
<g>
</g>
<g>
</g>
<g>
</g>
<g>
</g>
<g>
</g>
<g>
</g>
<g>
</g>
<g>
</g>
<g>
</g>
</svg>
