<svg xmlns="http://www.w3.org/2000/svg" width="250.658" height="261.229" viewBox="0 0 250.658 261.229">
  <g id="skyline" transform="translate(-23.011)">
    <g id="Group_79" data-name="Group 79" transform="translate(23.011)">
      <g id="Group_78" data-name="Group 78">
        <path id="Path_354" data-name="Path 354" d="M27.653,252.424h7.736V22.014a4.527,4.527,0,0,1,4.642-4.4h86.647a4.526,4.526,0,0,1,4.642,4.4V41.092H140.6V22.014a4.527,4.527,0,0,1,4.642-4.4H165.36V4.4a4.648,4.648,0,0,1,9.283,0V17.611h20.114a4.526,4.526,0,0,1,4.642,4.4V41.092h13.926a4.526,4.526,0,0,1,4.642,4.4V82.184h38.682a4.526,4.526,0,0,1,4.642,4.4V252.423h7.737a4.409,4.409,0,1,1,0,8.806H27.653a4.409,4.409,0,1,1,0-8.805ZM190.116,26.416H149.887V41.092h40.229Zm15.473,226.008h3.095v-7.338a4.648,4.648,0,0,1,9.283,0v7.338h3.095V237.748H205.589Zm-30.945-113v113h21.662V233.346a4.527,4.527,0,0,1,4.642-4.4H225.7a4.526,4.526,0,0,1,4.642,4.4v19.078h21.662V90.99H174.644ZM170,82.185h38.682V49.9H131.32v85.119H165.36V120.341H151.434a4.409,4.409,0,1,1,0-8.805H165.36V96.86H151.434a4.409,4.409,0,1,1,0-8.805H165.36V86.588A4.527,4.527,0,0,1,170,82.185ZM88,252.424H165.36v-108.6H88Zm-43.323,0h34.04V133.549a4.648,4.648,0,0,1,9.283,0v1.467H97.28v-1.467a4.648,4.648,0,0,1,9.283,0v1.467h15.473V26.416H44.672V252.424Z" transform="translate(-23.011)" fill="#fff"/>
        <path id="Path_355" data-name="Path 355" d="M257.766,390.138a4.527,4.527,0,0,1-4.642-4.4V303.552a4.648,4.648,0,0,1,9.283,0v82.185A4.527,4.527,0,0,1,257.766,390.138Z" transform="translate(-135.531 -146.519)" fill="#fff"/>
        <path id="Path_356" data-name="Path 356" d="M292.283,390.138a4.527,4.527,0,0,1-4.642-4.4V303.552a4.648,4.648,0,0,1,9.283,0v82.185A4.526,4.526,0,0,1,292.283,390.138Z" transform="translate(-188.616 -146.519)" fill="#fff"/>
        <path id="Path_357" data-name="Path 357" d="M326.8,390.138a4.527,4.527,0,0,1-4.642-4.4V303.552a4.648,4.648,0,0,1,9.283,0v82.185A4.527,4.527,0,0,1,326.8,390.138Z" transform="translate(-241.699 -146.519)" fill="#fff"/>
        <path id="Path_358" data-name="Path 358" d="M338.3,95.215a4.526,4.526,0,0,1-4.642-4.4v-5.87a4.648,4.648,0,0,1,9.283,0v5.871A4.526,4.526,0,0,1,338.3,95.215Z" transform="translate(-259.394 -39.447)" fill="#fff"/>
        <path id="Path_359" data-name="Path 359" d="M372.822,95.215a4.526,4.526,0,0,1-4.642-4.4v-5.87a4.648,4.648,0,0,1,9.283,0v5.871A4.526,4.526,0,0,1,372.822,95.215Z" transform="translate(-312.478 -39.447)" fill="#fff"/>
        <path id="Path_360" data-name="Path 360" d="M407.339,95.215a4.526,4.526,0,0,1-4.642-4.4v-5.87a4.648,4.648,0,0,1,9.283,0v5.871A4.526,4.526,0,0,1,407.339,95.215Z" transform="translate(-365.563 -39.447)" fill="#fff"/>
        <path id="Path_361" data-name="Path 361" d="M338.3,152.743a4.526,4.526,0,0,1-4.642-4.4V142.47a4.648,4.648,0,0,1,9.283,0v5.871A4.526,4.526,0,0,1,338.3,152.743Z" transform="translate(-259.394 -67.623)" fill="#fff"/>
        <path id="Path_362" data-name="Path 362" d="M372.822,152.743a4.526,4.526,0,0,1-4.642-4.4V142.47a4.648,4.648,0,0,1,9.283,0v5.871A4.526,4.526,0,0,1,372.822,152.743Z" transform="translate(-312.478 -67.623)" fill="#fff"/>
        <path id="Path_363" data-name="Path 363" d="M407.339,152.743a4.526,4.526,0,0,1-4.642-4.4V142.47a4.648,4.648,0,0,1,9.283,0v5.871A4.526,4.526,0,0,1,407.339,152.743Z" transform="translate(-365.563 -67.623)" fill="#fff"/>
        <path id="Path_364" data-name="Path 364" d="M338.3,210.272a4.526,4.526,0,0,1-4.642-4.4V200a4.648,4.648,0,0,1,9.283,0v5.87A4.527,4.527,0,0,1,338.3,210.272Z" transform="translate(-259.394 -95.8)" fill="#fff"/>
        <path id="Path_365" data-name="Path 365" d="M372.822,210.272a4.526,4.526,0,0,1-4.642-4.4V200a4.648,4.648,0,0,1,9.283,0v5.87A4.527,4.527,0,0,1,372.822,210.272Z" transform="translate(-312.478 -95.8)" fill="#fff"/>
        <path id="Path_366" data-name="Path 366" d="M407.339,210.272a4.526,4.526,0,0,1-4.642-4.4V200a4.648,4.648,0,0,1,9.283,0v5.87A4.527,4.527,0,0,1,407.339,210.272Z" transform="translate(-365.563 -95.8)" fill="#fff"/>
        <path id="Path_367" data-name="Path 367" d="M96.687,233.283a4.526,4.526,0,0,1-4.642-4.4v-5.87a4.648,4.648,0,0,1,9.283,0v5.87A4.527,4.527,0,0,1,96.687,233.283Z" transform="translate(112.195 -107.071)" fill="#fff"/>
        <path id="Path_368" data-name="Path 368" d="M131.2,233.283a4.526,4.526,0,0,1-4.642-4.4v-5.87a4.648,4.648,0,0,1,9.283,0v5.87A4.527,4.527,0,0,1,131.2,233.283Z" transform="translate(59.11 -107.071)" fill="#fff"/>
        <path id="Path_369" data-name="Path 369" d="M165.721,233.283a4.526,4.526,0,0,1-4.642-4.4v-5.87a4.648,4.648,0,0,1,9.283,0v5.87A4.527,4.527,0,0,1,165.721,233.283Z" transform="translate(6.026 -107.071)" fill="#fff"/>
        <path id="Path_370" data-name="Path 370" d="M96.687,290.811a4.526,4.526,0,0,1-4.642-4.4v-5.871a4.648,4.648,0,0,1,9.283,0v5.871A4.527,4.527,0,0,1,96.687,290.811Z" transform="translate(112.195 -135.247)" fill="#fff"/>
        <path id="Path_371" data-name="Path 371" d="M131.2,290.811a4.526,4.526,0,0,1-4.642-4.4v-5.871a4.648,4.648,0,0,1,9.283,0v5.871A4.527,4.527,0,0,1,131.2,290.811Z" transform="translate(59.11 -135.247)" fill="#fff"/>
        <path id="Path_372" data-name="Path 372" d="M165.721,290.811a4.526,4.526,0,0,1-4.642-4.4v-5.871a4.648,4.648,0,0,1,9.283,0v5.871A4.527,4.527,0,0,1,165.721,290.811Z" transform="translate(6.026 -135.247)" fill="#fff"/>
        <path id="Path_373" data-name="Path 373" d="M96.687,348.339a4.526,4.526,0,0,1-4.642-4.4v-5.871a4.648,4.648,0,0,1,9.283,0v5.871A4.527,4.527,0,0,1,96.687,348.339Z" transform="translate(112.195 -163.424)" fill="#fff"/>
        <path id="Path_374" data-name="Path 374" d="M131.2,348.339a4.526,4.526,0,0,1-4.642-4.4v-5.871a4.648,4.648,0,0,1,9.283,0v5.871A4.526,4.526,0,0,1,131.2,348.339Z" transform="translate(59.11 -163.424)" fill="#fff"/>
        <path id="Path_375" data-name="Path 375" d="M165.721,348.339a4.526,4.526,0,0,1-4.642-4.4v-5.871a4.648,4.648,0,0,1,9.283,0v5.871A4.526,4.526,0,0,1,165.721,348.339Z" transform="translate(6.026 -163.424)" fill="#fff"/>
        <path id="Path_376" data-name="Path 376" d="M96.687,405.867a4.526,4.526,0,0,1-4.642-4.4v-5.871a4.648,4.648,0,0,1,9.283,0v5.871A4.527,4.527,0,0,1,96.687,405.867Z" transform="translate(112.195 -191.6)" fill="#fff"/>
        <path id="Path_377" data-name="Path 377" d="M131.2,405.867a4.526,4.526,0,0,1-4.642-4.4v-5.871a4.648,4.648,0,0,1,9.283,0v5.871A4.526,4.526,0,0,1,131.2,405.867Z" transform="translate(59.11 -191.6)" fill="#fff"/>
        <path id="Path_378" data-name="Path 378" d="M165.721,405.867a4.526,4.526,0,0,1-4.642-4.4v-5.871a4.648,4.648,0,0,1,9.283,0v5.871A4.526,4.526,0,0,1,165.721,405.867Z" transform="translate(6.026 -191.6)" fill="#fff"/>
        <path id="Path_379" data-name="Path 379" d="M407.339,267.8a4.526,4.526,0,0,1-4.642-4.4v-5.87a4.648,4.648,0,0,1,9.283,0v5.87A4.527,4.527,0,0,1,407.339,267.8Z" transform="translate(-365.563 -123.977)" fill="#fff"/>
        <path id="Path_380" data-name="Path 380" d="M407.339,325.328a4.526,4.526,0,0,1-4.642-4.4v-5.87a4.648,4.648,0,0,1,9.283,0v5.87A4.527,4.527,0,0,1,407.339,325.328Z" transform="translate(-365.563 -152.153)" fill="#fff"/>
        <path id="Path_381" data-name="Path 381" d="M407.339,382.856a4.526,4.526,0,0,1-4.642-4.4v-5.871a4.648,4.648,0,0,1,9.283,0v5.871A4.527,4.527,0,0,1,407.339,382.856Z" transform="translate(-365.563 -180.33)" fill="#fff"/>
        <path id="Path_382" data-name="Path 382" d="M407.339,440.384a4.526,4.526,0,0,1-4.642-4.4v-5.871a4.648,4.648,0,0,1,9.283,0v5.871A4.527,4.527,0,0,1,407.339,440.384Z" transform="translate(-365.563 -208.506)" fill="#fff"/>
        <path id="Path_383" data-name="Path 383" d="M172.584,130.965a4.527,4.527,0,0,1,4.642-4.4H214.36a4.409,4.409,0,1,1,0,8.805H177.226A4.526,4.526,0,0,1,172.584,130.965Z" transform="translate(-48.802 -61.988)" fill="#fff"/>
      </g>
    </g>
  </g>
</svg>
