<svg xmlns="http://www.w3.org/2000/svg" width="241.778" height="261.229" viewBox="0 0 241.778 261.229">
  <g id="skyline" transform="translate(-23.011)">
    <g id="Group_79" data-name="Group 79" transform="translate(23.011)">
      <g id="Group_78" data-name="Group 78">
        <path id="Path_354" data-name="Path 354" d="M260.312,252.424h-7.462V22.014a4.44,4.44,0,0,0-4.477-4.4H164.794a4.44,4.44,0,0,0-4.477,4.4V41.092h-8.955V22.014a4.44,4.44,0,0,0-4.477-4.4h-19.4V4.4a4.478,4.478,0,0,0-8.954,0V17.611h-19.4a4.44,4.44,0,0,0-4.477,4.4V41.092H81.217a4.44,4.44,0,0,0-4.477,4.4V82.184H39.429a4.44,4.44,0,0,0-4.477,4.4V252.423H27.488a4.4,4.4,0,1,0,0,8.806H260.312a4.4,4.4,0,1,0,0-8.805ZM103.6,26.416h38.8V41.092H103.6ZM88.679,252.424H85.694v-7.338a4.478,4.478,0,0,0-8.955,0v7.338H73.755V237.748H88.679Zm29.849-113v113H97.634V233.346a4.44,4.44,0,0,0-4.477-4.4H69.277a4.44,4.44,0,0,0-4.477,4.4v19.078H43.906V90.99h74.623Zm4.477-57.235H85.694V49.9h74.623v85.119H127.483V120.341h13.432a4.4,4.4,0,1,0,0-8.805H127.483V96.86h13.432a4.4,4.4,0,1,0,0-8.805H127.483V86.588A4.44,4.44,0,0,0,123.005,82.185Zm79.1,170.239H127.483v-108.6h74.623Zm41.789,0H211.06V133.549a4.478,4.478,0,0,0-8.955,0v1.467h-8.954v-1.467a4.478,4.478,0,0,0-8.954,0v1.467H169.272V26.416h74.623V252.424Z" transform="translate(-23.011)" fill="#fff"/>
        <path id="Path_355" data-name="Path 355" d="M257.6,390.138a4.441,4.441,0,0,0,4.477-4.4V303.552a4.478,4.478,0,0,0-8.955,0v82.185A4.44,4.44,0,0,0,257.6,390.138Z" transform="translate(-133.727 -146.519)" fill="#fff"/>
        <path id="Path_356" data-name="Path 356" d="M292.118,390.138a4.44,4.44,0,0,0,4.477-4.4V303.552a4.478,4.478,0,0,0-8.954,0v82.185A4.44,4.44,0,0,0,292.118,390.138Z" transform="translate(-150.335 -146.519)" fill="#fff"/>
        <path id="Path_357" data-name="Path 357" d="M326.634,390.138a4.441,4.441,0,0,0,4.477-4.4V303.552a4.478,4.478,0,0,0-8.955,0v82.185A4.44,4.44,0,0,0,326.634,390.138Z" transform="translate(-166.942 -146.519)" fill="#fff"/>
        <path id="Path_358" data-name="Path 358" d="M338.14,95.215a4.44,4.44,0,0,0,4.477-4.4v-5.87a4.478,4.478,0,0,0-8.954,0v5.871A4.44,4.44,0,0,0,338.14,95.215Z" transform="translate(-172.478 -39.447)" fill="#fff"/>
        <path id="Path_359" data-name="Path 359" d="M372.657,95.215a4.44,4.44,0,0,0,4.477-4.4v-5.87a4.478,4.478,0,0,0-8.954,0v5.871A4.44,4.44,0,0,0,372.657,95.215Z" transform="translate(-189.085 -39.447)" fill="#fff"/>
        <path id="Path_360" data-name="Path 360" d="M407.174,95.215a4.44,4.44,0,0,0,4.477-4.4v-5.87a4.478,4.478,0,0,0-8.954,0v5.871A4.44,4.44,0,0,0,407.174,95.215Z" transform="translate(-205.693 -39.447)" fill="#fff"/>
        <path id="Path_361" data-name="Path 361" d="M338.14,152.743a4.44,4.44,0,0,0,4.477-4.4V142.47a4.478,4.478,0,0,0-8.954,0v5.871A4.44,4.44,0,0,0,338.14,152.743Z" transform="translate(-172.478 -67.623)" fill="#fff"/>
        <path id="Path_362" data-name="Path 362" d="M372.657,152.743a4.44,4.44,0,0,0,4.477-4.4V142.47a4.478,4.478,0,0,0-8.954,0v5.871A4.44,4.44,0,0,0,372.657,152.743Z" transform="translate(-189.085 -67.623)" fill="#fff"/>
        <path id="Path_363" data-name="Path 363" d="M407.174,152.743a4.44,4.44,0,0,0,4.477-4.4V142.47a4.478,4.478,0,0,0-8.954,0v5.871A4.44,4.44,0,0,0,407.174,152.743Z" transform="translate(-205.693 -67.623)" fill="#fff"/>
        <path id="Path_364" data-name="Path 364" d="M338.14,210.272a4.44,4.44,0,0,0,4.477-4.4V200a4.478,4.478,0,0,0-8.954,0v5.871A4.44,4.44,0,0,0,338.14,210.272Z" transform="translate(-172.478 -95.8)" fill="#fff"/>
        <path id="Path_365" data-name="Path 365" d="M372.657,210.272a4.44,4.44,0,0,0,4.477-4.4V200a4.478,4.478,0,0,0-8.954,0v5.871A4.44,4.44,0,0,0,372.657,210.272Z" transform="translate(-189.085 -95.8)" fill="#fff"/>
        <path id="Path_366" data-name="Path 366" d="M407.174,210.272a4.44,4.44,0,0,0,4.477-4.4V200a4.478,4.478,0,0,0-8.954,0v5.871A4.44,4.44,0,0,0,407.174,210.272Z" transform="translate(-205.693 -95.8)" fill="#fff"/>
        <path id="Path_367" data-name="Path 367" d="M96.522,233.283a4.44,4.44,0,0,0,4.477-4.4V223.01a4.478,4.478,0,0,0-8.954,0v5.871A4.441,4.441,0,0,0,96.522,233.283Z" transform="translate(-56.226 -107.071)" fill="#fff"/>
        <path id="Path_368" data-name="Path 368" d="M131.039,233.283a4.44,4.44,0,0,0,4.477-4.4V223.01a4.478,4.478,0,0,0-8.955,0v5.871A4.44,4.44,0,0,0,131.039,233.283Z" transform="translate(-72.833 -107.071)" fill="#fff"/>
        <path id="Path_369" data-name="Path 369" d="M165.556,233.283a4.44,4.44,0,0,0,4.477-4.4V223.01a4.478,4.478,0,0,0-8.954,0v5.871A4.44,4.44,0,0,0,165.556,233.283Z" transform="translate(-89.441 -107.071)" fill="#fff"/>
        <path id="Path_370" data-name="Path 370" d="M96.522,290.811a4.44,4.44,0,0,0,4.477-4.4v-5.871a4.478,4.478,0,0,0-8.954,0v5.871A4.441,4.441,0,0,0,96.522,290.811Z" transform="translate(-56.226 -135.247)" fill="#fff"/>
        <path id="Path_371" data-name="Path 371" d="M131.039,290.811a4.44,4.44,0,0,0,4.477-4.4v-5.871a4.478,4.478,0,0,0-8.955,0v5.871A4.44,4.44,0,0,0,131.039,290.811Z" transform="translate(-72.833 -135.247)" fill="#fff"/>
        <path id="Path_372" data-name="Path 372" d="M165.556,290.811a4.44,4.44,0,0,0,4.477-4.4v-5.871a4.478,4.478,0,0,0-8.954,0v5.871A4.44,4.44,0,0,0,165.556,290.811Z" transform="translate(-89.441 -135.247)" fill="#fff"/>
        <path id="Path_373" data-name="Path 373" d="M96.522,348.339a4.44,4.44,0,0,0,4.477-4.4v-5.871a4.478,4.478,0,0,0-8.954,0v5.871A4.44,4.44,0,0,0,96.522,348.339Z" transform="translate(-56.226 -163.424)" fill="#fff"/>
        <path id="Path_374" data-name="Path 374" d="M131.039,348.339a4.44,4.44,0,0,0,4.477-4.4v-5.871a4.478,4.478,0,0,0-8.955,0v5.871A4.44,4.44,0,0,0,131.039,348.339Z" transform="translate(-72.833 -163.424)" fill="#fff"/>
        <path id="Path_375" data-name="Path 375" d="M165.556,348.339a4.44,4.44,0,0,0,4.477-4.4v-5.871a4.478,4.478,0,0,0-8.954,0v5.871A4.44,4.44,0,0,0,165.556,348.339Z" transform="translate(-89.441 -163.424)" fill="#fff"/>
        <path id="Path_376" data-name="Path 376" d="M96.522,405.867a4.44,4.44,0,0,0,4.477-4.4v-5.871a4.478,4.478,0,0,0-8.954,0v5.871A4.44,4.44,0,0,0,96.522,405.867Z" transform="translate(-56.226 -191.6)" fill="#fff"/>
        <path id="Path_377" data-name="Path 377" d="M131.039,405.867a4.44,4.44,0,0,0,4.477-4.4v-5.871a4.478,4.478,0,0,0-8.955,0v5.871A4.44,4.44,0,0,0,131.039,405.867Z" transform="translate(-72.833 -191.6)" fill="#fff"/>
        <path id="Path_378" data-name="Path 378" d="M165.556,405.867a4.44,4.44,0,0,0,4.477-4.4v-5.871a4.478,4.478,0,0,0-8.954,0v5.871A4.44,4.44,0,0,0,165.556,405.867Z" transform="translate(-89.441 -191.6)" fill="#fff"/>
        <path id="Path_379" data-name="Path 379" d="M407.174,267.8a4.44,4.44,0,0,0,4.477-4.4v-5.871a4.478,4.478,0,0,0-8.954,0V263.4A4.44,4.44,0,0,0,407.174,267.8Z" transform="translate(-205.693 -123.977)" fill="#fff"/>
        <path id="Path_380" data-name="Path 380" d="M407.174,325.328a4.44,4.44,0,0,0,4.477-4.4v-5.87a4.478,4.478,0,0,0-8.954,0v5.87A4.44,4.44,0,0,0,407.174,325.328Z" transform="translate(-205.693 -152.153)" fill="#fff"/>
        <path id="Path_381" data-name="Path 381" d="M407.174,382.856a4.44,4.44,0,0,0,4.477-4.4v-5.871a4.478,4.478,0,0,0-8.954,0v5.871A4.44,4.44,0,0,0,407.174,382.856Z" transform="translate(-205.693 -180.33)" fill="#fff"/>
        <path id="Path_382" data-name="Path 382" d="M407.174,440.384a4.44,4.44,0,0,0,4.477-4.4v-5.871a4.478,4.478,0,0,0-8.954,0v5.871A4.44,4.44,0,0,0,407.174,440.384Z" transform="translate(-205.693 -208.506)" fill="#fff"/>
        <path id="Path_383" data-name="Path 383" d="M217.358,130.965a4.44,4.44,0,0,0-4.477-4.4H177.061a4.4,4.4,0,1,0,0,8.805H212.88A4.44,4.44,0,0,0,217.358,130.965Z" transform="translate(-94.976 -61.988)" fill="#fff"/>
      </g>
    </g>
  </g>
</svg>
