<svg xmlns="http://www.w3.org/2000/svg" width="1099.28" height="200.063" viewBox="0 0 1099.28 200.063">
  <g id="Layer_2" data-name="Layer 2" transform="translate(0 -0.007)">
    <g id="Layer_2-2" data-name="Layer 2">
      <path id="Path_786" data-name="Path 786" d="M303.44,186.16a105.25,105.25,0,1,0-209.7,12.91H302.65A105.787,105.787,0,0,0,303.44,186.16Z" fill="#7dce82"/>
      <path id="Path_787" data-name="Path 787" d="M682.21,169.59a154.41,154.41,0,1,0-306,29.48H679.39a154.767,154.767,0,0,0,2.82-29.48Z" fill="#46c9f4"/>
      <path id="Path_788" data-name="Path 788" d="M977.87,173.63a112.27,112.27,0,1,0-221.65,25.44H975a112.217,112.217,0,0,0,2.87-25.44Z" fill="#f2e86c"/>
      <path id="Path_789" data-name="Path 789" d="M174.39,128.29l42.31-21.55h79.45l39.82,21.55h-6.93v70.67l-146.91-.09V128.29Z" fill="#fff"/>
      <line id="Line_15" data-name="Line 15" y2="70.73" transform="translate(182.13 128.29)" fill="none" stroke="#2b4162" stroke-miterlimit="10" stroke-width="2"/>
      <path id="Path_790" data-name="Path 790" d="M260.38,128.29v70.67h68.66V128.29" fill="none" stroke="#2b4162" stroke-linecap="round" stroke-linejoin="round" stroke-width="2"/>
      <path id="Path_791" data-name="Path 791" d="M335.97,128.29l-39.74-21.55-44.08,21.55" fill="none" stroke="#2b4162" stroke-linecap="round" stroke-linejoin="round" stroke-width="2"/>
      <path id="Path_792" data-name="Path 792" d="M296.13,106.74H216.7l-42.31,21.55h30.98" fill="none" stroke="#2b4162" stroke-linecap="round" stroke-linejoin="round" stroke-width="2"/>
      <path id="Path_793" data-name="Path 793" d="M224.13,160.97V146.61H216.9v14.36" fill="none" stroke="#2b4162" stroke-linecap="round" stroke-linejoin="round" stroke-width="2"/>
      <path id="Path_794" data-name="Path 794" d="M244.4,160.97V146.61h-7.24v14.36" fill="none" stroke="#2b4162" stroke-linecap="round" stroke-linejoin="round" stroke-width="2"/>
      <path id="Path_795" data-name="Path 795" d="M203.87,160.97V146.61h-7.24v14.36" fill="none" stroke="#2b4162" stroke-linecap="round" stroke-linejoin="round" stroke-width="2"/>
      <line id="Line_16" data-name="Line 16" x2="4.35" transform="translate(215.56 128.29)" fill="none" stroke="#2b4162" stroke-linecap="round" stroke-linejoin="round" stroke-width="2"/>
      <path id="Path_796" data-name="Path 796" d="M288.78,144.83h14.71a6.39,6.39,0,0,1,6.39,6.39v47.65H282.39V151.22A6.39,6.39,0,0,1,288.78,144.83Z" fill="none" stroke="#2b4162" stroke-miterlimit="10" stroke-width="2"/>
      <circle id="Ellipse_32" data-name="Ellipse 32" cx="5.15" cy="5.15" r="5.15" transform="translate(290.98 119.26)" fill="none" stroke="#2b4162" stroke-miterlimit="10" stroke-width="2"/>
      <rect id="Rectangle_76" data-name="Rectangle 76" width="3.79" height="10.6" transform="translate(287.69 166.81)" fill="none" stroke="#2b4162" stroke-miterlimit="10" stroke-width="2"/>
      <path id="Path_797" data-name="Path 797" d="M62.99,126.11l13.8-17.07,13.8,17.07H86.65v3.94l9.85,13.78H92.56v3.94l9.86,13.78H96.5v3.94l9.86,13.78H47.22l10.86-14.36v-3.36H51.16l9.86-13.78v-3.94H57.08l9.85-13.78v-3.94Z" fill="#fff"/>
      <line id="Line_17" data-name="Line 17" y1="49.22" transform="translate(76.79 149.74)" fill="none" stroke="#2b4162" stroke-linecap="round" stroke-linejoin="round" stroke-width="2"/>
      <path id="Path_798" data-name="Path 798" d="M70.88,179.27H47.22l9.86-13.78" fill="none" stroke="#2b4162" stroke-linecap="round" stroke-linejoin="round" stroke-width="2"/>
      <line id="Line_18" data-name="Line 18" y1="13.78" x2="9.86" transform="translate(51.16 147.77)" fill="none" stroke="#2b4162" stroke-linecap="round" stroke-linejoin="round" stroke-width="2"/>
      <line id="Line_19" data-name="Line 19" y1="13.78" x2="9.85" transform="translate(57.08 130.05)" fill="none" stroke="#2b4162" stroke-linecap="round" stroke-linejoin="round" stroke-width="2"/>
      <line id="Line_20" data-name="Line 20" y1="17.71" x2="13.8" transform="translate(62.99 108.4)" fill="none" stroke="#2b4162" stroke-linecap="round" stroke-linejoin="round" stroke-width="2"/>
      <path id="Path_799" data-name="Path 799" d="M82.7,179.27h23.66L96.5,165.49" fill="none" stroke="#2b4162" stroke-linecap="round" stroke-linejoin="round" stroke-width="2"/>
      <line id="Line_21" data-name="Line 21" x1="9.86" y1="13.78" transform="translate(92.56 147.77)" fill="none" stroke="#2b4162" stroke-linecap="round" stroke-linejoin="round" stroke-width="2"/>
      <line id="Line_22" data-name="Line 22" x1="9.85" y1="13.78" transform="translate(86.65 130.05)" fill="none" stroke="#2b4162" stroke-linecap="round" stroke-linejoin="round" stroke-width="2"/>
      <line id="Line_23" data-name="Line 23" x1="13.8" y1="17.71" transform="translate(76.79 108.4)" fill="none" stroke="#2b4162" stroke-linecap="round" stroke-linejoin="round" stroke-width="2"/>
      <path id="Path_800" data-name="Path 800" d="M767.99,120.61h73.84l36.23,19.89h-9.7v58.46H735.22V140.5h-6.66l34.05-19.89Z" fill="#fff"/>
      <line id="Line_24" data-name="Line 24" y2="58.46" transform="translate(868.36 140.5)" fill="none" stroke="#2b4162" stroke-miterlimit="10" stroke-width="2"/>
      <circle id="Ellipse_33" data-name="Ellipse 33" cx="11.13" cy="11.13" r="11.13" transform="translate(814.33 87.9)" fill="#fff" stroke="#2b4162" stroke-miterlimit="10" stroke-width="2"/>
      <circle id="Ellipse_34" data-name="Ellipse 34" cx="23.82" cy="23.82" r="23.82" transform="translate(819.19 53.7)" fill="#fff" stroke="#2b4162" stroke-miterlimit="10" stroke-width="2"/>
      <circle id="Ellipse_35" data-name="Ellipse 35" cx="7.21" cy="7.21" r="7.21" transform="translate(870.85 32.07)" fill="#fff" stroke="#2b4162" stroke-miterlimit="10" stroke-width="2"/>
      <circle id="Ellipse_36" data-name="Ellipse 36" cx="2.98" cy="2.98" r="2.98" transform="translate(803.47 50.72)" fill="#fff" stroke="#2b4162" stroke-miterlimit="10" stroke-width="2"/>
      <circle id="Ellipse_37" data-name="Ellipse 37" cx="2.98" cy="2.98" r="2.98" transform="translate(874.98 97.07)" fill="#fff" stroke="#2b4162" stroke-miterlimit="10" stroke-width="2"/>
      <path id="Path_801" data-name="Path 801" d="M790.36,140.5v58.46H735.22V140.5" fill="none" stroke="#2b4162" stroke-linecap="round" stroke-linejoin="round" stroke-width="2"/>
      <path id="Path_802" data-name="Path 802" d="M728.66,140.5l34.12-19.89L798,140.5" fill="none" stroke="#2b4162" stroke-linecap="round" stroke-linejoin="round" stroke-width="2"/>
      <path id="Path_803" data-name="Path 803" d="M762.86,120.61h78.97l36.23,19.89H852.44" fill="none" stroke="#2b4162" stroke-linecap="round" stroke-linejoin="round" stroke-width="2"/>
      <rect id="Rectangle_77" data-name="Rectangle 77" width="9.46" height="16.4" transform="translate(822.12 108.06)" stroke-width="2" stroke="#2b4162" stroke-linecap="round" stroke-linejoin="round" fill="#fff"/>
      <rect id="Rectangle_78" data-name="Rectangle 78" width="4.73" height="16.4" transform="translate(817.39 108.06)" stroke-width="2" stroke="#2b4162" stroke-linecap="round" stroke-linejoin="round" fill="#fff"/>
      <path id="Path_804" data-name="Path 804" d="M752.9,198.96V153.39h18.04v45.57" fill="none" stroke="#2b4162" stroke-linecap="round" stroke-linejoin="round" stroke-width="2"/>
      <path id="Path_805" data-name="Path 805" d="M809.43,172.91V156.9h5.99v16.01" fill="none" stroke="#2b4162" stroke-linecap="round" stroke-linejoin="round" stroke-width="2"/>
      <path id="Path_806" data-name="Path 806" d="M828.93,172.91V156.9h5.99v16.01" fill="none" stroke="#2b4162" stroke-linecap="round" stroke-linejoin="round" stroke-width="2"/>
      <path id="Path_807" data-name="Path 807" d="M848.67,172.91V156.9h5.98v16.01" fill="none" stroke="#2b4162" stroke-linecap="round" stroke-linejoin="round" stroke-width="2"/>
      <line id="Line_25" data-name="Line 25" x1="3.6" transform="translate(840.41 140.5)" fill="none" stroke="#2b4162" stroke-linecap="round" stroke-linejoin="round" stroke-width="2"/>
      <rect id="Rectangle_79" data-name="Rectangle 79" width="24.3" height="4.9" transform="translate(749.77 148.49)" stroke-width="2" stroke="#2b4162" stroke-linecap="round" stroke-linejoin="round" fill="none"/>
      <path id="Path_808" data-name="Path 808" d="M650.25,198.96l1.36-14.22-6.23,1.17,7.89-8.6,2.35-5.76,5.11-1.68-3.26,8.02,2.26,4.83,14.06-1.13,10.42-2.7-7.57,6.76,2.22,12.79-5.13-4.9-3.89,5.42-1.63-6.15h-7.94l-2.52,6.15-3.04-5.15Z" fill="#fff"/>
      <path id="Path_809" data-name="Path 809" d="M697.58,161.22h7.29a2,2,0,0,1,2,2v33.65a2,2,0,0,1-2,2h-1.45a2,2,0,0,1-2-2V185H701v11.89a2,2,0,0,1-2,2h-1.46a2,2,0,0,1-2-2V163.22a2,2,0,0,1,2.04-2Z" fill="#fff" stroke="#2b4162" stroke-linecap="round" stroke-linejoin="round" stroke-width="2"/>
      <path id="Path_810" data-name="Path 810" d="M676.64,185.65l2.22,12.79-5.13-4.9-3.89,5.42-1.63-6.15h-7.94l-2.52,6.15-3.04-5.15-4.46,5.15,1.36-14.22" fill="none" stroke="#2b4162" stroke-linecap="round" stroke-linejoin="round" stroke-width="2"/>
      <path id="Path_811" data-name="Path 811" d="M653.71,184.35l-8.33,1.56,7.89-8.6,2.35-5.76,5.11-1.68-3.26,8.02,2.26,4.83,11.28-.99,2.78-.14,10.42-2.7-9.06,7.72" fill="none" stroke="#2b4162" stroke-linecap="round" stroke-linejoin="round" stroke-width="2"/>
      <path id="Path_812" data-name="Path 812" d="M695.22,177.4l.9.61a2,2,0,0,0,2.78-.5L709.07,166a2,2,0,0,0-.5-2.79l-.9-.62a2,2,0,0,0-2.78.51l-10.17,11.53a2,2,0,0,0,.5,2.77Z" fill="#fff" stroke="#2b4162" stroke-linecap="round" stroke-linejoin="round" stroke-width="2"/>
      <circle id="Ellipse_38" data-name="Ellipse 38" cx="6.96" cy="6.96" r="6.96" transform="translate(694.27 148.19)" stroke-width="2" stroke="#2b4162" stroke-linecap="round" stroke-linejoin="round" fill="#fff"/>
      <path id="Path_813" data-name="Path 813" d="M695.22,177.4s-5,13.29-17.88,13" fill="none" stroke="#2b4162" stroke-linecap="round" stroke-linejoin="round" stroke-width="2"/>
      <path id="Path_814" data-name="Path 814" d="M526,99.31s-12.59,1.31-12.21,13.25C513.75,112.56,526.45,111.55,526,99.31Z" fill="#7dce82"/>
      <circle id="Ellipse_39" data-name="Ellipse 39" cx="3.13" cy="3.13" r="3.13" transform="translate(501.92 42.83)" fill="#fff"/>
      <rect id="Rectangle_80" data-name="Rectangle 80" width="132.11" height="126.65" transform="translate(486.36 72.31)" fill="#fff"/>
      <rect id="Rectangle_81" data-name="Rectangle 81" width="144.97" height="9.72" transform="translate(479.17 62.98)" fill="#fff"/>
      <circle id="Ellipse_40" data-name="Ellipse 40" cx="4.24" cy="4.24" r="4.24" transform="translate(537.18 93.38)" stroke-width="2" stroke="#2b4162" stroke-linecap="round" stroke-linejoin="round" fill="none"/>
      <path id="Path_815" data-name="Path 815" d="M539.98,106.18l-7.9-.9.94-8.56,7.9.89Z" fill="#fff" stroke="#2b4162" stroke-linecap="round" stroke-linejoin="round" stroke-width="2"/>
      <line id="Line_26" data-name="Line 26" x1="7.32" y1="3.74" transform="translate(525.7 92.98)" fill="none" stroke="#2b4162" stroke-linecap="round" stroke-linejoin="round" stroke-width="2"/>
      <path id="Path_816" data-name="Path 816" d="M548.74,118.06V102.93a2,2,0,0,1,2-2h7.2a2,2,0,0,1,2,2v15.13" fill="#fff" stroke="#2b4162" stroke-linecap="round" stroke-linejoin="round" stroke-width="2"/>
      <circle id="Ellipse_41" data-name="Ellipse 41" cx="6.88" cy="6.88" r="6.88" transform="translate(547.44 88.07)" stroke-width="2" stroke="#2b4162" stroke-linecap="round" stroke-linejoin="round" fill="#fff"/>
      <path id="Path_817" data-name="Path 817" d="M546.31,96.8l-.45,1a2,2,0,0,0,.94,2.63l11.72,6.75a2,2,0,0,0,2.63-1l.46-1a2,2,0,0,0-1-2.63L549,95.85a2,2,0,0,0-2.69.95Z" fill="#fff" stroke="#2b4162" stroke-linecap="round" stroke-linejoin="round" stroke-width="2"/>
      <rect id="Rectangle_82" data-name="Rectangle 82" width="35.8" height="126.25" transform="translate(582.67 72.71)" stroke-width="2" stroke="#2b4162" stroke-linecap="round" stroke-linejoin="round" fill="none"/>
      <rect id="Rectangle_83" data-name="Rectangle 83" width="96.31" height="126.25" transform="translate(486.36 72.71)" stroke-width="2" stroke="#2b4162" stroke-linecap="round" stroke-linejoin="round" fill="none"/>
      <path id="Path_818" data-name="Path 818" d="M597.73,114.16V96.29h6.68v17.87" fill="none" stroke="#2b4162" stroke-linecap="round" stroke-linejoin="round" stroke-width="2"/>
      <path id="Path_819" data-name="Path 819" d="M597.73,164.82V146.95h6.68v17.87" fill="none" stroke="#2b4162" stroke-linecap="round" stroke-linejoin="round" stroke-width="2"/>
      <path id="Path_820" data-name="Path 820" d="M555.21,164.82V146.95h6.68v17.87" fill="none" stroke="#2b4162" stroke-linecap="round" stroke-linejoin="round" stroke-width="2"/>
      <path id="Path_821" data-name="Path 821" d="M503.88,198.96V148.12h26.81v50.84" fill="none" stroke="#2b4162" stroke-linecap="round" stroke-linejoin="round" stroke-width="2"/>
      <rect id="Rectangle_84" data-name="Rectangle 84" width="33.81" height="6.58" transform="translate(500.38 141.55)" stroke-width="2" stroke="#2b4162" stroke-linecap="round" stroke-linejoin="round" fill="none"/>
      <rect id="Rectangle_85" data-name="Rectangle 85" width="67.32" height="6.35" transform="translate(501.26 118.06)" stroke-width="2" stroke="#2b4162" stroke-linecap="round" stroke-linejoin="round" fill="none"/>
      <path id="Path_822" data-name="Path 822" d="M500.55,86.92s-6.43,20.7,15.2,25.48C515.75,112.4,522.78,91.66,500.55,86.92Z" fill="#fff" stroke="#2b4162" stroke-miterlimit="10" stroke-width="2"/>
      <path id="Path_823" data-name="Path 823" d="M526,99.31s-12.59,1.31-12.21,13.25C513.75,112.56,526.45,111.55,526,99.31Z" fill="#fff" stroke="#2b4162" stroke-miterlimit="10" stroke-width="2"/>
      <rect id="Rectangle_86" data-name="Rectangle 86" width="7.4" height="6.18" transform="translate(510.59 111.88)" stroke-width="2" stroke="#2b4162" stroke-linecap="round" stroke-linejoin="round" fill="#fff"/>
      <rect id="Rectangle_87" data-name="Rectangle 87" width="109.18" height="9.72" transform="translate(479.17 62.98)" stroke-width="2" stroke="#2b4162" stroke-linecap="round" stroke-linejoin="round" fill="none"/>
      <rect id="Rectangle_88" data-name="Rectangle 88" width="35.8" height="9.72" transform="translate(588.35 62.98)" stroke-width="2" stroke="#2b4162" stroke-linecap="round" stroke-linejoin="round" fill="none"/>
      <line id="Line_27" data-name="Line 27" y1="13.9" transform="translate(505.05 49.08)" fill="none" stroke="#2b4162" stroke-linecap="round" stroke-linejoin="round" stroke-width="2"/>
      <circle id="Ellipse_42" data-name="Ellipse 42" cx="3.13" cy="3.13" r="3.13" transform="translate(501.92 42.83)" stroke-width="2" stroke="#2b4162" stroke-linecap="round" stroke-linejoin="round" fill="none"/>
      <circle id="Ellipse_43" data-name="Ellipse 43" cx="2.96" cy="2.96" r="2.96" transform="translate(520.23 170.58)" stroke-width="2" stroke="#2b4162" stroke-linecap="round" stroke-linejoin="round" fill="none"/>
      <rect id="Rectangle_89" data-name="Rectangle 89" width="22.19" height="12.43" transform="translate(547.31 186.41)" stroke-width="2" stroke="#2b4162" stroke-linecap="round" stroke-linejoin="round" fill="none"/>
      <rect id="Rectangle_90" data-name="Rectangle 90" width="27.15" height="4.05" transform="translate(544.97 182.36)" stroke-width="2" stroke="#2b4162" stroke-linecap="round" stroke-linejoin="round" fill="none"/>
      <path id="Path_824" data-name="Path 824" d="M552.41,191.37v7.47" fill="none" stroke="#2b4162" stroke-linecap="round" stroke-linejoin="round" stroke-width="2"/>
      <path id="Path_825" data-name="Path 825" d="M556.22,191.37v7.47" fill="none" stroke="#2b4162" stroke-linecap="round" stroke-linejoin="round" stroke-width="2"/>
      <path id="Path_826" data-name="Path 826" d="M560,191.37v7.47" fill="none" stroke="#2b4162" stroke-linecap="round" stroke-linejoin="round" stroke-width="2"/>
      <path id="Path_827" data-name="Path 827" d="M563.84,191.37v7.47" fill="none" stroke="#2b4162" stroke-linecap="round" stroke-linejoin="round" stroke-width="2"/>
      <path id="Path_828" data-name="Path 828" d="M406.35,168.26l-.3,1.05a2,2,0,0,0,1.38,2.47l14.2,5.89a2,2,0,0,0,2.47-1.38l.3-1a2,2,0,0,0-1.38-2.47l-14.21-5.9A2,2,0,0,0,406.35,168.26Z" fill="#fff" stroke="#2b4162" stroke-linecap="round" stroke-linejoin="round" stroke-width="2"/>
      <path id="Path_829" data-name="Path 829" d="M419.65,172.37h7.29a2,2,0,0,1,2,2V197a2,2,0,0,1-2,2h-1.46a2,2,0,0,1-2-2v-8.89h-.37V197a2,2,0,0,1-2,2h-1.46a2,2,0,0,1-2-2V174.37A2,2,0,0,1,419.65,172.37Z" fill="#fff" stroke="#2b4162" stroke-linecap="round" stroke-linejoin="round" stroke-width="2"/>
      <circle id="Ellipse_44" data-name="Ellipse 44" cx="6.96" cy="6.96" r="6.96" transform="translate(416.34 159.34)" stroke-width="2" stroke="#2b4162" stroke-linecap="round" stroke-linejoin="round" fill="#fff"/>
      <path id="Path_830" data-name="Path 830" d="M412.94,168.26l-.29,1.05a2,2,0,0,0,1.38,2.47l14.2,5.89a2,2,0,0,0,2.47-1.38l.29-1a2,2,0,0,0-1.38-2.47l-14.2-5.9a2,2,0,0,0-2.47,1.34Z" fill="#fff" stroke="#2b4162" stroke-linecap="round" stroke-linejoin="round" stroke-width="2"/>
      <path id="Path_831" data-name="Path 831" d="M426.15,168.26l-.29,1.05a2,2,0,0,0,1.38,2.47l14.2,5.89a2,2,0,0,0,2.47-1.38l.29-1a2,2,0,0,0-1.38-2.47l-14.2-5.9A2,2,0,0,0,426.15,168.26Z" fill="#fff" stroke="#2b4162" stroke-linecap="round" stroke-linejoin="round" stroke-width="2"/>
      <path id="Path_832" data-name="Path 832" d="M439.46,172.37h7.29a2,2,0,0,1,2,2V197a2,2,0,0,1-2,2h-1.46a2,2,0,0,1-2-2v-8.89h-.37V197a2,2,0,0,1-2,2h-1.46a2,2,0,0,1-2-2V174.37A2,2,0,0,1,439.46,172.37Z" fill="#fff" stroke="#2b4162" stroke-linecap="round" stroke-linejoin="round" stroke-width="2"/>
      <circle id="Ellipse_45" data-name="Ellipse 45" cx="6.96" cy="6.96" r="6.96" transform="translate(436.14 159.34)" stroke-width="2" stroke="#2b4162" stroke-linecap="round" stroke-linejoin="round" fill="#fff"/>
      <path id="Path_833" data-name="Path 833" d="M432.75,168.26l-.3,1.05a2,2,0,0,0,1.38,2.47L448,177.67a2,2,0,0,0,2.46-1.38l.3-1a2,2,0,0,0-1.38-2.47l-14.2-5.9A2,2,0,0,0,432.75,168.26Z" fill="#fff" stroke="#2b4162" stroke-linecap="round" stroke-linejoin="round" stroke-width="2"/>
      <path id="Path_834" data-name="Path 834" d="M373.28,160.87h7.29a2,2,0,0,1,2,2V197a2,2,0,0,1-2,2h-1.45a2,2,0,0,1-2-2V184.63h-.38V197a2,2,0,0,1-2,2h-1.46a2,2,0,0,1-2-2V162.87A2,2,0,0,1,373.28,160.87Z" fill="#fff" stroke="#2b4162" stroke-linecap="round" stroke-linejoin="round" stroke-width="2"/>
      <circle id="Ellipse_46" data-name="Ellipse 46" cx="6.96" cy="6.96" r="6.96" transform="translate(369.97 147.84)" stroke-width="2" stroke="#2b4162" stroke-linecap="round" stroke-linejoin="round" fill="#fff"/>
      <ellipse id="Ellipse_47" data-name="Ellipse 47" cx="2.9" cy="3.75" rx="2.9" ry="3.75" transform="matrix(0.709, -0.705, 0.705, 0.709, 379.929, 162.408)" fill="#fff" stroke="#2b4162" stroke-linecap="round" stroke-linejoin="round" stroke-width="2"/>
      <ellipse id="Ellipse_48" data-name="Ellipse 48" cx="3.75" cy="2.9" rx="3.75" ry="2.9" transform="translate(386.176 163.798) rotate(-49.08)" fill="#fff" stroke="#2b4162" stroke-linecap="round" stroke-linejoin="round" stroke-width="2"/>
      <rect id="Rectangle_91" data-name="Rectangle 91" width="11.22" height="11.22" transform="translate(378.84 166.19)" stroke-width="2" stroke="#2b4162" stroke-linecap="round" stroke-linejoin="round" fill="#fff"/>
      <rect id="Rectangle_92" data-name="Rectangle 92" width="7.1" height="11.22" transform="translate(390.06 166.19)" stroke-width="2" stroke="#2b4162" stroke-linecap="round" stroke-linejoin="round" fill="#fff"/>
      <path id="Path_835" data-name="Path 835" d="M368.82,163.76l-.38,1a2,2,0,0,0,1.19,2.57l13.73,6.94a2,2,0,0,0,2.56-1.19l.37-1a2,2,0,0,0-1.19-2.57l-13.72-6.94A2,2,0,0,0,368.82,163.76Z" fill="#fff" stroke="#2b4162" stroke-linecap="round" stroke-linejoin="round" stroke-width="2"/>
      <path id="Path_836" data-name="Path 836" d="M862.55,172.45l11.61-15.95h54.63l12.16,15.57h21.02l7.84,9.52-7.46,10H868.83Z" fill="#fff"/>
      <path id="Path_837" data-name="Path 837" d="M862.55,172.45l11.61-15.95h35.62l11.77,15.57h19.4l7.85,9.52-7.46,10H868.83Z" fill="none" stroke="#2b4162" stroke-linecap="round" stroke-linejoin="round" stroke-width="2"/>
      <line id="Line_28" data-name="Line 28" x2="44.02" transform="translate(870.33 170.54)" fill="none" stroke="#2b4162" stroke-linecap="round" stroke-linejoin="round" stroke-width="2"/>
      <line id="Line_29" data-name="Line 29" y2="9.57" transform="translate(893.3 160.97)" fill="none" stroke="#2b4162" stroke-linecap="round" stroke-linejoin="round" stroke-width="2"/>
      <circle id="Ellipse_49" data-name="Ellipse 49" cx="7.37" cy="7.37" r="7.37" transform="translate(874.68 184.22)" stroke-width="2" stroke="#2b4162" stroke-linecap="round" stroke-linejoin="round" fill="#fff"/>
      <circle id="Ellipse_50" data-name="Ellipse 50" cx="7.37" cy="7.37" r="7.37" transform="translate(923.08 184.22)" stroke-width="2" stroke="#2b4162" stroke-linecap="round" stroke-linejoin="round" fill="#fff"/>
      <path id="Path_838" data-name="Path 838" d="M909.78,156.5h19.01l11.77,15.57h21.41l7.84,9.52-7.46,10H941.34" fill="none" stroke="#2b4162" stroke-linecap="round" stroke-linejoin="round" stroke-width="2"/>
      <line id="Line_30" data-name="Line 30" x2="4.46" transform="translate(895.09 176.83)" fill="#fff" stroke="#2b4162" stroke-linecap="round" stroke-linejoin="round" stroke-width="2"/>
      <line id="Line_31" data-name="Line 31" x2="19.51" transform="translate(948.8 181.59)" fill="none" stroke="#2b4162" stroke-linecap="round" stroke-linejoin="round" stroke-width="2"/>
      <path id="Path_839" data-name="Path 839" d="M943.81,196.14a5.75,5.75,0,0,0,9.89,0" fill="none" stroke="#2b4162" stroke-linecap="round" stroke-linejoin="round" stroke-width="2"/>
      <path id="Path_840" data-name="Path 840" d="M895.4,196.14a5.75,5.75,0,0,0,9.89,0" fill="none" stroke="#2b4162" stroke-linecap="round" stroke-linejoin="round" stroke-width="2"/>
      <path id="Path_841" data-name="Path 841" d="M202.86,199.05H141.47V175.1h-4.21l17.16-8.15H189l18.25,8.95h-4.39Z" fill="#fff"/>
      <path id="Path_842" data-name="Path 842" d="M141.47,175.1v23.97h33.16" fill="none" stroke="#2b4162" stroke-miterlimit="10" stroke-width="2"/>
      <path id="Path_843" data-name="Path 843" d="M174.63,178.95v20.1h28.23v-20.1" fill="none" stroke="#2b4162" stroke-linecap="round" stroke-linejoin="round" stroke-width="2"/>
      <path id="Path_844" data-name="Path 844" d="M205.96,175.1,189,166.95l-17.51,8.15" fill="none" stroke="#2b4162" stroke-linecap="round" stroke-linejoin="round" stroke-width="2"/>
      <path id="Path_845" data-name="Path 845" d="M189,166.95H154.42l-17.16,8.15h12.81" fill="none" stroke="#2b4162" stroke-linecap="round" stroke-linejoin="round" stroke-width="2"/>
      <line id="Line_32" data-name="Line 32" x2="1.47" transform="translate(153.53 175.1)" fill="none" stroke="#2b4162" stroke-linecap="round" stroke-linejoin="round" stroke-width="2"/>
      <circle id="Ellipse_51" data-name="Ellipse 51" cx="7.96" cy="7.96" r="7.96" transform="translate(180.96 177.95)" stroke-width="2" stroke="#2b4162" stroke-linecap="round" stroke-linejoin="round" fill="none"/>
      <line id="Line_33" data-name="Line 33" y2="9.1" transform="translate(148.97 182.23)" fill="none" stroke="#2b4162" stroke-linecap="round" stroke-linejoin="round" stroke-width="2"/>
      <line id="Line_34" data-name="Line 34" y2="6.31" transform="translate(166.83 180.47)" fill="none" stroke="#2b4162" stroke-linecap="round" stroke-linejoin="round" stroke-width="2"/>
      <line id="Line_35" data-name="Line 35" y2="7.51" transform="translate(157.87 191.33)" fill="none" stroke="#2b4162" stroke-linecap="round" stroke-linejoin="round" stroke-width="2"/>
      <ellipse id="Ellipse_52" data-name="Ellipse 52" cx="22.88" cy="30.63" rx="22.88" ry="30.63" transform="translate(983.27 114.97)" fill="#fff"/>
      <line id="Line_36" data-name="Line 36" y1="53.36" transform="translate(1006.15 145.6)" fill="none" stroke="#2b4162" stroke-miterlimit="10" stroke-width="2"/>
      <ellipse id="Ellipse_53" data-name="Ellipse 53" cx="22.88" cy="30.63" rx="22.88" ry="30.63" transform="translate(983.27 114.97)" fill="none" stroke="#2b4162" stroke-miterlimit="10" stroke-width="2"/>
      <line id="Line_37" data-name="Line 37" x2="984.82" transform="translate(55.98 198.96)" fill="none" stroke="#2b4162" stroke-linecap="round" stroke-linejoin="round" stroke-width="2"/>
      <line id="Line_38" data-name="Line 38" x1="8.47" transform="translate(26.07 198.96)" fill="none" stroke="#2b4162" stroke-linecap="round" stroke-linejoin="round" stroke-width="2"/>
      <line id="Line_39" data-name="Line 39" x1="2.2" transform="translate(1 198.96)" fill="none" stroke="#2b4162" stroke-linecap="round" stroke-linejoin="round" stroke-width="2"/>
      <line id="Line_40" data-name="Line 40" x2="8.48" transform="translate(1064.74 198.96)" fill="none" stroke="#2b4162" stroke-linecap="round" stroke-linejoin="round" stroke-width="2"/>
      <line id="Line_41" data-name="Line 41" x2="2.19" transform="translate(1096.09 198.96)" fill="none" stroke="#2b4162" stroke-linecap="round" stroke-linejoin="round" stroke-width="2"/>
      <path id="Path_846" data-name="Path 846" d="M279.5,5.71l8.13,5.2,4.16,9.17-2.91,6.87Z" fill="#fff" stroke="#2b4162" stroke-miterlimit="10" stroke-width="2"/>
      <path id="Path_847" data-name="Path 847" d="M297.1,3.47l2.75,9.25-2.84,9.66-6.7,3.29Z" fill="#fff" stroke="#2b4162" stroke-miterlimit="10" stroke-width="2"/>
      <path id="Path_848" data-name="Path 848" d="M281.41,31.76l6.52-2.75.81-1.32,13.03-7.61,6.85,4.22-7.51,1.63-9.19,5.87Z" fill="#fff" stroke="#2b4162" stroke-miterlimit="10" stroke-width="2"/>
    </g>
  </g>
</svg>
