<svg xmlns="http://www.w3.org/2000/svg" width="269" height="68" viewBox="0 0 269 68">
  <g id="Group_1" data-name="Group 1" transform="translate(-805 -540)">
    <g id="newlogo" transform="translate(753.222 328.643)">
      <g id="g4" transform="translate(51.778 211.357)">
        <path id="path6" d="M118.914,259.3c.2.067,2.332,2.073,2.589,2.314a5.468,5.468,0,0,0,.875.757c-.276.648-.563,1.21-.845,1.868a10.443,10.443,0,0,1-.886,1.817,12.186,12.186,0,0,0-.4-1.73l-1.093-4.17c-.045-.146-.075-.207-.122-.385A4.419,4.419,0,0,0,118.914,259.3Zm-32.669-1.919a2.554,2.554,0,0,1-.79.8c-.207-.148-1.867-2.228-2.131-2.525-.384-.432-.712-.82-1.09-1.258l-1-1.311v-5.444c-.413-.4-.87-.8-1.3-1.205l-1.29-1.18.008-4.7c1.955-.183,2.427-2.151,2.79-2.357l.85-3.558c.094-.988-.358-.825,1.624-.825h6.061v.307H93.8c0,.7.214,2.339.216,2.71a3.629,3.629,0,0,1-.319,1c-.145.385-.217.7-.371,1.075-.055.135-.726,2.065-.726,2.067.017.2.139.14.39.14l1.862-.006v5.527l4.5.013c.232.105.134,1.128.134,1.753l-4.983,1.644c-1.117.394-.855.089-1.777,1.018-.252.254-.479.485-.722.716l-5.766,5.6ZM77.8,226.965c2.43-.547,3.706,2.794,3.788,5.62.085,2.953-.793,6.519-2.873,6.854-4.287.691-5.43-11.457-.915-12.474Zm12.518,6.311c-.037.443-.234.493-.656.488-1.7-.021-6.422.107-7.355-.028a12.012,12.012,0,0,0-.87-5.453c-1.765-3.593-5.054-3.064-6.426.092a12.085,12.085,0,0,0-.823,5.385H52.428a.984.984,0,0,1-.65-.1l22.42.153a10.122,10.122,0,0,0,.688,3.444,9.55,9.55,0,0,0,.425.956,5.568,5.568,0,0,1,.492.746,3.775,3.775,0,0,0,2.059,1.523l-.006,4.022a9.049,9.049,0,0,1-1.035-.9,8.228,8.228,0,0,0-1.043-.92l-2.252,4.63c-.311.9-.546.532-.118,1.446l1.895,4.09,1.093,2.279c.259.613.517.5.519,1.289s-.235.79-.594,1.216a14.782,14.782,0,0,0-1.176,1.5l1.413,1.527c.549.44,8.612,9,8.694,9.151.126.115.207.209.325.307l3.932-3.333c.236-.213.431-.364.654-.57l3.243-2.806a23.164,23.164,0,0,1,2.685-2.195,9.026,9.026,0,0,0,.285,1.1L98.354,269c.125.4.2.767.335,1.119h28.017c.108-.574.3-1.054.441-1.6l2.783-9.6a11.613,11.613,0,0,0,.425-1.7L127.2,254.62c-1.626-1.21-4.565-3.933-6.325-5.276l-4.436-3.7c-.231-.172-.4-.336-.627-.527l-.668-.553c-1.129-.934-.716-.9-2.2-.356-.309.113-.622.162-.9.27s-3.118,1.077-3.394,1.085c-.007-.39-.1-1-.159-1.415-.069-.51-.142-1.005-.194-1.448l-1.069-8.575h3.154a3.606,3.606,0,0,0-.767-1.043,1.708,1.708,0,0,0-1.088-.645,15.711,15.711,0,0,0-.672-4.386,12.055,12.055,0,0,0-.691-1.752l-.878-1.52a11.132,11.132,0,0,0-1.691-1.816,2.432,2.432,0,0,0-.314-.224c-.166-.112-.188-.155-.351-.256a6.928,6.928,0,0,0-2.417-.915,7.054,7.054,0,0,0-2.012-.025,5.862,5.862,0,0,0-.907.179,7.032,7.032,0,0,0-2.853,1.679,12.514,12.514,0,0,0-3.481,8.806c-.179.052-.387.091-.559.151a3.556,3.556,0,0,0-.485.243,7.423,7.423,0,0,0-.9.681Z" transform="translate(-51.778 -216.423)" fill="#27245f" fill-rule="evenodd"/>
        <path id="path8" d="M72.564,271.882l4.454-.012.03,5.554-4.479.012Zm0-7.829,4.453-.012.032,5.553-4.483.013Zm19.321,22.511c-.083-.15-8.145-8.71-8.694-9.15l-4.456.025-.011-5.569,4.3.012L81.936,269.6l-3.207.007,0-5.568,1.437.025,2.252-4.63a8.2,8.2,0,0,1,1.041.919,9.052,9.052,0,0,0,1.035.9l.006-4.022a3.774,3.774,0,0,1-2.059-1.523,5.568,5.568,0,0,0-.492-.746l-19.049-.025v29.553a9.987,9.987,0,0,0,.055,2c.13.162,1.38.068,1.677.068H91.885Z" transform="translate(-58.41 -233.174)" fill="#dd2b1c" fill-rule="evenodd"/>
        <path id="path10" d="M51.778,228.593a.984.984,0,0,0,.65.1h21.76a12.085,12.085,0,0,1,.823-5.385c1.372-3.157,4.661-3.685,6.426-.092a12.012,12.012,0,0,1,.87,5.453c.934.135,5.657.007,7.355.028.422.005.619-.045.656-.488L71.106,211.4l-6.989,6.448c0-1.816,0-3.634,0-5.45,0-1.351.529-1-3.649-1v9.749L58.3,222.99c-.186.152-.31.278-.514.436l-4.338,3.751c-.123.1-.147.1-.264.209l-1.409,1.207Z" transform="translate(-51.778 -211.357)" fill="#dd2b1c" fill-rule="evenodd"/>
        <path id="path12" d="M126.149,274.13l.014-19.19-4.824.007c-.363.206-.835,2.174-2.79,2.357l-.008,4.7,1.29,1.18c.434.408.89.81,1.3,1.205v5.444l1,1.311c.379.438.707.826,1.09,1.258.265.3,1.924,2.378,2.131,2.526a2.555,2.555,0,0,0,.79-.8Z" transform="translate(-91.682 -233.175)" fill="#dd2b1c" fill-rule="evenodd"/>
        <path id="path14" d="M109.585,237.887a9.922,9.922,0,0,0,1.966,4.8.761.761,0,0,1,.295.706c-.648.213-.867,0-1.147-.491a6.406,6.406,0,0,1-.589-1.414,11.8,11.8,0,0,1-.526-3.6Zm2.586-5.481c-4.515,1.017-3.372,13.165.915,12.474,2.08-.335,2.958-3.9,2.873-6.854C115.877,235.2,114.6,231.859,112.171,232.406Z" transform="translate(-86.149 -221.865)" fill="#fefefe" fill-rule="evenodd"/>
        <path id="path16" d="M86.962,278.733l4.483-.013-.032-5.553-4.453.012Z" transform="translate(-72.807 -242.3)" fill="#fefefe" fill-rule="evenodd"/>
        <path id="path18" d="M86.966,294.409l4.479-.012-.03-5.554-4.454.012.005,5.554Z" transform="translate(-72.807 -250.147)" fill="#fefefe" fill-rule="evenodd"/>
        <path id="path20" d="M106.741,294.387l-1.413-1.527a14.786,14.786,0,0,1,1.176-1.5c.359-.426.274-.406.273-1.179a2.184,2.184,0,0,0-.2-1.326l-4.3-.012.011,5.569Z" transform="translate(-81.96 -250.147)" fill="#fefefe" fill-rule="evenodd"/>
        <path id="path22" d="M105.486,278.729l-1.895-4.09c-.428-.914-.192-.549.12-1.445l-1.437-.025,0,5.568Z" transform="translate(-81.96 -242.3)" fill="#fefefe" fill-rule="evenodd"/>
        <path id="path24" d="M111.137,248.458c.28.488.5.7,1.147.491a.761.761,0,0,0-.295-.706,9.922,9.922,0,0,1-1.966-4.8,11.8,11.8,0,0,0,.526,3.6,6.406,6.406,0,0,0,.589,1.414Z" transform="translate(-86.586 -227.419)" fill="#27245f" fill-rule="evenodd"/>
      </g>
    </g>
    <text id="Rentiers" transform="translate(892 593)" fill="#3a6ec9" font-size="54" font-family="SourceSansPro-Light, Source Sans Pro" font-weight="300" letter-spacing="0.01em"><tspan x="0" y="0">Rentiers</tspan></text>
  </g>
</svg>
