<svg xmlns="http://www.w3.org/2000/svg" width="100" height="100" viewBox="0 0 100 100">
  <g id="telephone-handle-silhouette" transform="translate(-0.01)">
    <path id="Path_95" data-name="Path 95" d="M99.8,77.482q-.424-1.278-5.4-3.763-1.347-.783-3.834-2.131T86.056,69.1q-2.027-1.136-3.8-2.2-.284-.213-1.775-1.244a19.963,19.963,0,0,0-2.523-1.527,4.65,4.65,0,0,0-2.025-.5q-1.42,0-3.549,2.024a34.581,34.581,0,0,0-3.906,4.4,42.818,42.818,0,0,1-3.763,4.4q-1.99,2.025-3.268,2.024a4.831,4.831,0,0,1-1.6-.354c-.638-.237-1.124-.439-1.457-.6s-.9-.5-1.7-1-1.256-.77-1.35-.817A74.638,74.638,0,0,1,38.647,61.361,74.6,74.6,0,0,1,26.289,44.67q-.071-.142-.817-1.349t-.995-1.7a15.391,15.391,0,0,1-.6-1.456,4.805,4.805,0,0,1-.355-1.6q0-1.278,2.025-3.267a42.775,42.775,0,0,1,4.4-3.763,34.566,34.566,0,0,0,4.4-3.905q2.024-2.131,2.024-3.551a4.637,4.637,0,0,0-.5-2.024,19.742,19.742,0,0,0-1.527-2.522q-1.031-1.491-1.244-1.776-1.064-1.774-2.2-3.8t-2.486-4.51Q27.07,6.961,26.289,5.61,23.8.64,22.525.214A3.978,3.978,0,0,0,21.034,0a23.4,23.4,0,0,0-5.008.71A28.128,28.128,0,0,0,11.161,2.2Q7.61,3.693,3.632,10.865A27.533,27.533,0,0,0,.01,24.075,27.426,27.426,0,0,0,.259,27.8a30.64,30.64,0,0,0,.888,4.084q.639,2.272,1.029,3.373T3.632,39.2Q4.7,42.043,4.91,42.682A64.328,64.328,0,0,0,10.8,55.111,105.307,105.307,0,0,0,26.109,73.9,105.358,105.358,0,0,0,44.9,89.2a64.434,64.434,0,0,0,12.43,5.9q.64.212,3.479,1.279t3.942,1.456q1.1.391,3.373,1.031a30.918,30.918,0,0,0,4.085.89,26.347,26.347,0,0,0,16.94-3.375q7.172-3.976,8.663-7.53A27.969,27.969,0,0,0,99.3,83.984a23.346,23.346,0,0,0,.711-5.006A3.96,3.96,0,0,0,99.8,77.482Z" transform="translate(0)" fill="#3a6ec9"/>
  </g>
</svg>
