<svg xmlns="http://www.w3.org/2000/svg" width="20" height="20" viewBox="0 0 20 20">
  <g id="email" transform="translate(-0.001 -0.005)">
    <g id="Group_261" data-name="Group 261" transform="translate(0.001 0.004)">
      <g id="Group_260" data-name="Group 260" transform="translate(0)">
        <path id="Path_308" data-name="Path 308" d="M20,7.65a.315.315,0,0,0-.014-.068.333.333,0,0,0-.019-.057.3.3,0,0,0-.033-.051.314.314,0,0,0-.044-.052c-.005,0-.008-.011-.013-.016l-3.206-2.49V2.337a1,1,0,0,0-1-1H12.055L10.608.214a.988.988,0,0,0-1.216,0L7.946,1.337H4.333a1,1,0,0,0-1,1V4.917l-3.2,2.49c-.006,0-.008.011-.013.016a.313.313,0,0,0-.044.052.3.3,0,0,0-.033.051.329.329,0,0,0-.019.057A.316.316,0,0,0,0,7.649c0,.007,0,.013,0,.02V19a.989.989,0,0,0,.2.588s0,.007,0,.009l.011.009A1,1,0,0,0,1,20H19a1,1,0,0,0,.791-.395s.007,0,.009-.008,0-.006,0-.009A.989.989,0,0,0,20,19V7.67C20,7.663,20,7.657,20,7.65ZM9.8.74a.32.32,0,0,1,.4,0l.769.6H9.034Zm-8.716,18.6L9.8,12.567a.32.32,0,0,1,.4,0l8.719,6.771Zm18.25-.52-8.726-6.777a.989.989,0,0,0-1.216,0L.667,18.818V8.178L6.129,12.42a.333.333,0,0,0,.409-.527L.988,7.584,3.333,5.761V8.337a.333.333,0,1,0,.667,0v-6A.333.333,0,0,1,4.333,2H15.667A.333.333,0,0,1,16,2.337v6a.333.333,0,1,0,.667,0V5.761l2.345,1.822L13.453,11.9a.333.333,0,1,0,.409.527l5.472-4.249v10.64Z" transform="translate(-0.001 -0.004)" fill="#717377"/>
        <path id="Path_309" data-name="Path 309" d="M161.574,73.571V72.237a4,4,0,1,0-4,4,.333.333,0,0,0,0-.667,3.334,3.334,0,1,1,3.333-3.334v1.333a.667.667,0,1,1-1.333,0V72.237a.333.333,0,1,0-.667,0,1.333,1.333,0,1,1-1.333-1.333.333.333,0,0,0,0-.667,2,2,0,1,0,1.348,3.474,1.33,1.33,0,0,0,2.652-.14Z" transform="translate(-147.575 -65.571)" fill="#717377"/>
      </g>
    </g>
  </g>
</svg>
