<svg xmlns="http://www.w3.org/2000/svg" width="100" height="100" viewBox="0 0 100 100">
  <g id="value" transform="translate(-25.108 -24.989)">
    <path id="Path_19" data-name="Path 19" d="M113.891,286.108l-.514.277a7.08,7.08,0,0,0-8.409-2.1l-.029.015-1.213.653A9.213,9.213,0,0,0,93.181,284l-6.53,3.55H77.962a12.559,12.559,0,0,1-5.433-1.244l-1.2-.578a20.514,20.514,0,0,0-21.341,2.083c-.028.022-.056.043-.083.068l-2.886,2.568a10.012,10.012,0,0,1-3.777,2.1l-1.639-5.378a1.3,1.3,0,0,0-1.243-.92H26.407a1.3,1.3,0,0,0-1.29,1.456l4.652,38.128a1.3,1.3,0,0,0,1.29,1.142H51.994a1.3,1.3,0,0,0,1.243-1.677l-2.75-9.02,8.565-5.411a5.156,5.156,0,0,1,3.76-.486c.027.007.054.013.081.018L80.317,313.6a22.557,22.557,0,0,0,13.932-1.966,1.28,1.28,0,0,0,.159-.093l30.136-20.681a1.3,1.3,0,0,0,.378-1.74A8.274,8.274,0,0,0,113.891,286.108Zm-7.734.482a4.439,4.439,0,0,1,4.852,1.072l-11.428,6.162-.671.353a9.9,9.9,0,0,0-1.565-2.842Zm-11.718-.321.031-.018a6.611,6.611,0,0,1,6.721.063l-5.81,3.127a9.876,9.876,0,0,0-3.711-1.669Zm-62.23,38.108-4.334-35.531H39.4L50.24,324.377Zm60.8-15.028a19.939,19.939,0,0,1-12.23,1.7l-17.38-3.2a7.751,7.751,0,0,0-5.649.765c-.02.011-.04.023-.06.036L49.7,313.7,44,295.032a12.619,12.619,0,0,0,4.746-2.653l2.845-2.532A17.924,17.924,0,0,1,70.2,288.058l1.2.578a15.171,15.171,0,0,0,6.565,1.5H89.551a7.329,7.329,0,0,1,7.189,5.95l-8.4-.38a50.334,50.334,0,0,0-9.143.422,1.3,1.3,0,1,0,.356,2.573,47.655,47.655,0,0,1,8.669-.4l9.887.447h.059a1.3,1.3,0,0,0,1.3-1.3c0-.21-.009-.418-.022-.626l1.356-.714,14.324-7.722a5.679,5.679,0,0,1,6.831,1.094Z" transform="translate(0 -201.985)" fill="#3a6ec9"/>
    <path id="Path_20" data-name="Path 20" d="M76.974,435.386a4.091,4.091,0,1,0,4.091-4.089,4.09,4.09,0,0,0-4.091,4.089Zm4.091-1.491a1.491,1.491,0,1,1-1.492,1.491,1.492,1.492,0,0,1,1.492-1.491Z" transform="translate(-40.635 -318.367)" fill="#3a6ec9"/>
    <path id="Path_21" data-name="Path 21" d="M230.259,39.126V34.847a9.862,9.862,0,0,0-19.725,0v4.279a9.862,9.862,0,0,0,19.725,0Zm-17.126,0V34.847a7.264,7.264,0,0,1,14.528,0v4.279a7.264,7.264,0,0,1-14.528,0Z" transform="translate(-145.273)" fill="#3a6ec9"/>
    <path id="Path_22" data-name="Path 22" d="M94.4,164.812h31.794a1.3,1.3,0,0,0,1.3-1.3v-2.981h21.765a1.3,1.3,0,0,0,1.3-1.3v-8.429a9.736,9.736,0,0,0-9.118-9.709,1.517,1.517,0,0,0-1.338.74,5.964,5.964,0,0,1-9.407-.23,1.3,1.3,0,0,0-1.077-.527,9.635,9.635,0,0,0-4.779,1.394,10.924,10.924,0,0,0-7.623-3.779,1.58,1.58,0,0,0-1.34.779,7,7,0,0,1-11.039-.269,1.3,1.3,0,0,0-1.077-.526,10.876,10.876,0,0,0-7.546,3.29c-.164.168-.32.342-.472.518a9.664,9.664,0,0,0-4.43-1.39,1.519,1.519,0,0,0-1.338.74,5.964,5.964,0,0,1-9.407-.23,1.3,1.3,0,0,0-1.077-.527A9.732,9.732,0,0,0,70,150.805v8.429a1.3,1.3,0,0,0,1.3,1.3H93.1v2.981A1.3,1.3,0,0,0,94.4,164.812Zm34.662-21.094a8.565,8.565,0,0,0,12.82.034,7.141,7.141,0,0,1,6.078,7.053v7.13H127.492V149.6a10.861,10.861,0,0,0-1.2-4.972A7.025,7.025,0,0,1,129.06,143.719Zm-25.863-2.4a9.6,9.6,0,0,0,14.494.034,8.343,8.343,0,0,1,7.2,8.255v12.61H95.7V149.6A8.391,8.391,0,0,1,103.2,141.315ZM72.6,157.936v-7.13a7.183,7.183,0,0,1,6.335-7.086,8.565,8.565,0,0,0,12.818.033,7.092,7.092,0,0,1,2.536.894A10.875,10.875,0,0,0,93.1,149.6v8.331Z" transform="translate(-35.171 -89.082)" fill="#3a6ec9"/>
    <path id="Path_23" data-name="Path 23" d="M348.719,62.8V59.05a8.794,8.794,0,0,0-17.589,0V62.8a8.794,8.794,0,0,0,17.589,0Zm-14.99,0V59.05a6.2,6.2,0,0,1,12.392,0V62.8a6.2,6.2,0,0,1-12.392,0Z" transform="translate(-239.753 -19.801)" fill="#3a6ec9"/>
    <path id="Path_24" data-name="Path 24" d="M117.235,62.8V59.05a8.794,8.794,0,0,0-17.589,0V62.8a8.794,8.794,0,0,0,17.589,0Zm-14.99,0V59.05a6.2,6.2,0,0,1,12.392,0V62.8a6.2,6.2,0,0,1-12.392,0Z" transform="translate(-58.397 -19.801)" fill="#3a6ec9"/>
  </g>
</svg>
