<svg id="enterprise" xmlns="http://www.w3.org/2000/svg" width="100" height="100" viewBox="0 0 100 100">
  <g id="Group_189" data-name="Group 189" transform="translate(35 33.333)">
    <g id="Group_188" data-name="Group 188">
      <rect id="Rectangle_72" data-name="Rectangle 72" width="3.333" height="3.333" fill="#3a6ec9"/>
    </g>
  </g>
  <g id="Group_191" data-name="Group 191" transform="translate(35 40)">
    <g id="Group_190" data-name="Group 190">
      <rect id="Rectangle_73" data-name="Rectangle 73" width="3.333" height="3.333" fill="#3a6ec9"/>
    </g>
  </g>
  <g id="Group_193" data-name="Group 193" transform="translate(35 46.667)">
    <g id="Group_192" data-name="Group 192">
      <rect id="Rectangle_74" data-name="Rectangle 74" width="3.333" height="3.333" fill="#3a6ec9"/>
    </g>
  </g>
  <g id="Group_195" data-name="Group 195" transform="translate(35 53.333)">
    <g id="Group_194" data-name="Group 194">
      <rect id="Rectangle_75" data-name="Rectangle 75" width="3.333" height="3.333" fill="#3a6ec9"/>
    </g>
  </g>
  <g id="Group_197" data-name="Group 197" transform="translate(41.667 33.333)">
    <g id="Group_196" data-name="Group 196">
      <rect id="Rectangle_76" data-name="Rectangle 76" width="3.333" height="3.333" fill="#3a6ec9"/>
    </g>
  </g>
  <g id="Group_199" data-name="Group 199" transform="translate(41.667 40)">
    <g id="Group_198" data-name="Group 198">
      <rect id="Rectangle_77" data-name="Rectangle 77" width="3.333" height="3.333" fill="#3a6ec9"/>
    </g>
  </g>
  <g id="Group_201" data-name="Group 201" transform="translate(41.667 46.667)">
    <g id="Group_200" data-name="Group 200">
      <rect id="Rectangle_78" data-name="Rectangle 78" width="3.333" height="3.333" fill="#3a6ec9"/>
    </g>
  </g>
  <g id="Group_203" data-name="Group 203" transform="translate(41.667 53.333)">
    <g id="Group_202" data-name="Group 202">
      <rect id="Rectangle_79" data-name="Rectangle 79" width="3.333" height="3.333" fill="#3a6ec9"/>
    </g>
  </g>
  <g id="Group_205" data-name="Group 205" transform="translate(48.333 33.333)">
    <g id="Group_204" data-name="Group 204">
      <rect id="Rectangle_80" data-name="Rectangle 80" width="3.333" height="3.333" fill="#3a6ec9"/>
    </g>
  </g>
  <g id="Group_207" data-name="Group 207" transform="translate(48.333 40)">
    <g id="Group_206" data-name="Group 206">
      <rect id="Rectangle_81" data-name="Rectangle 81" width="3.333" height="3.333" fill="#3a6ec9"/>
    </g>
  </g>
  <g id="Group_209" data-name="Group 209" transform="translate(48.333 46.667)">
    <g id="Group_208" data-name="Group 208">
      <rect id="Rectangle_82" data-name="Rectangle 82" width="3.333" height="3.333" fill="#3a6ec9"/>
    </g>
  </g>
  <g id="Group_211" data-name="Group 211" transform="translate(48.333 53.333)">
    <g id="Group_210" data-name="Group 210">
      <rect id="Rectangle_83" data-name="Rectangle 83" width="3.333" height="3.333" fill="#3a6ec9"/>
    </g>
  </g>
  <g id="Group_213" data-name="Group 213" transform="translate(55 33.333)">
    <g id="Group_212" data-name="Group 212">
      <rect id="Rectangle_84" data-name="Rectangle 84" width="3.333" height="3.333" fill="#3a6ec9"/>
    </g>
  </g>
  <g id="Group_215" data-name="Group 215" transform="translate(41.667 26.667)">
    <g id="Group_214" data-name="Group 214">
      <rect id="Rectangle_85" data-name="Rectangle 85" width="3.333" height="3.333" fill="#3a6ec9"/>
    </g>
  </g>
  <g id="Group_217" data-name="Group 217" transform="translate(48.333 26.667)">
    <g id="Group_216" data-name="Group 216">
      <rect id="Rectangle_86" data-name="Rectangle 86" width="3.333" height="3.333" fill="#3a6ec9"/>
    </g>
  </g>
  <g id="Group_219" data-name="Group 219" transform="translate(55 26.667)">
    <g id="Group_218" data-name="Group 218">
      <rect id="Rectangle_87" data-name="Rectangle 87" width="3.333" height="3.333" fill="#3a6ec9"/>
    </g>
  </g>
  <g id="Group_221" data-name="Group 221" transform="translate(55 40)">
    <g id="Group_220" data-name="Group 220">
      <rect id="Rectangle_88" data-name="Rectangle 88" width="3.333" height="3.333" fill="#3a6ec9"/>
    </g>
  </g>
  <g id="Group_223" data-name="Group 223" transform="translate(55 46.667)">
    <g id="Group_222" data-name="Group 222">
      <rect id="Rectangle_89" data-name="Rectangle 89" width="3.333" height="3.333" fill="#3a6ec9"/>
    </g>
  </g>
  <g id="Group_225" data-name="Group 225" transform="translate(55 53.333)">
    <g id="Group_224" data-name="Group 224">
      <rect id="Rectangle_90" data-name="Rectangle 90" width="3.333" height="3.333" fill="#3a6ec9"/>
    </g>
  </g>
  <g id="Group_227" data-name="Group 227" transform="translate(61.667 33.333)">
    <g id="Group_226" data-name="Group 226">
      <rect id="Rectangle_91" data-name="Rectangle 91" width="3.333" height="3.333" fill="#3a6ec9"/>
    </g>
  </g>
  <g id="Group_229" data-name="Group 229" transform="translate(61.667 40)">
    <g id="Group_228" data-name="Group 228">
      <rect id="Rectangle_92" data-name="Rectangle 92" width="3.333" height="3.333" fill="#3a6ec9"/>
    </g>
  </g>
  <g id="Group_231" data-name="Group 231" transform="translate(61.667 46.667)">
    <g id="Group_230" data-name="Group 230">
      <rect id="Rectangle_93" data-name="Rectangle 93" width="3.333" height="3.333" fill="#3a6ec9"/>
    </g>
  </g>
  <g id="Group_233" data-name="Group 233" transform="translate(61.667 53.333)">
    <g id="Group_232" data-name="Group 232">
      <rect id="Rectangle_94" data-name="Rectangle 94" width="3.333" height="3.333" fill="#3a6ec9"/>
    </g>
  </g>
  <g id="Group_235" data-name="Group 235" transform="translate(0 0)">
    <g id="Group_234" data-name="Group 234">
      <path id="Path_25" data-name="Path 25" d="M98.335,25h-25V1.667A1.666,1.666,0,0,0,71.669,0H28.333a1.666,1.666,0,0,0-1.667,1.665V25h-25A1.666,1.666,0,0,0,0,26.665v60a1.666,1.666,0,0,0,1.665,1.667H5.151A10,10,0,0,0,5,90v8.333A1.666,1.666,0,0,0,6.665,100H93.333A1.666,1.666,0,0,0,95,98.335V90a9.957,9.957,0,0,0-.151-1.667h3.484A1.666,1.666,0,0,0,100,86.669v-60A1.666,1.666,0,0,0,98.335,25ZM71.667,71.667a3.333,3.333,0,1,1-3.333-3.333A3.333,3.333,0,0,1,71.667,71.667Zm-40-3.333a3.333,3.333,0,1,1-3.333,3.333A3.333,3.333,0,0,1,31.667,68.333Zm-10,28.333H8.333V90a6.667,6.667,0,0,1,13.333,0Zm-10-20A3.333,3.333,0,1,1,15,80,3.333,3.333,0,0,1,11.667,76.667ZM21.919,82.8a10.047,10.047,0,0,0-2.1-1.552,6.667,6.667,0,1,0-9.645,0A10.065,10.065,0,0,0,6.353,85H3.333V28.333H26.667V67.3a6.576,6.576,0,0,0,.178,8.942A10.028,10.028,0,0,0,21.919,82.8Zm16.414,13.87H25V85a6.667,6.667,0,0,1,13.333,0Zm20,0H41.667V85a8.333,8.333,0,0,1,16.667,0ZM45,68.333a5,5,0,1,1,5,5A5,5,0,0,1,45,68.333ZM60.15,79.27a11.74,11.74,0,0,0-4.782-4.617,8.334,8.334,0,1,0-10.737,0A11.739,11.739,0,0,0,39.85,79.27a10.066,10.066,0,0,0-3.36-3.025A6.619,6.619,0,0,0,30,65.237V3.333H70v61.9a6.637,6.637,0,0,0-6.489,11.008A10.067,10.067,0,0,0,60.15,79.27ZM75,90v6.667H61.667V85A6.667,6.667,0,0,1,75,85Zm16.667,6.667H78.333V90a6.667,6.667,0,0,1,13.333,0Zm-10-20A3.333,3.333,0,1,1,85,80,3.333,3.333,0,0,1,81.667,76.667Zm15,8.333h-3.02a10.065,10.065,0,0,0-3.825-3.755,6.667,6.667,0,1,0-9.645,0,10.041,10.041,0,0,0-2.1,1.552,10.028,10.028,0,0,0-4.925-6.552,6.576,6.576,0,0,0,.178-8.942V28.333H96.667V85Z" transform="translate(0 0)" fill="#3a6ec9"/>
    </g>
  </g>
  <g id="Group_237" data-name="Group 237" transform="translate(78.333 38.333)">
    <g id="Group_236" data-name="Group 236">
      <rect id="Rectangle_95" data-name="Rectangle 95" width="3.333" height="26.667" fill="#3a6ec9"/>
    </g>
  </g>
  <g id="Group_239" data-name="Group 239" transform="translate(88.333 38.333)">
    <g id="Group_238" data-name="Group 238">
      <rect id="Rectangle_96" data-name="Rectangle 96" width="3.333" height="26.667" fill="#3a6ec9"/>
    </g>
  </g>
  <g id="Group_241" data-name="Group 241" transform="translate(8.333 38.333)">
    <g id="Group_240" data-name="Group 240">
      <rect id="Rectangle_97" data-name="Rectangle 97" width="3.333" height="26.667" fill="#3a6ec9"/>
    </g>
  </g>
  <g id="Group_243" data-name="Group 243" transform="translate(18.333 38.333)">
    <g id="Group_242" data-name="Group 242">
      <rect id="Rectangle_98" data-name="Rectangle 98" width="3.333" height="26.667" fill="#3a6ec9"/>
    </g>
  </g>
  <g id="Group_245" data-name="Group 245" transform="translate(38.333 6.667)">
    <g id="Group_244" data-name="Group 244">
      <path id="Path_26" data-name="Path 26" d="M205.669,32h-20A1.666,1.666,0,0,0,184,33.665V47a1.666,1.666,0,0,0,1.665,1.667h20A1.666,1.666,0,0,0,207.333,47V33.667A1.666,1.666,0,0,0,205.669,32ZM204,45.333H187.333v-10H204Z" transform="translate(-184 -32)" fill="#3a6ec9"/>
    </g>
  </g>
</svg>
