<svg id="hook" xmlns="http://www.w3.org/2000/svg" width="100" height="100" viewBox="0 0 100 100">
  <path id="Path_57" data-name="Path 57" d="M136,272h3.333v3.333H136Zm0,0" transform="translate(-107.667 -215.333)" fill="#3a6ec9"/>
  <path id="Path_58" data-name="Path 58" d="M168,272h3.333v3.333H168Zm0,0" transform="translate(-133 -215.333)" fill="#3a6ec9"/>
  <path id="Path_59" data-name="Path 59" d="M200,272h3.333v3.333H200Zm0,0" transform="translate(-158.334 -215.333)" fill="#3a6ec9"/>
  <path id="Path_60" data-name="Path 60" d="M136,304h3.333v3.333H136Zm0,0" transform="translate(-107.667 -240.667)" fill="#3a6ec9"/>
  <path id="Path_61" data-name="Path 61" d="M168,304h3.333v3.333H168Zm0,0" transform="translate(-133 -240.667)" fill="#3a6ec9"/>
  <path id="Path_62" data-name="Path 62" d="M200,304h3.333v3.333H200Zm0,0" transform="translate(-158.334 -240.667)" fill="#3a6ec9"/>
  <path id="Path_63" data-name="Path 63" d="M232,304h3.333v3.333H232Zm0,0" transform="translate(-183.667 -240.667)" fill="#3a6ec9"/>
  <path id="Path_64" data-name="Path 64" d="M264,304h3.333v3.333H264Zm0,0" transform="translate(-209.001 -240.667)" fill="#3a6ec9"/>
  <path id="Path_65" data-name="Path 65" d="M136,336h3.333v3.333H136Zm0,0" transform="translate(-107.667 -266)" fill="#3a6ec9"/>
  <path id="Path_66" data-name="Path 66" d="M168,336h3.333v3.333H168Zm0,0" transform="translate(-133 -266)" fill="#3a6ec9"/>
  <path id="Path_67" data-name="Path 67" d="M200,336h3.333v3.333H200Zm0,0" transform="translate(-158.334 -266)" fill="#3a6ec9"/>
  <path id="Path_68" data-name="Path 68" d="M232,336h3.333v3.333H232Zm0,0" transform="translate(-183.667 -266)" fill="#3a6ec9"/>
  <path id="Path_69" data-name="Path 69" d="M264,336h3.333v3.333H264Zm0,0" transform="translate(-209.001 -266)" fill="#3a6ec9"/>
  <path id="Path_70" data-name="Path 70" d="M136,368h3.333v3.333H136Zm0,0" transform="translate(-107.667 -291.333)" fill="#3a6ec9"/>
  <path id="Path_71" data-name="Path 71" d="M168,368h3.333v3.333H168Zm0,0" transform="translate(-133 -291.333)" fill="#3a6ec9"/>
  <path id="Path_72" data-name="Path 72" d="M200,368h3.333v3.333H200Zm0,0" transform="translate(-158.334 -291.333)" fill="#3a6ec9"/>
  <path id="Path_73" data-name="Path 73" d="M232,368h3.333v3.333H232Zm0,0" transform="translate(-183.667 -291.333)" fill="#3a6ec9"/>
  <path id="Path_74" data-name="Path 74" d="M264,368h3.333v3.333H264Zm0,0" transform="translate(-209.001 -291.333)" fill="#3a6ec9"/>
  <path id="Path_75" data-name="Path 75" d="M136,400h3.333v3.333H136Zm0,0" transform="translate(-107.667 -316.667)" fill="#3a6ec9"/>
  <path id="Path_76" data-name="Path 76" d="M168,400h3.333v3.333H168Zm0,0" transform="translate(-133 -316.667)" fill="#3a6ec9"/>
  <path id="Path_77" data-name="Path 77" d="M200,400h3.333v3.333H200Zm0,0" transform="translate(-158.334 -316.667)" fill="#3a6ec9"/>
  <path id="Path_78" data-name="Path 78" d="M232,400h3.333v3.333H232Zm0,0" transform="translate(-183.667 -316.667)" fill="#3a6ec9"/>
  <path id="Path_79" data-name="Path 79" d="M264,400h3.333v3.333H264Zm0,0" transform="translate(-209.001 -316.667)" fill="#3a6ec9"/>
  <path id="Path_80" data-name="Path 80" d="M136,432h3.333v3.333H136Zm0,0" transform="translate(-107.667 -342)" fill="#3a6ec9"/>
  <path id="Path_81" data-name="Path 81" d="M168,432h3.333v3.333H168Zm0,0" transform="translate(-133 -342)" fill="#3a6ec9"/>
  <path id="Path_82" data-name="Path 82" d="M200,432h3.333v3.333H200Zm0,0" transform="translate(-158.334 -342)" fill="#3a6ec9"/>
  <path id="Path_83" data-name="Path 83" d="M232,432h3.333v3.333H232Zm0,0" transform="translate(-183.667 -342)" fill="#3a6ec9"/>
  <path id="Path_84" data-name="Path 84" d="M264,432h3.333v3.333H264Zm0,0" transform="translate(-209.001 -342)" fill="#3a6ec9"/>
  <path id="Path_85" data-name="Path 85" d="M98.332,5H86.666V1.667A1.667,1.667,0,0,0,85,0H68.333a1.667,1.667,0,0,0-1.667,1.667V5h-65A1.667,1.667,0,0,0,0,6.667v6.667A1.666,1.666,0,0,0,1.667,15h5V46.667a1.666,1.666,0,0,0,1.667,1.667A1.667,1.667,0,1,1,6.667,50H3.333a4.962,4.962,0,0,0,1.275,3.3L.334,59l.021.016A1.632,1.632,0,0,0,0,60v6.667a1.665,1.665,0,0,0,.488,1.178l3.333,3.333A1.667,1.667,0,0,0,5,71.667h6.667a1.667,1.667,0,0,0,1.178-.488l3.333-3.333a1.665,1.665,0,0,0,.488-1.178V60a1.632,1.632,0,0,0-.355-.983L16.333,59l-4.275-5.7A4.97,4.97,0,0,0,10,45.286V15H66.666v1.667a1.666,1.666,0,0,0,1.667,1.667h3.333V96.667H65V30H61.666v6.667h-10V33.333H48.333v3.333h-10V35H35v1.667H25v-5H46.666V28.333H25V21.667H21.666v75H19.023l-7.845-7.844a1.666,1.666,0,0,0-2.357,0L.976,96.667H0V100H100V96.667H98.7a4.955,4.955,0,0,0-2.4-8.14,5,5,0,1,0-9.266,0,4.955,4.955,0,0,0-2.4,8.14H81.666V18.333H85a1.666,1.666,0,0,0,1.667-1.667V15H98.332A1.666,1.666,0,0,0,100,13.333V6.667A1.667,1.667,0,0,0,98.332,5ZM9.167,55l2.5,3.333H5L7.5,55Zm4.167,10.977-2.357,2.356H5.69L3.333,65.977V61.667h10ZM91.166,8.333l-4.5,3v-3ZM70,3.333h6.667V10H70ZM25,8.667l4.5,3h-9ZM15,11.334l-4.5-3h9Zm15.5-3h9l-4.5,3ZM45,8.667l4.5,3h-9Zm5.5-.334h9l-4.5,3Zm-47.166,0H4.5l5,3.333H3.333ZM60.5,11.667l5-3.333h1.167v3.333Zm17.834,79.5-3-4.5,3-4.5Zm0-40-3-4.5,3-4.5Zm-3.333,1,3,4.5-3,4.5Zm0-11v-9l3,4.5Zm0,31,3,4.5-3,4.5Zm3.333-1.01-3-4.491,3-4.5Zm-3-44.491,3-4.5v9ZM75,21.167V18.333h1.886ZM61.666,40V56.667h-10V40ZM48.333,40V54.334L44.5,50.545a1.671,1.671,0,0,0-1.167-.482h-5V40ZM35,40v2.778H25V40ZM10,92.357l4.31,4.31H5.69Zm15,4.31V46.112H35v5.625A1.666,1.666,0,0,0,36.666,53.4h5.981l6.185,6.116A1.667,1.667,0,0,0,50,60H61.666V96.667Zm50-4.5,3,4.5H75ZM95,95a1.667,1.667,0,1,1,1.667-1.667A1.666,1.666,0,0,1,95,95ZM91.666,85A1.667,1.667,0,1,1,90,86.667,1.667,1.667,0,0,1,91.666,85Zm-3.333,6.667a1.667,1.667,0,1,1-1.667,1.667A1.667,1.667,0,0,1,88.333,91.667ZM83.333,15H70V13.334h8.333A1.666,1.666,0,0,0,80,11.667V3.334h3.333Zm8.833-3.333,4.5-3v3Zm0,0" fill="#3a6ec9"/>
</svg>
