<svg xmlns="http://www.w3.org/2000/svg" width="100" height="100" viewBox="0 0 100 100">
  <g id="skyline_1_" data-name="skyline (1)" transform="translate(-23.011)">
    <g id="Group_247" data-name="Group 247" transform="translate(23.011)">
      <g id="Group_246" data-name="Group 246" transform="translate(0)">
        <path id="Path_27" data-name="Path 27" d="M121.159,96.629h-3.086V8.427a1.774,1.774,0,0,0-1.852-1.685H81.653A1.774,1.774,0,0,0,79.8,8.427v7.3H76.1v-7.3a1.774,1.774,0,0,0-1.852-1.685H66.221V1.685a1.86,1.86,0,0,0-3.7,0V6.742H54.493a1.774,1.774,0,0,0-1.852,1.685v7.3H47.085a1.774,1.774,0,0,0-1.852,1.685V31.461H29.8a1.774,1.774,0,0,0-1.852,1.685V96.629H24.863a1.693,1.693,0,1,0,0,3.371h96.3a1.693,1.693,0,1,0,0-3.371ZM56.344,10.112H72.394V15.73H56.344ZM50.172,96.629H48.937V93.82a1.86,1.86,0,0,0-3.7,0v2.809H44V91.011h6.173ZM62.517,53.371V96.629H53.875v-7.3a1.774,1.774,0,0,0-1.852-1.685H42.147A1.774,1.774,0,0,0,40.3,89.326v7.3H31.653v-61.8H62.517Zm1.852-21.91H48.937V19.1H79.8V51.685H66.221V46.067h5.556a1.693,1.693,0,1,0,0-3.371H66.221V37.079h5.556a1.693,1.693,0,1,0,0-3.371H66.221v-.562A1.774,1.774,0,0,0,64.369,31.461ZM97.085,96.629H66.221V55.056H97.085Zm17.284,0h-13.58V51.123a1.86,1.86,0,0,0-3.7,0v.562h-3.7v-.562a1.86,1.86,0,0,0-3.7,0v.562H83.505V10.112h30.864V96.629Z" transform="translate(-23.011)" fill="#3a6ec9"/>
        <path id="Path_28" data-name="Path 28" d="M254.976,333.98a1.775,1.775,0,0,0,1.852-1.685v-31.46a1.86,1.86,0,0,0-3.7,0V332.3A1.774,1.774,0,0,0,254.976,333.98Z" transform="translate(-203.741 -240.721)" fill="#3a6ec9"/>
        <path id="Path_29" data-name="Path 29" d="M289.493,333.98a1.775,1.775,0,0,0,1.852-1.685v-31.46a1.86,1.86,0,0,0-3.7,0V332.3A1.774,1.774,0,0,0,289.493,333.98Z" transform="translate(-230.851 -240.721)" fill="#3a6ec9"/>
        <path id="Path_30" data-name="Path 30" d="M324.009,333.98a1.775,1.775,0,0,0,1.852-1.685v-31.46a1.86,1.86,0,0,0-3.7,0V332.3A1.775,1.775,0,0,0,324.009,333.98Z" transform="translate(-257.96 -240.721)" fill="#3a6ec9"/>
        <path id="Path_31" data-name="Path 31" d="M335.515,86.158a1.774,1.774,0,0,0,1.852-1.685V82.225a1.86,1.86,0,0,0-3.7,0v2.247A1.774,1.774,0,0,0,335.515,86.158Z" transform="translate(-266.996 -64.81)" fill="#3a6ec9"/>
        <path id="Path_32" data-name="Path 32" d="M370.032,86.158a1.774,1.774,0,0,0,1.852-1.685V82.225a1.86,1.86,0,0,0-3.7,0v2.247A1.774,1.774,0,0,0,370.032,86.158Z" transform="translate(-294.106 -64.81)" fill="#3a6ec9"/>
        <path id="Path_33" data-name="Path 33" d="M404.549,86.158a1.774,1.774,0,0,0,1.852-1.685V82.225a1.86,1.86,0,0,0-3.7,0v2.247A1.774,1.774,0,0,0,404.549,86.158Z" transform="translate(-321.215 -64.81)" fill="#3a6ec9"/>
        <path id="Path_34" data-name="Path 34" d="M335.515,143.685A1.774,1.774,0,0,0,337.367,142v-2.247a1.86,1.86,0,0,0-3.7,0V142A1.774,1.774,0,0,0,335.515,143.685Z" transform="translate(-266.996 -111.101)" fill="#3a6ec9"/>
        <path id="Path_35" data-name="Path 35" d="M370.032,143.685A1.774,1.774,0,0,0,371.884,142v-2.247a1.86,1.86,0,0,0-3.7,0V142A1.774,1.774,0,0,0,370.032,143.685Z" transform="translate(-294.106 -111.101)" fill="#3a6ec9"/>
        <path id="Path_36" data-name="Path 36" d="M404.549,143.685A1.774,1.774,0,0,0,406.4,142v-2.247a1.86,1.86,0,0,0-3.7,0V142A1.774,1.774,0,0,0,404.549,143.685Z" transform="translate(-321.215 -111.101)" fill="#3a6ec9"/>
        <path id="Path_37" data-name="Path 37" d="M335.515,201.214a1.774,1.774,0,0,0,1.852-1.685v-2.247a1.86,1.86,0,0,0-3.7,0v2.247A1.774,1.774,0,0,0,335.515,201.214Z" transform="translate(-266.996 -157.394)" fill="#3a6ec9"/>
        <path id="Path_38" data-name="Path 38" d="M370.032,201.214a1.774,1.774,0,0,0,1.852-1.685v-2.247a1.86,1.86,0,0,0-3.7,0v2.247A1.774,1.774,0,0,0,370.032,201.214Z" transform="translate(-294.106 -157.394)" fill="#3a6ec9"/>
        <path id="Path_39" data-name="Path 39" d="M404.549,201.214a1.774,1.774,0,0,0,1.852-1.685v-2.247a1.86,1.86,0,0,0-3.7,0v2.247A1.774,1.774,0,0,0,404.549,201.214Z" transform="translate(-321.215 -157.394)" fill="#3a6ec9"/>
        <path id="Path_40" data-name="Path 40" d="M93.9,224.225a1.774,1.774,0,0,0,1.852-1.685v-2.247a1.86,1.86,0,0,0-3.7,0v2.247A1.774,1.774,0,0,0,93.9,224.225Z" transform="translate(-77.23 -175.91)" fill="#3a6ec9"/>
        <path id="Path_41" data-name="Path 41" d="M128.414,224.225a1.774,1.774,0,0,0,1.852-1.685v-2.247a1.86,1.86,0,0,0-3.7,0v2.247A1.774,1.774,0,0,0,128.414,224.225Z" transform="translate(-104.34 -175.91)" fill="#3a6ec9"/>
        <path id="Path_42" data-name="Path 42" d="M162.931,224.225a1.774,1.774,0,0,0,1.852-1.685v-2.247a1.86,1.86,0,0,0-3.7,0v2.247A1.774,1.774,0,0,0,162.931,224.225Z" transform="translate(-131.449 -175.91)" fill="#3a6ec9"/>
        <path id="Path_43" data-name="Path 43" d="M93.9,281.753a1.774,1.774,0,0,0,1.852-1.685V277.82a1.86,1.86,0,0,0-3.7,0v2.247A1.774,1.774,0,0,0,93.9,281.753Z" transform="translate(-77.23 -222.202)" fill="#3a6ec9"/>
        <path id="Path_44" data-name="Path 44" d="M128.414,281.753a1.774,1.774,0,0,0,1.852-1.685V277.82a1.86,1.86,0,0,0-3.7,0v2.247A1.774,1.774,0,0,0,128.414,281.753Z" transform="translate(-104.34 -222.202)" fill="#3a6ec9"/>
        <path id="Path_45" data-name="Path 45" d="M162.931,281.753a1.774,1.774,0,0,0,1.852-1.685V277.82a1.86,1.86,0,0,0-3.7,0v2.247A1.774,1.774,0,0,0,162.931,281.753Z" transform="translate(-131.449 -222.202)" fill="#3a6ec9"/>
        <path id="Path_46" data-name="Path 46" d="M93.9,339.281a1.774,1.774,0,0,0,1.852-1.685v-2.247a1.86,1.86,0,0,0-3.7,0V337.6A1.774,1.774,0,0,0,93.9,339.281Z" transform="translate(-77.23 -268.494)" fill="#3a6ec9"/>
        <path id="Path_47" data-name="Path 47" d="M128.414,339.281a1.774,1.774,0,0,0,1.852-1.685v-2.247a1.86,1.86,0,0,0-3.7,0V337.6A1.774,1.774,0,0,0,128.414,339.281Z" transform="translate(-104.34 -268.494)" fill="#3a6ec9"/>
        <path id="Path_48" data-name="Path 48" d="M162.931,339.281a1.774,1.774,0,0,0,1.852-1.685v-2.247a1.86,1.86,0,0,0-3.7,0V337.6A1.774,1.774,0,0,0,162.931,339.281Z" transform="translate(-131.449 -268.494)" fill="#3a6ec9"/>
        <path id="Path_49" data-name="Path 49" d="M93.9,396.809a1.774,1.774,0,0,0,1.852-1.685v-2.247a1.86,1.86,0,0,0-3.7,0v2.247A1.774,1.774,0,0,0,93.9,396.809Z" transform="translate(-77.23 -314.786)" fill="#3a6ec9"/>
        <path id="Path_50" data-name="Path 50" d="M128.414,396.809a1.774,1.774,0,0,0,1.852-1.685v-2.247a1.86,1.86,0,0,0-3.7,0v2.247A1.774,1.774,0,0,0,128.414,396.809Z" transform="translate(-104.34 -314.786)" fill="#3a6ec9"/>
        <path id="Path_51" data-name="Path 51" d="M162.931,396.809a1.774,1.774,0,0,0,1.852-1.685v-2.247a1.86,1.86,0,0,0-3.7,0v2.247A1.774,1.774,0,0,0,162.931,396.809Z" transform="translate(-131.449 -314.786)" fill="#3a6ec9"/>
        <path id="Path_52" data-name="Path 52" d="M404.549,258.742a1.774,1.774,0,0,0,1.852-1.685v-2.247a1.86,1.86,0,0,0-3.7,0v2.247A1.774,1.774,0,0,0,404.549,258.742Z" transform="translate(-321.215 -203.686)" fill="#3a6ec9"/>
        <path id="Path_53" data-name="Path 53" d="M404.549,316.27a1.774,1.774,0,0,0,1.852-1.685v-2.247a1.86,1.86,0,0,0-3.7,0v2.247A1.774,1.774,0,0,0,404.549,316.27Z" transform="translate(-321.215 -249.978)" fill="#3a6ec9"/>
        <path id="Path_54" data-name="Path 54" d="M404.549,373.8a1.774,1.774,0,0,0,1.852-1.685v-2.247a1.86,1.86,0,0,0-3.7,0v2.247A1.774,1.774,0,0,0,404.549,373.8Z" transform="translate(-321.215 -296.27)" fill="#3a6ec9"/>
        <path id="Path_55" data-name="Path 55" d="M404.549,431.326a1.774,1.774,0,0,0,1.852-1.685v-2.247a1.86,1.86,0,0,0-3.7,0v2.247A1.774,1.774,0,0,0,404.549,431.326Z" transform="translate(-321.215 -342.562)" fill="#3a6ec9"/>
        <path id="Path_56" data-name="Path 56" d="M191.1,128.247a1.774,1.774,0,0,0-1.852-1.685H174.436a1.693,1.693,0,1,0,0,3.371h14.815A1.774,1.774,0,0,0,191.1,128.247Z" transform="translate(-140.485 -101.843)" fill="#3a6ec9"/>
      </g>
    </g>
  </g>
</svg>
