<svg xmlns="http://www.w3.org/2000/svg" width="40" height="25" viewBox="0 0 40 25">
  <g id="menu_1_" data-name="menu (1)" transform="translate(0 -96.243)">
    <g id="Menu_1_2" data-name="Menu_1_" transform="translate(0 96.243)">
      <path id="Path_92" data-name="Path 92" d="M1.25,99.368h37.5a1.6,1.6,0,0,0,0-3.125H1.25a1.6,1.6,0,0,0,0,3.125Z" transform="translate(0 -96.243)"/>
      <path id="Path_93" data-name="Path 93" d="M38.75,180.455H1.25a1.6,1.6,0,0,0,0,3.125h37.5a1.6,1.6,0,0,0,0-3.125Z" transform="translate(0 -169.517)"/>
      <path id="Path_94" data-name="Path 94" d="M146.553,264.667h-25a1.6,1.6,0,0,0,0,3.125h25a1.6,1.6,0,0,0,0-3.125Z" transform="translate(-107.803 -242.792)"/>
    </g>
  </g>
</svg>
