<?xml version="1.0" encoding="iso-8859-1"?>
<!-- Generator: Adobe Illustrator 19.0.0, SVG Export Plug-In . SVG Version: 6.00 Build 0)  -->
<svg version="1.1" id="Layer_1" xmlns="http://www.w3.org/2000/svg" xmlns:xlink="http://www.w3.org/1999/xlink" x="0px" y="0px"
	 viewBox="0 0 512 512" style="enable-background:new 0 0 512 512;" xml:space="preserve">
<polygon style="fill:#FFC552;" points="324.409,102.079 170.489,256 238.898,256 187.591,409.921 341.511,256 273.102,256 "/>
<path style="fill:#FC9C47;" d="M251.224,273.102h48.998L226.724,346.6L251.224,273.102z M211.777,238.898l73.498-73.498
	l-24.499,73.498H211.777z"/>
<path style="fill:#58AB23;" d="M435.574,84.977l25.653-25.653h-85.511v85.511l29.607-29.607
	c34.656,36.746,55.904,86.276,55.904,140.772c0,113.344-91.883,205.228-205.228,205.228S50.772,369.344,50.772,256
	S142.656,50.772,256,50.772V8.017C119.043,8.017,8.017,119.043,8.017,256S119.043,503.983,256,503.983S503.983,392.957,503.983,256
	C503.983,189.697,477.961,129.471,435.574,84.977z"/>
<path style="fill:#66BF00;" d="M198.025,59.091l-11.475-41.203c-23.779,6.924-46.076,17.319-66.321,30.589l25.026,34.73
	C161.436,72.818,179.165,64.635,198.025,59.091z"/>
<path style="fill:#B6E462;" d="M256,50.772V8.017c-24.11,0-47.41,3.455-69.448,9.871l11.475,41.203
	C216.411,53.686,235.864,50.772,256,50.772z"/>
<path d="M163.082,259.068c1.241,2.996,4.164,4.949,7.406,4.949h57.286l-47.789,143.369c-1.073,3.221,0.055,6.869,2.759,8.92
	c3.153,2.392,7.716,2.082,10.515-0.715L347.18,261.669c4.946-4.947,1.32-13.686-5.668-13.686h-57.286l47.789-143.369
	c1.144-3.433-0.221-7.31-3.261-9.272c-3.135-2.021-7.374-1.573-10.012,1.067L164.82,250.331
	C162.527,252.624,161.841,256.072,163.082,259.068z M306.065,131.761l-40.569,121.703c-1.703,5.11,2.228,10.552,7.605,10.552h49.056
	L205.935,380.239l40.569-121.703c1.703-5.11-2.228-10.552-7.605-10.552h-49.056L306.065,131.761z"/>
<path d="M446.692,85.196l20.204-20.203c4.946-4.948,1.32-13.686-5.668-13.686h-85.511c-4.427,0-8.017,3.588-8.017,8.017v85.511
	c0,6.986,8.738,10.617,13.685,5.669l23.649-23.65c31.128,35.868,48.177,81.409,48.177,129.146
	c0,108.742-88.469,197.211-197.211,197.211S58.789,364.742,58.789,256S147.258,58.789,256,58.789c4.427,0,8.017-3.588,8.017-8.017
	s-3.589-8.017-8.017-8.017C138.416,42.756,42.756,138.416,42.756,256S138.416,469.244,256,469.244S469.244,373.584,469.244,256
	c0-54.604-20.63-106.553-58.088-146.273c-3.062-3.246-8.347-3.322-11.501-0.169l-15.922,15.923V67.34h58.14l-11.968,11.967
	c-3.077,3.077-3.137,8.048-0.136,11.199c42.688,44.809,66.198,103.582,66.198,165.494c0,132.318-107.648,239.967-239.967,239.967
	S16.033,388.318,16.033,256S123.682,16.033,256,16.033c4.427,0,8.017-3.588,8.017-8.017S260.427,0,256,0
	C187.62,0,123.333,26.628,74.981,74.981C26.629,123.333,0,187.62,0,256s26.629,132.667,74.981,181.019
	C123.333,485.372,187.62,512,256,512s132.667-26.628,181.019-74.981C485.371,388.667,512,324.38,512,256
	C512,192.569,488.865,132.222,446.692,85.196z"/>
<path d="M179.034,355.72c7.342,0,10.757-9.453,5.161-14.154c-25.353-21.301-39.894-52.488-39.894-85.566
	c0-58.372,45.556-107.314,103.713-111.418c4.417-0.312,7.744-4.145,7.432-8.562c-0.311-4.417-4.145-7.736-8.561-7.432
	c-32.172,2.27-62.063,16.532-84.169,40.155c-22.215,23.74-34.448,54.727-34.448,87.257c0,37.826,16.626,73.488,45.614,97.841
	C175.384,355.105,177.214,355.72,179.034,355.72z"/>
<path d="M179.775,103.461c-3.656,1.829-5.363,6.266-3.882,10.074c1.687,4.338,6.891,6.35,11.059,4.262
	c21.544-10.784,44.775-16.253,69.048-16.253c8.181,0,16.389,0.645,24.398,1.914c4.373,0.697,8.481-2.288,9.174-6.661
	c0.694-4.373-2.288-8.481-6.661-9.173c-8.837-1.402-17.891-2.113-26.91-2.113C229.211,85.511,203.565,91.55,179.775,103.461z"/>
<path d="M101.545,256c0-46.613,20.742-90.265,56.908-119.76c3.431-2.798,3.944-7.849,1.146-11.28
	c-2.797-3.43-7.848-3.942-11.279-1.146C108.404,156.367,85.511,204.547,85.511,256c0,55.084,26.834,107.055,71.779,139.023
	c3.847,2.734,9.366,1.474,11.657-2.643c1.959-3.522,0.917-8.089-2.364-10.424C125.859,352.991,101.545,305.905,101.545,256z"/>
<path d="M328.996,360.833c3.631-2.533,4.521-7.53,1.989-11.161c-2.533-3.63-7.529-4.52-11.161-1.988
	C301.05,360.777,278.98,367.699,256,367.699c-4.427,0-8.017,3.588-8.017,8.017c0,4.428,3.589,8.017,8.017,8.017
	C282.277,383.733,307.519,375.814,328.996,360.833z"/>
<path d="M326.824,159.14c-2.848,3.389-2.408,8.446,0.981,11.294c25.353,21.301,39.894,52.488,39.894,85.566
	c0,26.245-9.281,51.744-26.133,71.804c-2.586,3.076-2.453,7.749,0.315,10.668c3.249,3.426,8.924,3.261,11.961-0.354
	c19.275-22.944,29.891-52.108,29.891-82.118c0-37.826-16.626-73.488-45.614-97.841C334.728,155.31,329.672,155.751,326.824,159.14z"
	/>
<path d="M256,410.455c-8.181,0-16.389-0.645-24.397-1.914c-4.372-0.693-8.481,2.289-9.174,6.661
	c-0.694,4.373,2.289,8.481,6.661,9.173c8.837,1.402,17.89,2.113,26.91,2.113c94.008,0,170.489-76.481,170.489-170.489
	c0-31.807-8.818-62.837-25.502-89.737c-2.333-3.764-7.276-4.919-11.038-2.588c-3.762,2.334-4.921,7.276-2.587,11.038
	c15.108,24.36,23.093,52.468,23.093,81.286C410.455,341.167,341.167,410.455,256,410.455z"/>
<g>
</g>
<g>
</g>
<g>
</g>
<g>
</g>
<g>
</g>
<g>
</g>
<g>
</g>
<g>
</g>
<g>
</g>
<g>
</g>
<g>
</g>
<g>
</g>
<g>
</g>
<g>
</g>
<g>
</g>
</svg>
