<svg id="Capa_1" enable-background="new 0 0 512 512" height="512" viewBox="0 0 512 512" width="512" xmlns="http://www.w3.org/2000/svg"><path d="m277.5 114.5h-30l30 30h30c0-16.569-13.431-30-30-30z" fill="#474867"/><path d="m247.5 114.5h-105v30h135c0-16.569-13.431-30-30-30z" fill="#616281"/><path d="m367.5 189.5v105h-30l-45-52.5 45-52.5z" fill="#474867"/><path d="m142.5 189.5h195v105h-195z" fill="#616281"/><path d="m22.5 22.5c-8.853 0-15.978 7.772-14.89 16.829.913 7.599 7.633 13.171 15.286 13.171h119.604l-15-30z" fill="#616281"/><path d="m127.5 22.5v212.834h30v-182.834c0-16.569-13.432-30-30-30z" fill="#dddde2"/><circle cx="142.5" cy="354.5" fill="#35b9ff" r="135"/><path d="m142.5 249.5v210c57.99 0 105-47.01 105-105s-47.01-105-105-105z" fill="#bce8ff"/><path d="m217.5 354.5c0-57.99-33.579-105-75-105-57.99 0-105 47.01-105 105s47.01 105 105 105c41.421 0 75-47.01 75-105z" fill="#fff"/><circle cx="367.5" cy="444.5" fill="#616281" r="45"/><circle cx="367.5" cy="444.5" fill="#dddde2" r="15"/><circle cx="142.5" cy="354.5" fill="#616281" r="22.5"/><path d="m504.5 414.5h-30l-15 15 15 15h30z" fill="#3a9dd9"/><path d="m438.5 414.5 6 30h30v-30z" fill="#35b9ff"/><path d="m345 444.5c0 12.407 10.093 22.5 22.5 22.5s22.5-10.093 22.5-22.5-10.093-22.5-22.5-22.5-22.5 10.093-22.5 22.5zm30 0c0 4.136-3.364 7.5-7.5 7.5s-7.5-3.364-7.5-7.5 3.364-7.5 7.5-7.5 7.5 3.364 7.5 7.5z"/><path d="m142.5 242c-62.033 0-112.5 50.467-112.5 112.5s50.467 112.5 112.5 112.5 112.5-50.467 112.5-112.5-50.467-112.5-112.5-112.5zm0 210c-53.762 0-97.5-43.738-97.5-97.5s43.738-97.5 97.5-97.5 97.5 43.738 97.5 97.5-43.738 97.5-97.5 97.5z"/><path d="m142.5 324.5c-16.542 0-30 13.458-30 30s13.458 30 30 30 30-13.458 30-30-13.458-30-30-30zm0 45c-8.271 0-15-6.729-15-15s6.729-15 15-15 15 6.729 15 15-6.729 15-15 15z"/><path d="m504.5 407h-59.852l-17.971-89.854c-3.493-17.468-18.958-30.146-36.771-30.146h-14.906v-112.5c0-20.678-16.822-37.5-37.5-37.5h-23.255c-3.484-17.096-18.635-30-36.745-30h-112.5v-54.5c0-20.678-16.822-37.5-37.5-37.5h-105c-6.415 0-12.548 2.767-16.827 7.59-4.27 4.813-6.278 11.24-5.51 17.634 1.355 11.274 11.129 19.776 22.733 19.776h97.104v153.782c-67.921 10.821-120 69.798-120 140.718 0 78.575 63.925 142.5 142.5 142.5s142.5-63.925 142.5-142.5c0-18.531-3.559-36.245-10.023-52.5h85.023v45h-52.5c-4.142 0-7.5 3.358-7.5 7.5s3.358 7.5 7.5 7.5h52.5v30.544c-25.407 3.651-45 25.554-45 51.956 0 28.949 23.551 52.5 52.5 52.5s52.5-23.551 52.5-52.5c0-26.402-19.593-48.304-45-51.956v-90.544h14.906c10.688 0 19.967 7.607 22.063 18.087l19.15 95.749c.017.096.036.191.057.286l5.97 29.849c.701 3.506 3.779 6.029 7.354 6.029h60c4.142 0 7.5-3.358 7.5-7.5v-30c0-4.142-3.358-7.5-7.5-7.5zm-99.5 37.5c0 20.678-16.822 37.5-37.5 37.5s-37.5-16.822-37.5-37.5 16.822-37.5 37.5-37.5 37.5 16.822 37.5 37.5zm-127.5-322.5c9.778 0 18.114 6.271 21.21 15h-133.71v-15zm-254.604-77c-3.954 0-7.398-2.884-7.84-6.565-.26-2.169.393-4.261 1.838-5.891 1.435-1.617 3.478-2.544 5.606-2.544h97.5v15zm112.104-13.71c8.729 3.096 15 11.432 15 21.21v159.697c-2.484-.129-4.984-.197-7.5-.197s-5.016.068-7.5.197zm7.5 450.71c-70.304 0-127.5-57.196-127.5-127.5s57.196-127.5 127.5-127.5 127.5 57.196 127.5 127.5-57.196 127.5-127.5 127.5zm125.47-195c-20.694-38.312-58.424-66.121-102.97-73.218v-16.782h142.5c4.142 0 7.5-3.358 7.5-7.5s-3.358-7.5-7.5-7.5h-142.5v-30h172.5c12.407 0 22.5 10.093 22.5 22.5v7.5h-22.5c-4.142 0-7.5 3.358-7.5 7.5s3.358 7.5 7.5 7.5h22.5v90zm229.03 150h-46.352l-3-15h49.352z"/></svg>