<svg id="Capa_1" enable-background="new 0 0 512 512" height="512" viewBox="0 0 512 512" width="512" xmlns="http://www.w3.org/2000/svg"><path d="m31.764 227.046h38.702v249.406h-38.702z" fill="#ffc265"/><path d="m31.764 227.046h19.351v249.406h-19.351z" fill="#ffb541"/><path d="m71.601 474.144h-40.973c-2.838 0-5.139 2.301-5.139 5.139v25.368h51.252v-25.368c0-2.838-2.301-5.139-5.14-5.139z" fill="#ffb541"/><path d="m52.795 474.144h-22.167c-2.838 0-5.139 2.301-5.139 5.139v25.368h22.167v-25.368c0-2.838 2.301-5.139 5.139-5.139z" fill="#ffa812"/><path d="m113.735 227.046h38.702v249.406h-38.702z" fill="#ffc265"/><path d="m113.735 227.046h19.351v249.406h-19.351z" fill="#ffb541"/><path d="m153.573 474.144h-40.973c-2.838 0-5.139 2.301-5.139 5.139v25.368h51.252v-25.368c-.001-2.838-2.302-5.139-5.14-5.139z" fill="#ffb541"/><path d="m134.767 474.144h-22.167c-2.838 0-5.139 2.301-5.139 5.139v25.368h22.167v-25.368c-.001-2.838 2.3-5.139 5.139-5.139z" fill="#ffa812"/><path d="m195.707 227.046h38.702v249.406h-38.702z" fill="#ffc265"/><path d="m195.707 227.046h19.351v249.406h-19.351z" fill="#ffb541"/><path d="m235.544 474.144h-40.973c-2.838 0-5.139 2.301-5.139 5.139v25.368h51.252v-25.368c0-2.838-2.301-5.139-5.14-5.139z" fill="#ffb541"/><path d="m216.739 474.144h-22.167c-2.838 0-5.139 2.301-5.139 5.139v25.368h22.167v-25.368c-.001-2.838 2.3-5.139 5.139-5.139z" fill="#ffa812"/><path d="m277.679 227.046h38.702v249.406h-38.702z" fill="#ffc265"/><path d="m277.679 227.046h19.351v249.406h-19.351z" fill="#ffb541"/><path d="m317.516 474.144h-40.973c-2.838 0-5.139 2.301-5.139 5.139v25.368h51.252v-25.368c0-2.838-2.301-5.139-5.14-5.139z" fill="#ffb541"/><path d="m298.71 474.144h-22.167c-2.838 0-5.139 2.301-5.139 5.139v25.368h22.167v-25.368c0-2.838 2.301-5.139 5.139-5.139z" fill="#ffa812"/><path d="m359.651 227.046h38.702v249.406h-38.702z" fill="#ffc265"/><path d="m359.651 227.046h19.351v249.406h-19.351z" fill="#ffb541"/><path d="m399.488 474.144h-40.973c-2.838 0-5.139 2.301-5.139 5.139v25.368h51.252v-25.368c0-2.838-2.301-5.139-5.14-5.139z" fill="#ffb541"/><path d="m380.682 474.144h-22.167c-2.838 0-5.139 2.301-5.139 5.139v25.368h22.167v-25.368c0-2.838 2.3-5.139 5.139-5.139z" fill="#ffa812"/><path d="m441.622 227.046h38.702v249.406h-38.702z" fill="#ffc265"/><path d="m441.622 227.046h19.351v249.406h-19.351z" fill="#ffb541"/><path d="m481.46 474.144h-40.973c-2.838 0-5.139 2.301-5.139 5.139v25.368h51.252v-25.368c-.001-2.838-2.302-5.139-5.14-5.139z" fill="#ffb541"/><path d="m462.654 474.144h-22.167c-2.838 0-5.139 2.301-5.139 5.139v25.368h22.167v-25.368c-.001-2.838 2.3-5.139 5.139-5.139z" fill="#ffa812"/><path d="m55.652 150.452h159.407v29.514h-159.407z" fill="#ffa812"/><path d="m55.652 150.452h29.984v29.514h-29.984z" fill="#ff9a00"/><path d="m297.03 150.452h159.407v29.514h-159.407z" fill="#ffa812"/><path d="m297.03 150.452h36.774v29.514h-36.774z" fill="#ff9a00"/><path d="m215.058 128.674h-165.944c-4.748 0-8.633 3.885-8.633 8.632v8.381c0 4.748 3.885 8.632 8.633 8.632h165.944z" fill="#ffc265"/><path d="m70.466 145.688v-8.381c0-4.748 3.885-8.632 8.632-8.632h-29.984c-4.748 0-8.633 3.885-8.633 8.632v8.381c0 4.748 3.885 8.632 8.633 8.632h29.984c-4.748 0-8.632-3.884-8.632-8.632z" fill="#ffb541"/><path d="m462.974 128.674h-165.944v25.646h165.944c4.748 0 8.633-3.885 8.633-8.632v-8.381c-.001-4.748-3.885-8.633-8.633-8.633z" fill="#ffc265"/><path d="m332.304 145.688v-8.381c0-4.748 3.885-8.632 8.632-8.632h-43.906v25.646h43.906c-4.748-.001-8.632-3.885-8.632-8.633z" fill="#ffb541"/><path d="m213.949 127.286h84.191v52.681h-84.191z" fill="#ffc265"/><path d="m213.949 127.285h32.31v52.681h-32.31z" fill="#ffb541"/><path d="m31.764 202.786h448.561v28.474h-448.561z" fill="#ffcf86"/><path d="m31.764 202.785h38.632v28.474h-38.632z" fill="#ffc265"/><path d="m16.594 179.967v17.014c0 4.748 3.885 8.632 8.632 8.632h461.635c4.748 0 8.632-3.885 8.632-8.632v-17.014z" fill="#ffc265"/><path d="m55.226 196.981v-17.014h-38.632v17.014c0 4.748 3.885 8.632 8.633 8.632h38.632c-4.748 0-8.633-3.885-8.633-8.632z" fill="#ffb541"/><path d="m502.239 187.467h-492.39c-4.142 0-7.5-3.358-7.5-7.5s3.358-7.5 7.5-7.5h492.39c4.142 0 7.5 3.358 7.5 7.5s-3.358 7.5-7.5 7.5z" fill="#ffcf86"/><path d="m40.981 179.967c0-4.142 3.358-7.5 7.5-7.5h-38.632c-4.142 0-7.5 3.358-7.5 7.5s3.358 7.5 7.5 7.5h38.632c-4.142 0-7.5-3.358-7.5-7.5z" fill="#ffc265"/><path d="m316.381 120.042v-8.381c0-4.748-3.885-8.632-8.633-8.632h-103.408c-4.748 0-8.633 3.885-8.633 8.632v8.381c0 4.748 3.885 8.632 8.633 8.632h103.409c4.747 0 8.632-3.884 8.632-8.632z" fill="#ffcf86"/><path d="m228.018 120.042v-8.381c0-4.748 3.885-8.632 8.633-8.632h-32.31c-4.748 0-8.633 3.885-8.633 8.632v8.381c0 4.748 3.885 8.632 8.633 8.632h32.31c-4.749 0-8.633-3.884-8.633-8.632z" fill="#ffc265"/><path d="m9.761 172.316c-4.143 0-7.5 3.358-7.5 7.5 0 3.887 2.957 7.083 6.744 7.462v9.552c0 8.571 6.723 15.581 15.17 16.083v255.317c-3.746 2.196-6.274 6.255-6.274 10.902v17.868h-1.396c-4.143 0-7.5 3.358-7.5 7.5s3.357 7.5 7.5 7.5h478.9c4.143 0 7.5-3.358 7.5-7.5s-3.357-7.5-7.5-7.5h-1.395v-17.868c0-4.648-2.529-8.707-6.275-10.902v-98.603c0-4.142-3.357-7.5-7.5-7.5s-7.5 3.358-7.5 7.5v96.866h-23.701v-227.885h23.701v96.019c0 4.142 3.357 7.5 7.5 7.5s7.5-3.358 7.5-7.5c0-3.975 0-112.525 0-121.714 8.447-.502 15.17-7.513 15.17-16.084v-9.552c3.788-.379 6.745-3.575 6.745-7.462 0-4.142-3.357-7.5-7.5-7.5-15.137 0-4.45 0-38.303 0v-10.695c8.447-.502 15.17-7.513 15.17-16.083v-8.381c0-8.896-7.237-16.132-16.133-16.132h-66.472c-4.143 0-7.5 3.358-7.5 7.5s3.357 7.5 7.5 7.5h66.472c.604 0 1.133.529 1.133 1.132v8.381c0 .603-.529 1.132-1.133 1.132-4.762 0-139.346 0-158.443 0v-10.646h56.972c4.143 0 7.5-3.358 7.5-7.5s-3.357-7.5-7.5-7.5h-37.678c.026-.376.057-.75.057-1.133v-8.381c0-5.898-3.191-11.052-7.928-13.866l4.549-4.549c.79-.791 1.394-1.748 1.767-2.802l5.074-14.341 2.421 1.001c3.824 1.583 8.214-.235 9.798-4.063 1.583-3.828-.235-8.214-4.063-9.798l-9.723-4.023c-3.966-1.643-8.507.382-9.938 4.429l-7.144 20.19-11.689 11.688h-13.688l7.528-8.809c.795-.929 1.35-2.039 1.617-3.231l3.838-17.115 3.729 1.347c3.892 1.405 8.193-.611 9.602-4.507 1.406-3.896-.611-8.194-4.508-9.601l-11.733-4.236c-4.243-1.531-8.878 1.007-9.865 5.413l-5.292 23.602-14.647 17.139h-.042v-41.489h1.301c4.143 0 7.5-3.358 7.5-7.5s-3.357-7.5-7.5-7.5h-1.301v-5.043c11.472-3.271 19.898-13.839 19.898-26.345 0-4.142-3.357-7.5-7.5-7.5s-7.5 3.358-7.5 7.5c0 4.016-1.928 7.582-4.898 9.849v-3.982c0-4.142-3.357-7.5-7.5-7.5s-7.5 3.358-7.5 7.5v3.982c-2.969-2.267-4.897-5.832-4.897-9.848 0-4.142-3.357-7.5-7.5-7.5s-7.5 3.358-7.5 7.5c0 12.506 8.426 23.075 19.897 26.345v5.043h-1.3c-4.143 0-7.5 3.358-7.5 7.5s3.357 7.5 7.5 7.5h1.3v41.489h-.041l-14.648-17.139-5.292-23.602c-.986-4.403-5.62-6.946-9.865-5.413l-11.733 4.236c-3.896 1.407-5.914 5.705-4.508 9.601 1.407 3.896 5.707 5.913 9.602 4.507l3.729-1.347 3.838 17.115c.268 1.193.822 2.302 1.617 3.232l7.528 8.808h-13.687l-11.689-11.688-7.145-20.19c-1.434-4.05-5.971-6.069-9.938-4.428l-9.722 4.023c-3.827 1.584-5.646 5.971-4.062 9.798 1.583 3.827 5.965 5.644 9.798 4.063l2.419-1.001 5.075 14.341c.373 1.054.977 2.011 1.767 2.801l4.549 4.549c-4.737 2.814-7.929 7.968-7.929 13.866v8.381c0 .382.031.757.057 1.133h-139.15c-8.896 0-16.132 7.237-16.132 16.132v8.381c0 8.571 6.723 15.582 15.17 16.084v10.695c-33.849 0-23.176 0-38.302 0zm417.998 306.816v17.868h-15.72v-17.868c0-4.648-2.529-8.707-6.275-10.902v-229.622h28.271v229.622c-3.748 2.196-6.276 6.255-6.276 10.902zm-388.584-240.524h23.702v227.885h-23.702zm38.702 229.622v-229.622h28.27v229.622c-3.746 2.196-6.274 6.255-6.274 10.902v17.868h-15.72v-17.868c-.001-4.647-2.529-8.706-6.276-10.902zm43.269-229.622h23.702v227.885h-23.702zm38.703 229.622v-229.622h28.27v229.622c-3.746 2.196-6.274 6.255-6.274 10.902v17.868h-15.72v-17.868c-.001-4.647-2.53-8.706-6.276-10.902zm43.269-229.622h23.702v227.885h-23.702zm38.702 229.622v-229.622h28.271v229.622c-3.747 2.196-6.275 6.255-6.275 10.902v17.868h-15.72v-17.868c0-4.647-2.529-8.706-6.276-10.902zm43.271-229.622h23.701v227.885h-23.701zm38.701 229.622v-229.622h28.271v229.622c-3.747 2.196-6.275 6.255-6.275 10.902v17.868h-15.72v-17.868c-.001-4.647-2.529-8.706-6.276-10.902zm43.271-229.622h23.701v227.885h-23.701zm105.672-15c-4.019 0-430.906 0-433.561 0v-10.646h433.561zm-439.835 273.392v-15.507h36.252v15.507zm81.972 0v-15.507h36.252v15.507zm81.972 0v-15.507h36.252v15.507zm81.971 0v-15.507h36.252v15.507zm81.972 0v-15.507h36.252v15.507zm118.224-15.507v15.507h-36.252v-15.507zm8.894-284.663c0 .603-.529 1.132-1.132 1.132-1.736 0-448.366 0-461.636 0-.604 0-1.133-.529-1.133-1.132v-9.514h463.9v9.514zm-39.057-35.161v10.646h-144.407v-10.646zm-159.407 10.647h-66.971c0-13.152 0-23.163 0-36.292h66.972c-.001 13.133-.001 23.159-.001 36.292zm-86.323-52.425v-8.381c0-.603.529-1.132 1.133-1.132h103.409c.603 0 1.132.529 1.132 1.132v8.381c0 .604-.529 1.133-1.132 1.133-11.442 0-90.42 0-103.409 0-.604-.001-1.133-.53-1.133-1.133zm-155.224 17.265c0-.603.529-1.132 1.132-1.132h158.444v10.646c-6.54 0-149.788 0-158.444 0-.603 0-1.132-.529-1.132-1.132zm15.169 24.513h144.407v10.646h-144.407z"/></svg>