<svg height="461pt" viewBox="0 -87 461.639 461" width="461pt" xmlns="http://www.w3.org/2000/svg"><path d="m181.761719 86.808594c4.753906 13.550781-2.378907 28.390625-15.933594 33.140625-13.523437 4.71875-28.316406-2.410157-33.050781-15.929688-4.734375-13.523437 2.378906-28.324219 15.894531-33.070312 13.515625-4.75 28.324219 2.347656 33.089844 15.859375zm0 0" fill="#00efd1"/><path d="m116.28125 114.949219c18.167969 16.082031 24.480469 22.75 38.390625 34.910156-35.273437.769531-35.890625 23.378906-72.402344 23.378906-22.710937 0-31.53125-8.757812-43.460937-15.558593l.070312-.128907c12.890625-9.132812 25.101563-17.792969 37.359375-26.472656 2.335938-1.652344 3.851563-4.230469 4.160157-7.074219.308593-2.84375-.613282-5.6875-2.539063-7.804687-2.078125-2.234375-4.023437-4.589844-5.820313-7.058594-3.238281-4.570313-6.710937-4.570313-11.46875-3.421875-11.140624 2.679688-22.34375 5.078125-33.609374 7.191406-6.121094 1.050782-11.960938-2.976562-13.152344-9.070312-1.382813-6.402344 2.679687-12.714844 9.082031-14.109375 15.578125-3.421875 31.1875-6.671875 46.769531-10.070313 4.179688-.910156 7.539063.289063 10.640625 3.089844 11.949219 10.78125 23.941407 21.511719 35.980469 32.199219zm0 0" fill="#00efd1"/><path d="m369.574219.320312c-19.765625.023438-35.769531 16.0625-35.753907 35.828126v10.261718h-55v-10.261718c.078126-10.976563 9-19.832032 19.976563-19.828126 4.417969-.011718 7.992187-3.597656 7.980469-8.019531-.007813-4.417969-3.597656-7.992187-8.015625-7.980469-19.800781.011719-35.867188 16.027344-35.941407 35.828126v117.199218c0 4.421875 3.582032 8 8 8 4.417969 0 8-3.578125 8-8v-24.9375h55v26.109375c0 4.417969 3.582032 8 8 8 4.417969 0 8-3.582031 8-8v-118.371093c-.023437-10.933594 8.820313-19.8125 19.753907-19.828126 4.417969 0 8-3.582031 8-8 0-4.417968-3.582031-8-8-8zm-35.753907 62.089844v19h-55v-19zm-55 50v-15h55v15zm0 0" fill="#fedb41"/><g fill="#00acea"><path d="m379.359375 181.238281c-20.878906 0-31.785156-6.867187-41.398437-12.929687-8.917969-5.617188-16.617188-10.46875-32.875-10.46875-16.261719 0-23.957032 4.851562-32.867188 10.46875-9.621094 6.0625-20.523438 12.933594-41.40625 12.933594-20.878906 0-31.773438-6.871094-41.390625-12.929688-8.917969-5.617188-16.617187-10.46875-32.878906-10.46875-.582031 0-1.167969.007812-1.734375.019531-15.070313.328125-22.511719 5.015625-31.125 10.445313-9.621094 6.0625-20.527344 12.933594-41.410156 12.933594-20.867188 0-31.765626-6.867188-41.386719-12.929688-2.058594-1.300781-4.003907-2.523438-6.035157-3.679688-6.191406-3.527343-13.734374-6.789062-26.847656-6.789062-4.417968 0-7.99999975-3.582031-7.99999975-8s3.58203175-8 7.99999975-8c16.882813 0 27.050782 4.492188 34.769532 8.886719 2.335937 1.332031 4.527343 2.710937 6.644531 4.046875 8.910156 5.613281 16.609375 10.464844 32.855469 10.464844 16.261718 0 23.960937-4.851563 32.878906-10.46875 9.28125-5.851563 19.804687-12.480469 39.347656-12.910157.691406-.011719 1.367188-.019531 2.042969-.019531 20.882812 0 31.785156 6.871094 41.40625 12.933594 8.914062 5.613281 16.613281 10.464844 32.863281 10.464844 16.253906 0 23.960938-4.851563 32.875-10.46875 9.621094-6.0625 20.523438-12.929688 41.398438-12.929688 20.871093 0 31.78125 6.867188 41.402343 12.929688 8.917969 5.617187 16.617188 10.46875 32.875 10.46875 16.261719 0 23.960938-4.851563 32.875-10.46875 9.621094-6.0625 20.523438-12.929688 41.402344-12.929688 4.417969 0 8 3.582031 8 8s-3.582031 8-8 8c-16.261719 0-23.960937 4.851562-32.878906 10.46875-9.617188 6.058594-20.523438 12.925781-41.402344 12.925781zm0 0"/><path d="m379.359375 233.871094c-20.878906 0-31.78125-6.867188-41.398437-12.925782-8.917969-5.617187-16.617188-10.464843-32.878907-10.464843s-23.953125 4.847656-32.863281 10.460937c-9.621094 6.058594-20.527344 12.929688-41.402344 12.929688s-31.773437-6.867188-41.390625-12.925782c-8.917969-5.617187-16.617187-10.464843-32.878906-10.464843s-23.953125 4.847656-32.867187 10.460937c-9.617188 6.058594-20.523438 12.929688-41.398438 12.929688-20.878906 0-31.773438-6.867188-41.390625-12.925782-8.917969-5.617187-16.617187-10.464843-32.878906-10.464843-4.417969 0-8.0000002-3.582031-8.0000002-8s3.5820312-8 8.0000002-8c20.878906 0 31.785156 6.867187 41.398437 12.925781 8.910156 5.613281 16.609375 10.464844 32.859375 10.464844s23.960938-4.851563 32.878907-10.464844c9.617187-6.058594 20.519531-12.925781 41.390624-12.925781 20.875 0 31.785157 6.867187 41.40625 12.925781 8.914063 5.613281 16.609376 10.464844 32.863282 10.464844s23.960937-4.851563 32.878906-10.464844c9.617188-6.058594 20.519531-12.925781 41.390625-12.925781 20.875 0 31.785156 6.867187 41.402344 12.925781 8.914062 5.613281 16.613281 10.464844 32.875 10.464844s23.964843-4.851563 32.878906-10.460938c9.621094-6.058594 20.527344-12.925781 41.402344-12.925781 4.417969 0 8 3.582031 8 8s-3.582031 8-8 8c-16.261719 0-23.960938 4.847656-32.878907 10.464844-9.617187 6.054687-20.519531 12.921875-41.398437 12.921875zm0 0"/><path d="m379.359375 286.5c-20.878906 0-31.78125-6.867188-41.398437-12.925781-8.917969-5.617188-16.617188-10.464844-32.878907-10.464844s-23.953125 4.847656-32.863281 10.464844c-9.621094 6.058593-20.527344 12.925781-41.402344 12.925781s-31.773437-6.867188-41.390625-12.925781c-8.917969-5.613281-16.617187-10.464844-32.878906-10.464844s-23.953125 4.847656-32.867187 10.464844c-9.617188 6.058593-20.523438 12.925781-41.398438 12.925781-20.878906 0-31.773438-6.867188-41.390625-12.925781-8.929687-5.613281-16.628906-10.464844-32.890625-10.464844-4.417969 0-8-3.582031-8-8s3.582031-8 8-8c20.882812 0 31.785156 6.867187 41.398438 12.925781 8.921874 5.617188 16.621093 10.464844 32.871093 10.464844s23.960938-4.851562 32.878907-10.464844c9.617187-6.058594 20.519531-12.925781 41.390624-12.925781 20.875 0 31.785157 6.867187 41.40625 12.925781 8.914063 5.617188 16.609376 10.464844 32.863282 10.464844s23.960937-4.851562 32.878906-10.464844c9.617188-6.058594 20.519531-12.925781 41.390625-12.925781 20.875 0 31.785156 6.867187 41.402344 12.925781 8.914062 5.617188 16.613281 10.464844 32.875 10.464844s23.960937-4.847656 32.875-10.464844c9.621093-6.058594 20.527343-12.925781 41.402343-12.925781 4.417969 0 8 3.582031 8 8s-3.582031 8-8 8c-16.261718 0-23.960937 4.847656-32.878906 10.464844-9.613281 6.058593-20.515625 12.925781-41.394531 12.925781zm0 0"/></g></svg>