<svg height="512pt" viewBox="0 -66 512.00039 512" width="512pt" xmlns="http://www.w3.org/2000/svg"><path d="m105.929688 52.964844 26.484374-44.136719 57.035157 30.613281c10.527343 5.652344 15.742187 17.832032 12.570312 29.351563l-10.59375 35.476562-7.539062 7.550781-82.371094-49.292968zm0 0" fill="#a88e74"/><path d="m105.199219 52.964844-61.792969 97.105468-7.363281 12.507813 281.75 154.484375 16.179687 8.085938 82.398438 1.472656h86.800781l-.730469-45.65625c-.003906-24.015625-18.566406-43.949219-42.523437-45.65625l-81.0625-5.792969-79.449219-132.414063v-14.121093c.039062-7.800781-6.25-14.160157-14.050781-14.199219-1.773438-.011719-3.53125.316406-5.1875.957031l-89.492188 34.535157zm0 0" fill="#85bc94"/><path d="m300.136719 97.101562-35.308594 26.484376 88.277344 114.757812 26.480469-8.828125zm0 0" fill="#a88e74"/><g fill="#6b9777"><path d="m167.722656 229.515625c-4.875.003906-8.828125-3.945313-8.832031-8.820313-.003906-2.625 1.164063-5.117187 3.183594-6.792968l52.964843-44.140625c3.75-3.117188 9.320313-2.609375 12.4375 1.140625 3.121094 3.75 2.613282 9.316406-1.136718 12.4375l-52.964844 44.136718c-1.589844 1.320313-3.585938 2.042969-5.652344 2.039063zm0 0"/><path d="m211.863281 256c-4.875.003906-8.832031-3.949219-8.832031-8.824219-.003906-2.683593 1.21875-5.222656 3.3125-6.898437l44.140625-35.308594c3.804687-3.046875 9.363281-2.433594 12.410156 1.375s2.429688 9.367188-1.375 12.414062l-44.140625 35.308594c-1.566406 1.253906-3.511718 1.933594-5.515625 1.933594zm0 0"/><path d="m263.167969 284.691406c-4.875-.007812-8.824219-3.964844-8.816407-8.839844 0-2.308593.90625-4.519531 2.523438-6.167968l28.132812-28.691406c3.460938-3.433594 9.050782-3.40625 12.484376.054687 3.363281 3.394531 3.417968 8.847656.121093 12.304687l-28.140625 28.691407c-1.660156 1.691406-3.933594 2.644531-6.304687 2.648437zm0 0"/><path d="m85.511719 84.964844 36.707031 27.285156c17.1875 12.785156 26.082031 33.890625 23.234375 55.121094l-1.765625 40.078125-99.445312-57.273438zm0 0"/></g><path d="m52.964844 273.65625h-44.136719c-4.875 0-8.828125-3.953125-8.828125-8.828125s3.953125-8.828125 8.828125-8.828125h44.136719c4.875 0 8.828125 3.953125 8.828125 8.828125s-3.953125 8.828125-8.828125 8.828125zm0 0" fill="#a8d6da"/><path d="m123.585938 326.621094h-114.757813c-4.875 0-8.828125-3.953125-8.828125-8.828125s3.953125-8.828125 8.828125-8.828125h114.757813c4.875 0 8.828124 3.953125 8.828124 8.828125s-3.953124 8.828125-8.828124 8.828125zm0 0" fill="#a8d6da"/><path d="m220.691406 379.585938h-211.863281c-4.875 0-8.828125-3.953126-8.828125-8.828126s3.953125-8.828124 8.828125-8.828124h211.863281c4.875 0 8.824219 3.953124 8.824219 8.828124s-3.949219 8.828126-8.824219 8.828126zm0 0" fill="#a8d6da"/><path d="m8.828125 194.207031 318.523437 176.550781h131.683594c24.375 0 44.136719-19.761718 44.136719-44.136718v-8.828125h-167.722656l-300.449219-172.914063zm0 0" fill="#eaeae8"/><path d="m459.035156 370.757812c13.828125-.027343 26.835938-6.570312 35.105469-17.65625h-158.691406l-317.378907-176.320312-9.242187 17.425781 318.523437 176.550781zm0 0" fill="#e4e4e2"/><path d="m461.285156 226.507812-76.492187-5.464843-50.554688-84.214844-25.273437-42.171875v-11.675781c.007812-12.675781-10.261719-22.957031-22.9375-22.964844-2.839844-.003906-5.65625.523437-8.300782 1.546875l-72.6875 28.039062 5.488282-18.433593c4.339844-15.496094-2.695313-31.921875-16.902344-39.476563l-57.035156-30.640625c-4.148438-2.226562-9.316406-.804687-11.742188 3.230469l-83.65625 133.96875-1.765625-1.023438c-4.230469-2.429687-9.625-.96875-12.050781 3.257813-.054688.089844-.101562.179687-.152344.273437l-26.191406 49.308594c-2.253906 4.257813-.683594 9.535156 3.53125 11.863282l318.535156 176.554687c1.308594.722656 2.78125 1.101563 4.273438 1.101563h131.664062c29.238282-.027344 52.9375-23.726563 52.964844-52.964844v-45.65625c-.09375-28.609375-22.183594-52.328125-50.714844-54.457032zm-94.941406-1.890624-10.078125 3.363281-78.992187-102.699219 20.304687-15.246094zm-230.691406-204.03125 49.621094 26.632812c6.878906 3.632812 10.316406 11.550781 8.28125 19.058594l-7.292969 24.578125-50.667969-30.386719-17.550781-10.53125zm-52.265625 84.25 4.519531-7.0625 29.042969 21.601562c14.78125 11.097656 22.332031 29.375 19.683593 47.667969l-1.101562 25.511719-78.894531-45.46875zm375.648437 257.09375h-129.394531l-308.964844-171.253907 17.839844-33.546875 292.519531 168.316406c1.34375.773438 2.863282 1.179688 4.414063 1.175782h158.894531c0 19.5-15.808594 35.308594-35.308594 35.308594zm35.308594-52.964844h-156.539062l-60.546876-34.859375 20.355469-20.753907c3.363281-3.53125 3.226563-9.117187-.300781-12.480468-3.460938-3.296875-8.914062-3.242188-12.304688.121094l-23.550781 24.011718-33.546875-19.332031 33.640625-26.914063c3.808594-3.050781 4.425781-8.605468 1.378907-12.414062-3.046876-3.808594-8.605469-4.421875-12.414063-1.375l-39.042969 31.238281-28.742187-16.523437 43.609375-36.34375c3.746094-3.121094 4.257812-8.6875 1.136718-12.4375-3.121093-3.75-8.6875-4.261719-12.4375-1.140625l-48.621093 40.527343-13.648438-7.855468 1.429688-33.890625c3.269531-24.410157-6.960938-48.675781-26.722657-63.378907l-30.074218-22.363281 11.363281-17.839843 78.140625 46.882812c1.046875.605469 2.210938.980469 3.414062 1.105469.214844 0 .398438.070312.609376.085937.214843.019532.347656.0625.511718.0625 1.09375.003906 2.179688-.199218 3.199219-.589844l89.421875-34.492187c1.632812-.621094 3.46875-.40625 4.917969.574219 1.453125.996094 2.316406 2.652344 2.304687 4.414062v9.710938l-31.78125 23.835937c-3.898437 2.929688-4.683594 8.460938-1.753906 12.359375.019531.027344.039062.050782.058594.078125l88.277344 114.757813c2.28125 2.988281 6.214843 4.191406 9.78125 2.992187l24.8125-8.269531 79.324218 5.667969c19.308594 1.425781 34.265625 17.46875 34.339844 36.828125zm0 0"/><path d="m52.964844 256h-44.136719c-4.875 0-8.828125 3.953125-8.828125 8.828125s3.953125 8.828125 8.828125 8.828125h44.136719c4.875 0 8.828125-3.953125 8.828125-8.828125s-3.953125-8.828125-8.828125-8.828125zm0 0"/><path d="m0 317.792969c0 4.875 3.953125 8.828125 8.828125 8.828125h114.757813c4.875 0 8.828124-3.953125 8.828124-8.828125s-3.953124-8.828125-8.828124-8.828125h-114.757813c-4.875 0-8.828125 3.953125-8.828125 8.828125zm0 0"/><path d="m220.691406 361.929688h-211.863281c-4.875 0-8.828125 3.953124-8.828125 8.828124s3.953125 8.828126 8.828125 8.828126h211.863281c4.875 0 8.824219-3.953126 8.824219-8.828126s-3.949219-8.828124-8.824219-8.828124zm0 0"/></svg>