<?xml version="1.0" encoding="iso-8859-1"?>
<!-- Generator: Adobe Illustrator 19.0.0, SVG Export Plug-In . SVG Version: 6.00 Build 0)  -->
<svg version="1.1" id="Layer_1" xmlns="http://www.w3.org/2000/svg" xmlns:xlink="http://www.w3.org/1999/xlink" x="0px" y="0px"
	 viewBox="0 0 512 512" style="enable-background:new 0 0 512 512;" xml:space="preserve">
<path style="fill:#A0D755;" d="M486.881,324.409c0,18.891-15.314,34.205-34.205,34.205s-34.205-15.314-34.205-34.205
	c0-59.858,15.314-136.818,34.205-136.818S486.881,264.551,486.881,324.409z"/>
<path style="fill:#8CBE4B;" d="M444.125,324.409c0-49.09,7.729-109.605,18.324-129.817c-3.098-4.434-6.374-7.001-9.773-7.001
	c-18.892,0-34.205,76.96-34.205,136.818c0,18.891,15.313,34.205,34.205,34.205c3.419,0,6.658-0.654,9.773-1.588
	C451.879,352.799,444.125,339.879,444.125,324.409z"/>
<g>
	<path style="fill:#A0D755;" d="M179.04,281.653c0,33.059-26.799,59.858-59.858,59.858s-59.858-26.799-59.858-59.858
		c0-76.96,26.799-162.472,59.858-162.472S179.04,204.693,179.04,281.653z"/>
	<path style="fill:#A0D755;" d="M110.63,310.267c0,26.701-22.971,48.347-51.307,48.347S8.017,336.968,8.017,310.267
		c0-62.16,22.971-131.227,51.307-131.227S110.63,248.106,110.63,310.267z"/>
	<circle style="fill:#A0D755;" cx="281.653" cy="187.591" r="59.858"/>
</g>
<g>
	<path style="fill:#8CBE4B;" d="M93.528,281.653c0-70.199,14.867-147.477,34.205-160.521c-2.794-1.256-5.647-1.951-8.551-1.951
		c-33.059,0-59.858,85.511-59.858,162.472c0,33.059,26.799,59.858,59.858,59.858c2.912,0,5.751-0.278,8.551-0.68
		C108.402,336.673,93.528,311.801,93.528,281.653z"/>
	<path style="fill:#8CBE4B;" d="M42.221,310.267c0-56.098,10.925-117.642,25.203-129.148c-2.646-1.243-5.338-2.079-8.101-2.079
		c-28.336,0-51.307,69.067-51.307,131.227c0,26.701,22.971,48.347,51.307,48.347c2.763,0,5.456-0.264,8.101-0.661
		C53.146,354.286,42.221,334.364,42.221,310.267z"/>
	<path style="fill:#8CBE4B;" d="M256,187.591c0-27.111,18.036-49.985,42.756-57.346c-5.422-1.615-11.155-2.512-17.102-2.512
		c-33.059,0-59.858,26.799-59.858,59.858s26.799,59.858,59.858,59.858c5.947,0,11.68-0.897,17.102-2.512
		C274.036,237.574,256,214.702,256,187.591z"/>
</g>
<path style="fill:#EBC9A0;" d="M375.716,315.858H238.898c-4.722,0-8.551-3.829-8.551-8.551v-17.102c0-4.722,3.829-8.551,8.551-8.551
	h136.818c4.722,0,8.551,3.829,8.551,8.551v17.102C384.267,312.029,380.438,315.858,375.716,315.858z"/>
<path d="M503.983,384.802h-43.29v-18.944c19.459-3.757,34.205-20.909,34.205-41.449c0-30.383-3.822-65.024-10.225-92.665
	c-2.989-12.904-12.085-52.171-31.996-52.171c-11.752,0-18.32,13.081-20.479,17.38c-4.261,8.487-8.136,20.192-11.517,34.79
	c-5.936,25.625-9.648,57.258-10.159,85.945c-9.964,3.334-17.169,12.749-17.169,23.821v0.534h-18.171v-18.171h0.534
	c9.136,0,16.568-7.432,16.568-16.568v-17.102c0-9.136-7.432-16.568-16.568-16.568H289.67v-18.661
	c33.659-3.981,59.858-32.673,59.858-67.385c0-37.426-30.448-67.875-67.875-67.875s-67.875,30.448-67.875,67.875
	c0,34.712,26.199,63.405,59.858,67.385v18.661h-34.739c-9.136,0-16.568,7.432-16.568,16.568v17.102
	c0,9.136,7.432,16.568,16.568,16.568h0.534v18.171h-18.171v-0.534c0-13.851-11.268-25.119-25.119-25.119
	c-4.427,0-8.017,3.589-8.017,8.017c0,4.427,3.589,8.017,8.017,8.017c5.01,0,9.086,4.076,9.086,9.086v43.29h-78.029v-35.763
	c33.659-3.981,59.858-32.673,59.858-67.385c0-38.948-6.553-80.04-17.981-112.74c-13.202-37.779-30.455-57.748-49.894-57.748
	s-36.692,19.969-49.894,57.748c-0.416,1.19-0.81,2.412-1.213,3.624c-2.872-1.003-5.796-1.514-8.751-1.514
	c-17.06,0-32.199,16.208-43.78,46.871C5.812,243.667,0,277.092,0,307.307c0,29.991,22.375,54.84,51.307,58.767v18.728H8.017
	c-4.427,0-8.017,3.589-8.017,8.017c0,4.427,3.589,8.017,8.017,8.017h495.967c4.427,0,8.017-3.589,8.017-8.017
	C512,388.391,508.411,384.802,503.983,384.802z M229.812,187.591c0-28.585,23.256-51.841,51.841-51.841s51.841,23.256,51.841,51.841
	c0,25.86-19.033,47.354-43.825,51.219v-8.464c0-4.427-3.589-8.017-8.017-8.017c-4.427,0-8.017,3.589-8.017,8.017v8.464
	C248.845,234.945,229.812,213.451,229.812,187.591z M435.606,238.436c6.998-31.807,14.616-41.57,17.07-42.765
	c2.454,1.196,10.072,10.958,17.07,42.765c5.709,25.951,9.118,58.09,9.118,85.973c0,11.645-7.642,21.534-18.171,24.928v-7.825
	c0-4.427-3.589-8.017-8.017-8.017c-4.427,0-8.017,3.589-8.017,8.017v7.825c-10.53-3.395-18.171-13.283-18.171-24.928
	C426.489,296.526,429.897,264.387,435.606,238.436z M409.386,341.511c0-2.415,0.952-4.606,2.494-6.235
	c4.132,15.499,16.88,27.511,32.78,30.58v18.945h-35.273V341.511z M393.353,384.802H289.67v-26.722h103.683V384.802z
	 M359.148,342.046H289.67v-18.171h69.478V342.046z M238.363,307.307v-17.102c0-0.295,0.239-0.534,0.534-0.534h136.818
	c0.295,0,0.534,0.239,0.534,0.534v17.102c0,0.295-0.239,0.534-0.534,0.534H238.898C238.603,307.841,238.363,307.602,238.363,307.307
	z M255.466,323.875h18.171v18.171h-18.171V323.875z M221.261,358.079h52.376v26.722h-52.376V358.079z M119.182,127.198
	c11.308,0,24.626,18.011,34.758,47.004c10.696,30.611,17.083,70.78,17.083,107.452c0,25.86-19.033,47.354-43.825,51.219v-25.566
	c0-4.427-3.589-8.017-8.017-8.017c-4.427,0-8.017,3.589-8.017,8.017v25.566c-24.792-3.865-43.825-25.359-43.825-51.219
	c0-36.672,6.387-76.841,17.083-107.452C94.555,145.209,107.874,127.198,119.182,127.198z M16.033,307.307
	c0-28.382,5.425-59.69,14.51-83.748c8.503-22.516,19.531-36.503,28.78-36.503c1.329,0,2.705,0.297,4.116,0.872
	c-7.785,28.871-12.133,62.008-12.133,93.725c0,25.552,14.198,47.843,35.114,59.421c-5.54,4.459-12.076,7.462-19.081,8.77v-8.333
	c0-4.427-3.589-8.017-8.017-8.017s-8.017,3.589-8.017,8.017v8.329C31.256,346.069,16.033,328.437,16.033,307.307z M67.34,366.073
	c13.64-1.838,26.154-8.33,35.558-18.532c2.696,0.667,5.456,1.166,8.267,1.499v35.763H67.34V366.073z"/>
<g>
</g>
<g>
</g>
<g>
</g>
<g>
</g>
<g>
</g>
<g>
</g>
<g>
</g>
<g>
</g>
<g>
</g>
<g>
</g>
<g>
</g>
<g>
</g>
<g>
</g>
<g>
</g>
<g>
</g>
</svg>
