<?xml version="1.0" encoding="iso-8859-1"?>
<!-- Generator: Adobe Illustrator 18.0.0, SVG Export Plug-In . SVG Version: 6.00 Build 0)  -->
<!DOCTYPE svg PUBLIC "-//W3C//DTD SVG 1.1//EN" "http://www.w3.org/Graphics/SVG/1.1/DTD/svg11.dtd">
<svg version="1.1" id="Capa_1" xmlns="http://www.w3.org/2000/svg" xmlns:xlink="http://www.w3.org/1999/xlink" x="0px" y="0px"
	 viewBox="0 0 401.98 401.98" style="enable-background:new 0 0 401.98 401.98;" xml:space="preserve">
<g>
	<path style="fill:#51B7A6;" d="M324.735,22.14v357.71c0,12.22-9.91,22.13-22.13,22.13H99.385c-12.23,0-22.14-9.91-22.14-22.13
		V22.14C77.245,9.91,87.155,0,99.385,0h203.22C314.825,0,324.735,9.91,324.735,22.14z M280.485,219.72v-43.5h-26.78h-58.54h-30.26
		h-43.41v43.5h31.41h30.26h58.54H280.485z M280.485,321.73c0-9.94-8.06-17.99-18-17.99c-9.94,0-18,8.05-18,17.99
		c0,9.95,8.06,18,18,18C272.425,339.73,280.485,331.68,280.485,321.73z M256.485,87.7c0-30.65-24.84-55.5-55.49-55.5
		s-55.5,24.85-55.5,55.5s24.85,55.49,55.5,55.49S256.485,118.35,256.485,87.7z"/>
	<path style="fill:#88C9B3;" d="M99.385,385.98c-3.386,0-6.14-2.75-6.14-6.13V22.14c0-3.385,2.754-6.14,6.14-6.14h203.221
		c3.38,0,6.13,2.754,6.13,6.14v357.71c0,3.38-2.75,6.13-6.13,6.13H99.385z"/>
	<path style="fill:#665040;" d="M262.485,303.74c9.94,0,18,8.05,18,17.99c0,9.95-8.06,18-18,18c-9.94,0-18-8.05-18-18
		C244.485,311.79,252.545,303.74,262.485,303.74z"/>
	<rect x="109.495" y="164.22" style="fill:#51B7A6;" width="182.99" height="67.5"/>
	<path style="fill:#E77200;" d="M200.995,32.2c30.65,0,55.49,24.85,55.49,55.5s-24.84,55.49-55.49,55.49s-55.5-24.84-55.5-55.49
		S170.345,32.2,200.995,32.2z M230.245,87.7c0-16.16-13.1-29.25-29.25-29.25c-16.16,0-29.25,13.09-29.25,29.25
		c0,16.15,13.09,29.25,29.25,29.25C217.145,116.95,230.245,103.85,230.245,87.7z"/>
	<path style="fill:#7C6655;" d="M200.995,58.45c16.15,0,29.25,13.09,29.25,29.25c0,16.15-13.1,29.25-29.25,29.25
		c-16.16,0-29.25-13.1-29.25-29.25C171.745,71.54,184.835,58.45,200.995,58.45z"/>
	<circle style="fill:#665040;" cx="200.995" cy="87.7" r="10.842"/>
	<g>
		<g>
			<path style="fill:#7C6655;" d="M196.115,266.24c-6.639,0-9.964-8.381-5.169-12.936c2.557-2.428,6.557-2.725,9.452-0.721
				c2.396,1.659,3.63,4.68,3.083,7.542C202.814,263.617,199.684,266.24,196.115,266.24z"/>
			<path style="fill:#7C6655;" d="M196.115,293.24c-6.783,0-10.053-8.751-4.896-13.181c5.284-4.54,13.629,0.285,12.256,7.141
				C202.782,290.658,199.648,293.24,196.115,293.24z"/>
			<path style="fill:#7C6655;" d="M196.115,320.24c-3.216,0-6.091-2.13-7.114-5.155c-1.021-3.019,0.09-6.486,2.65-8.374
				c5.526-4.076,13.451,1.155,11.739,7.847C202.55,317.843,199.525,320.24,196.115,320.24z"/>
			<path style="fill:#7C6655;" d="M196.115,347.23c-6.766,0-10.018-8.631-4.98-13.103c2.569-2.28,6.447-2.485,9.264-0.544
				c2.398,1.653,3.629,4.685,3.083,7.543C202.813,344.624,199.685,347.23,196.115,347.23z"/>
		</g>
		<g>
			<path style="fill:#7C6655;" d="M165.375,266.24c-3.138,0-6.007-2.029-7.063-4.977c-1.099-3.069-0.033-6.612,2.591-8.552
				c5.459-4.035,13.271,1.014,11.78,7.668C171.927,263.757,168.837,266.24,165.375,266.24z"/>
			<path style="fill:#7C6655;" d="M165.375,293.24c-6.782,0-10.073-8.749-4.902-13.181c2.532-2.171,6.282-2.409,9.062-0.559
				c2.603,1.732,3.868,5.026,3.107,8.058C171.816,290.85,168.77,293.24,165.375,293.24z"/>
			<path style="fill:#7C6655;" d="M165.375,320.24c-6.804,0-10.052-8.767-4.902-13.181c2.537-2.174,6.276-2.404,9.062-0.559
				c2.659,1.76,3.917,5.166,3.058,8.235C171.696,317.939,168.713,320.24,165.375,320.24z"/>
			<path style="fill:#7C6655;" d="M165.375,347.24c-3.276,0-6.221-2.21-7.179-5.329c-0.923-3.007,0.211-6.406,2.766-8.245
				c5.476-3.939,13.208,1.075,11.721,7.712C171.927,344.753,168.833,347.24,165.375,347.24z"/>
		</g>
		<g>
			<path style="fill:#7C6655;" d="M134.625,266.24c-6.856,0-10.136-8.928-4.763-13.298c5.323-4.329,13.456,0.461,12.112,7.258
				C141.29,263.662,138.149,266.24,134.625,266.24z"/>
			<path style="fill:#7C6655;" d="M134.625,293.24c-6.857,0-10.133-8.931-4.763-13.302c5.325-4.333,13.456,0.466,12.112,7.261
				C141.29,290.661,138.148,293.24,134.625,293.24z"/>
			<path style="fill:#7C6655;" d="M134.625,320.24c-3.118,0-5.966-2.01-7.043-4.925c-1.158-3.136-0.023-6.79,2.722-8.71
				c5.488-3.837,13.105,1.197,11.629,7.773C141.176,317.754,138.087,320.24,134.625,320.24z"/>
			<path style="fill:#7C6655;" d="M134.625,347.24c-7.006,0-10.178-9.248-4.53-13.485c5.454-4.092,13.339,0.927,11.838,7.624
				C141.178,344.751,138.083,347.24,134.625,347.24z"/>
		</g>
	</g>
	<polygon style="fill:#E77200;" points="253.705,176.22 241.705,219.72 183.165,219.72 195.165,176.22 	"/>
	<polygon style="fill:#E77200;" points="164.905,176.22 152.905,219.72 121.495,219.72 121.495,176.22 	"/>
	<polygon style="fill:#FCF4DE;" points="280.485,176.22 280.485,219.72 241.705,219.72 253.705,176.22 	"/>
	<polygon style="fill:#FCF4DE;" points="195.165,176.22 183.165,219.72 152.905,219.72 164.905,176.22 	"/>
</g>
<g>
</g>
<g>
</g>
<g>
</g>
<g>
</g>
<g>
</g>
<g>
</g>
<g>
</g>
<g>
</g>
<g>
</g>
<g>
</g>
<g>
</g>
<g>
</g>
<g>
</g>
<g>
</g>
<g>
</g>
</svg>
