<svg xmlns="http://www.w3.org/2000/svg" width="1862.248" height="304" viewBox="0 0 1862.248 304">
  <g id="Group_75" data-name="Group 75" transform="translate(-26.788 -1794)">
    <g id="Group_30" data-name="Group 30">
      <g id="house_1_" data-name="house (1)" transform="translate(379 1773.539)">
        <path id="Path_312" data-name="Path 312" d="M80.677,70.038a4.953,4.953,0,0,0-6.961-1.385L63.31,75.817l-.03-22.3L66.895,57a4.054,4.054,0,0,0,2.824,1.148h.006a4.094,4.094,0,0,0,3.01-1.344,4.337,4.337,0,0,0-.191-6.008L65.69,44.191a1.141,1.141,0,0,0-1.645.055,1.222,1.222,0,0,0,.054,1.693l6.854,6.605a1.893,1.893,0,0,1,.083,2.623,1.763,1.763,0,0,1-1.314.587h0a1.769,1.769,0,0,1-1.232-.5l-5.579-5.376h0L41.27,29.023a1.14,1.14,0,0,0-1.594,0L18.1,49.939h0l-5.565,5.393a1.768,1.768,0,0,1-2.55-.079,1.893,1.893,0,0,1,.076-2.623L39.232,24.358a1.77,1.77,0,0,1,2.47,0L58.77,40.8a1.141,1.141,0,0,0,1.645-.055,1.222,1.222,0,0,0-.054-1.693L43.293,22.607a4.054,4.054,0,0,0-5.658.008L28.3,31.666l0-1.614a1.92,1.92,0,0,0-.544-1.346,1.814,1.814,0,0,0-1.307-.556h0l-6.681.01a1.814,1.814,0,0,0-1.309.56,1.921,1.921,0,0,0-.54,1.348l.018,11.648L8.461,50.889A4.337,4.337,0,0,0,8.287,56.9a4.054,4.054,0,0,0,2.884,1.334l.127,0a4.04,4.04,0,0,0,2.83-1.157l3.607-3.5.014,10.534a23.855,23.855,0,0,0-3.534-.267H12.223V63.13a4.317,4.317,0,0,0-4.249-4.371H4.249A4.316,4.316,0,0,0,0,63.13V81.893a1.181,1.181,0,0,0,1.164,1.2,1.181,1.181,0,0,0,1.164-1.2V63.13a1.952,1.952,0,0,1,1.921-1.977H7.974A1.952,1.952,0,0,1,9.9,63.13V91.485a1.952,1.952,0,0,1-1.921,1.977H4.249a1.952,1.952,0,0,1-1.921-1.977v-2.1a1.181,1.181,0,0,0-1.164-1.2A1.181,1.181,0,0,0,0,89.39v2.1a4.317,4.317,0,0,0,4.249,4.371H7.974a4.317,4.317,0,0,0,4.249-4.371v-.163l17.045,6.64q.047.018.1.032a7.918,7.918,0,0,0,2.213.323,7.328,7.328,0,0,0,1.177-.095L57.8,94.509l.018,0a12.1,12.1,0,0,0,5.81-2.678l.043-.038L79.859,76.817A5.293,5.293,0,0,0,80.677,70.038ZM25.967,30.545l.005,3.374-5.72,5.543-.014-8.909ZM20.077,64.579l-.018-13.252L40.476,31.54,60.948,51.269l.036,26.149-3.3,2.269-3.49-.2-.092-.954a7.506,7.506,0,0,0-5.922-6.705l-.021-15.557a2.14,2.14,0,0,0-2.107-2.164h0l-11.094.016a2.063,2.063,0,0,0-1.489.637,2.184,2.184,0,0,0-.615,1.533l.018,13.564a21.763,21.763,0,0,1-6.257-2.551q-.367-.221-.741-.428c-.1-.054-.2-.1-.294-.157-.152-.081-.3-.163-.456-.242-.122-.062-.245-.121-.368-.181s-.261-.128-.392-.19-.269-.122-.4-.182-.246-.11-.37-.162-.278-.115-.417-.172c-.124-.05-.248-.1-.372-.147s-.277-.1-.416-.155-.261-.094-.392-.139-.267-.09-.4-.134-.286-.091-.43-.134c-.123-.037-.247-.075-.371-.11-.162-.046-.325-.09-.488-.133C20.23,64.621,20.154,64.6,20.077,64.579Zm15.108-8.061L45.836,56.5l.02,15.026-9.735-1.153-.917-.109ZM78.308,75.031,62.14,89.99a9.8,9.8,0,0,1-4.676,2.15L32.425,95.853l-.016,0-.017,0a5.4,5.4,0,0,1-2.348-.154L12.223,88.762V66.242h1.992a21.633,21.633,0,0,1,5.019.592l.183.045c.2.05.4.1.6.157l.052.015q.3.085.6.178l.107.033q.318.1.632.211l.065.023q.655.233,1.3.508l.07.03q.319.138.635.286l.017.008q.3.144.606.3l.071.036q.294.151.583.312l.109.061c.195.109.389.221.581.336a24,24,0,0,0,8.962,3.209l.03,0,13.041,1.545q.108.016.215.037A5.107,5.107,0,0,1,51.633,77.9a5.4,5.4,0,0,1,.157.872l.052.536L27.4,77.1a1.174,1.174,0,0,0-1.261,1.088,1.188,1.188,0,0,0,1.058,1.3l25.84,2.329h.018l.018,0,4.873.281.065,0c.023,0,.046,0,.069-.005s.052,0,.078-.006.069-.012.1-.02.049-.01.073-.017a1.113,1.113,0,0,0,.109-.041c.019-.008.04-.014.059-.023a1.142,1.142,0,0,0,.158-.09L62.8,79.053h0l12.216-8.411a2.66,2.66,0,0,1,3.74.743A2.845,2.845,0,0,1,78.308,75.031Z" transform="translate(-21.337)" fill="#3a6ec9"/>
      </g>
      <text id="Who_we_are" data-name="Who we are" transform="translate(300 1934)" fill="#424b5a" font-size="40" font-family="SourceSansPro-Regular, Source Sans Pro"><tspan x="0" y="0">Who we are</tspan></text>
      <text id="Rentiers_dedicate_their_time_to_find_a_better_home_for_you._That_means_you_can_get_the_most_up_to_date_listings_24_hours_a_day_365_days_a_year." data-name="Rentiers dedicate their time
to find a better home for you.
That means you can get the
most up to date listings, 
24 hours a day, 
365 days a year." transform="translate(398 1978)" fill="#707070" font-size="18" font-family="SourceSansPro-Regular, Source Sans Pro"><tspan x="-103.788" y="0">Rentiers dedicate their time</tspan><tspan x="-109.026" y="23">to find a better home for you.</tspan><tspan x="-102.843" y="46">That means you can get the</tspan><tspan x="-91.269" y="69">most up to date listings, </tspan><tspan x="-57.87" y="92">24 hours a day, </tspan><tspan x="-58.752" y="115">365 days a year.</tspan></text>
    </g>
    <g id="Group_31" data-name="Group 31">
      <text id="What_we_do" data-name="What we do" transform="translate(862 1933)" fill="#424b5a" font-size="40" font-family="SourceSansPro-Regular, Source Sans Pro"><tspan x="0" y="0">What we do</tspan></text>
      <g id="house_2_" data-name="house (2)" transform="translate(921.998 1793.999)">
        <path id="Path_317" data-name="Path 317" d="M349,342.8v4.035h-5V342.8A16.345,16.345,0,0,0,349,342.8Zm0,0" transform="translate(-290.243 -287.915)" fill="#3a6ec9"/>
        <path id="Path_319" data-name="Path 319" d="M280,172.817a12.672,12.672,0,0,0,12.5,12.809v-2.562a10.251,10.251,0,0,1,0-20.5v-2.562A12.671,12.671,0,0,0,280,172.817Zm0,0" transform="translate(-236.244 -134.387)" fill="#3a6ec9"/>
        <path id="Path_320" data-name="Path 320" d="M74.462,25.848,38.211.229a1.218,1.218,0,0,0-1.418,0L.542,25.848a1.3,1.3,0,0,0-.483,1.435,1.255,1.255,0,0,0,1.193.9h5V67.892A1.266,1.266,0,0,0,7.5,69.173H51.252v2.562a5,5,0,1,0,10,0V69.173H67.5a1.266,1.266,0,0,0,1.25-1.281V50.957a18.191,18.191,0,0,0,1.841-22.774h3.159a1.254,1.254,0,0,0,1.192-.9,1.3,1.3,0,0,0-.483-1.435ZM37.5,2.839,69.739,25.621H68.477A17.217,17.217,0,0,0,56.253,20.5c-.336,0-.665.032-1,.051L38.183,9.175a1.225,1.225,0,0,0-1.362,0l-24.7,16.447H5.265ZM8.751,28.183H12.5a1.232,1.232,0,0,0,.681-.206l24.32-16.2L51.59,21.163A17.849,17.849,0,0,0,38.816,37.15H26.252A1.266,1.266,0,0,0,25,38.431V66.611H8.751ZM27.5,66.611v-26.9H38.816A17.985,17.985,0,0,0,47.5,53.938V66.611Zm22.5,0V55.161a17.1,17.1,0,0,0,2.5.777v1.706a1.266,1.266,0,0,0-1.25,1.281v7.686ZM55,56.3c.415.031.827.066,1.25.066s.835-.035,1.25-.066v1.347H55Zm3.75,15.437a2.5,2.5,0,1,1-5,0V60.207h5Zm2.5-5.124V58.926A1.266,1.266,0,0,0,60,57.645V55.939a17.206,17.206,0,0,0,6.25-2.818V66.611Zm-5-12.809a15.376,15.376,0,1,1,15-15.371A15.189,15.189,0,0,1,56.253,53.8Zm0,0" transform="translate(0 0)" fill="#3a6ec9"/>
        <path id="Path_321" data-name="Path 321" d="M192,296.008h2.5v7.686H192Zm0,0" transform="translate(-161.994 -248.611)" fill="#3a6ec9"/>
      </g>
      <text id="Our_up_to_date_database_lets_you_search_for_your_dream_home_or_find_the_value_of_your_current_home._Then_we_will_contact_you_in_minutes_to_make_your_dream_a_reality." data-name="Our up to date database lets
you search for your dream
home or find the value of your
current home. Then we will
contact you in minutes to
make your dream a reality." transform="translate(959 1977)" fill="#707070" font-size="18" font-family="SourceSansPro-Regular, Source Sans Pro"><tspan x="-105.273" y="0">Our up to date database lets</tspan><tspan x="-97.785" y="23">you search for your dream</tspan><tspan x="-112.446" y="46">home or find the value of your</tspan><tspan x="-101.988" y="69">current home. Then we will</tspan><tspan x="-94.878" y="92">contact you in minutes to</tspan><tspan x="-99.504" y="115">make your dream a reality.</tspan></text>
    </g>
    <g id="Group_32" data-name="Group 32">
      <text id="Why_choose_us" data-name="Why choose us" transform="translate(1399 1933)" fill="#424b5a" font-size="40" font-family="SourceSansPro-Regular, Source Sans Pro"><tspan x="0" y="0">Why choose us</tspan></text>
      <g id="handshake" transform="translate(1471.533 1793.999)">
        <g id="Group_27" data-name="Group 27" transform="translate(48.947 36.177)">
          <g id="Group_26" data-name="Group 26">
            <path id="Path_322" data-name="Path 322" d="M268.366,248.146l-13.6-6.412a1.809,1.809,0,0,0-.549-.154L249.958,241a1.5,1.5,0,0,0-1.7.913c-.139.6.4,1.2,1.19,1.3l4.018.544,13.364,6.3a1.8,1.8,0,0,0,1.98-.325A1,1,0,0,0,268.366,248.146Z" transform="translate(-248.236 -240.986)" fill="#3a6ec9"/>
          </g>
        </g>
        <g id="Group_29" data-name="Group 29" transform="translate(0.467 0.001)">
          <g id="Group_28" data-name="Group 28" transform="translate(0)">
            <path id="Path_323" data-name="Path 323" d="M100.071,43.7A1.8,1.8,0,0,0,98,43.643l-5.95,4.266L64.782,27.271,100,1.948A.953.953,0,0,0,100.07.357,1.8,1.8,0,0,0,98,.305L61.661,26.429a.964.964,0,0,0-.027,1.623l2.412,1.825-.77.522L47.157,29.334a1.871,1.871,0,0,0-.734.1L33.651,33.894c-.037-.007-.074-.015-.113-.02l-7.347-.995.594-1.165c.294-.576-.073-1.226-.822-1.456L2.48,23.052a1.644,1.644,0,0,0-1.908.627c-.3.577.065,1.233.818,1.464l22.131,6.792L10.479,57.5,2.425,55.315A1.615,1.615,0,0,0,.551,56c-.271.586.13,1.23.894,1.437l9.393,2.552a1.647,1.647,0,0,0,1.857-.651l2.18-4.273,5.711,2.455-.63.783c-1.785,2.219-.884,5.139,2.009,6.508a7.865,7.865,0,0,0,5.138.471A4.888,4.888,0,0,0,29.959,68.6a7.865,7.865,0,0,0,5.138.471,4.889,4.889,0,0,0,2.856,3.313,7.85,7.85,0,0,0,5.138.473,4.889,4.889,0,0,0,2.856,3.311,7.781,7.781,0,0,0,7.193-.395,5.4,5.4,0,0,0,1.29-1.147l1-1.245.824.389a7.779,7.779,0,0,0,7.192-.405,5.39,5.39,0,0,0,1.287-1.148,3.877,3.877,0,0,0,.9-2.759,7.852,7.852,0,0,0,1.424.132,6.8,6.8,0,0,0,5.263-2.255,3.875,3.875,0,0,0,.9-2.759,7.855,7.855,0,0,0,1.421.132,6.8,6.8,0,0,0,5.263-2.255,3.874,3.874,0,0,0,.9-2.761,7.926,7.926,0,0,0,1.422.131,6.763,6.763,0,0,0,5.262-2.252c1.779-2.222.871-5.14-2.025-6.505l-1.006-.474,3.373-2.7,3.155,2.388a1.824,1.824,0,0,0,2.033.021l6.98-5A.953.953,0,0,0,100.071,43.7ZM27.95,62.089a3.844,3.844,0,0,1-4.444.807c-1.515-.717-1.987-2.247-1.053-3.409l8.221-10.222a3.855,3.855,0,0,1,4.39-.833,2.241,2.241,0,0,1,1.051,3.5Zm7.994,3.784a3.843,3.843,0,0,1-4.443.807c-1.5-.709-1.978-2.259-1.053-3.409l6.576-8.177a3.855,3.855,0,0,1,4.39-.833,2.241,2.241,0,0,1,1.051,3.5Zm7.995,3.784a3.3,3.3,0,0,1-2,1.11,4.051,4.051,0,0,1-2.44-.3c-1.5-.709-1.977-2.259-1.052-3.409l4.932-6.133a3.855,3.855,0,0,1,4.39-.833,2.241,2.241,0,0,1,1.051,3.5Zm11.227-.235-3.233,4.02a3.879,3.879,0,0,1-4.444.807c-1.5-.709-1.977-2.259-1.052-3.409l3.288-4.089a3.854,3.854,0,0,1,4.39-.832A2.241,2.241,0,0,1,55.165,69.422ZM81.9,49.381l-7.275-3.43a1.777,1.777,0,0,0-2.019.37,1,1,0,0,0,.482,1.549l10.839,5.11c1.517.715,1.993,2.244,1.061,3.408a3.842,3.842,0,0,1-4.442.814l-11.625-5.48a1.743,1.743,0,0,0-2.019.37.989.989,0,0,0,.482,1.549l8.958,4.223c1.5.706,1.983,2.256,1.061,3.408a3.877,3.877,0,0,1-4.441.814l-8.118-3.827a1.743,1.743,0,0,0-2.019.37.989.989,0,0,0,.482,1.549l5.45,2.569c1.5.707,1.983,2.256,1.061,3.408a3.877,3.877,0,0,1-4.441.814s-4.793-2.257-4.838-2.274a1.731,1.731,0,0,0-1.887.425.989.989,0,0,0,.482,1.549l2.039.961c1.517.715,1.992,2.244,1.061,3.408a3.877,3.877,0,0,1-4.441.814l-.819-.386.69-.858a3.927,3.927,0,0,0,.751-3.707,4.971,4.971,0,0,0-2.806-2.918,7.638,7.638,0,0,0-3.529-.639,3.781,3.781,0,0,0-.015-2.272,4.971,4.971,0,0,0-2.806-2.918,7.636,7.636,0,0,0-3.529-.639c.605-1.995-.509-4.141-2.821-5.19a7.64,7.64,0,0,0-3.529-.639c.605-1.995-.509-4.141-2.821-5.19-2.87-1.3-6.63-.589-8.381,1.589L22.129,55.6l-6.175-2.654L25.1,35.018l4.979.674a3.875,3.875,0,0,0-.817,4.931,6.5,6.5,0,0,0,5.619,2.769,7.735,7.735,0,0,0,2.546-.425l8.6-3a1.045,1.045,0,0,0,.727-1.491,1.694,1.694,0,0,0-1.944-.558l-8.6,3a3.692,3.692,0,0,1-4.277-1.228c-.738-1.243-.02-2.715,1.6-3.281L47.288,31.6,63.65,32.684q.063,0,.126,0a1.748,1.748,0,0,0,.971-.282l1.393-.943L85.743,46.3Z" transform="translate(-0.467 -0.001)" fill="#3a6ec9"/>
          </g>
        </g>
      </g>
      <text id="We_are_changing_the_future_of_real_estate_with_the_help_of_latest_communication_tools_market_information_dedicated_marketers._There_is_no_better_feeling_to_hand_you_the_keys." data-name="We are changing the future of
real estate with the help of
latest communication tools, 
market information &amp; dedicated
marketers. There is no better
feeling to hand you the keys." transform="translate(1518 1977)" fill="#707070" font-size="18" font-family="SourceSansPro-Regular, Source Sans Pro"><tspan x="-110.106" y="0">We are changing the future of</tspan><tspan x="-99.072" y="23">real estate with the help of</tspan><tspan x="-106.326" y="46">latest communication tools, </tspan><tspan x="-119.781" y="69">market information &amp; dedicated</tspan><tspan x="-107.649" y="92">marketers. There is no better</tspan><tspan x="-106.938" y="115">feeling to hand you the keys.</tspan></text>
    </g>
    <path id="Path_325" data-name="Path 325" d="M-401.222,1918.713c103.258-90.8,224.525-114.36,224.525-114.36" transform="translate(429 119)" fill="none" stroke="#000" stroke-width="3" stroke-dasharray="10"/>
    <path id="Path_326" data-name="Path 326" d="M392.045,1916.446c-19.9,2.8-95.168-17.919-133.018-51.444-58.4-61.643-121.5-60.257-121.5-60.257" transform="translate(406 120.58)" fill="none" stroke="#000" stroke-width="3" stroke-dasharray="10"/>
    <path id="Path_327" data-name="Path 327" d="M137.53,1916.446c19.9,2.8,95.169-17.919,133.021-51.444,58.4-61.643,121.5-60.257,121.5-60.257" transform="translate(964.515 120.58)" fill="none" stroke="#000" stroke-width="3" stroke-dasharray="10"/>
    <path id="Path_328" data-name="Path 328" d="M-194.525,1918.713c-95.059-90.8-206.7-114.36-206.7-114.36" transform="translate(2082.525 119)" fill="none" stroke="#000" stroke-width="3" stroke-dasharray="10"/>
    <path id="internet" d="M34.957,33.257a19.946,19.946,0,0,0-.386-26.935h0s-.007-.006-.009-.009A19.943,19.943,0,0,0,20.693.018h0L20.3.007C20.2,0,20.1,0,20,0s-.2,0-.3.007l-.388.01h0A19.943,19.943,0,0,0,5.439,6.312s-.007,0-.009.009h0a19.944,19.944,0,0,0-.387,26.934c0,.006,0,.013.009.019s.03.026.043.041a19.955,19.955,0,0,0,14.212,6.666h0l.388.01c.1,0,.2.006.3.006s.2,0,.3-.007l.388-.01h0A19.953,19.953,0,0,0,34.916,33.3c.009-.012.023-.015.032-.028S34.953,33.263,34.957,33.257ZM1.4,20.69H9.674a25.487,25.487,0,0,0,1.666,8.426,25.43,25.43,0,0,0-5.594,2.849A18.535,18.535,0,0,1,1.4,20.69ZM6.123,7.6a25.368,25.368,0,0,0,5.448,2.677,25.467,25.467,0,0,0-1.9,9.031H1.4A18.539,18.539,0,0,1,6.123,7.6ZM38.6,19.31H30.326a25.467,25.467,0,0,0-1.9-9.031A25.368,25.368,0,0,0,33.877,7.6,18.539,18.539,0,0,1,38.6,19.31ZM19.31,10.319a24.109,24.109,0,0,1-5.842-.885A24.129,24.129,0,0,1,19.31,1.823Zm0,1.379V19.31H11.054a24.087,24.087,0,0,1,1.839-8.6A25.482,25.482,0,0,0,19.31,11.7Zm1.379,0a25.461,25.461,0,0,0,6.419-.992,24.087,24.087,0,0,1,1.839,8.6H20.69Zm0-1.379v-8.5a24.129,24.129,0,0,1,5.842,7.611A24.109,24.109,0,0,1,20.69,10.319Zm7.179-1.3a25.469,25.469,0,0,0-5.44-7.472A18.567,18.567,0,0,1,32.9,6.59,23.988,23.988,0,0,1,27.868,9.015Zm-15.737,0A23.966,23.966,0,0,1,7.1,6.59,18.565,18.565,0,0,1,17.572,1.543,25.459,25.459,0,0,0,12.132,9.015ZM11.054,20.69H19.31v6.923a25.437,25.437,0,0,0-6.663,1.063A24.086,24.086,0,0,1,11.054,20.69Zm8.257,8.3v9.185a24.118,24.118,0,0,1-6.127-8.219A24.046,24.046,0,0,1,19.31,28.992Zm1.379,9.185V28.992a24.046,24.046,0,0,1,6.127.966A24.113,24.113,0,0,1,20.69,38.177Zm0-10.564V20.69h8.257a24.076,24.076,0,0,1-1.594,7.986A25.4,25.4,0,0,0,20.69,27.612Zm9.636-6.923H38.6a18.531,18.531,0,0,1-4.35,11.274,25.43,25.43,0,0,0-5.594-2.849A25.469,25.469,0,0,0,30.326,20.69ZM6.683,33a24.035,24.035,0,0,1,5.184-2.608,25.448,25.448,0,0,0,5.7,8.068A18.581,18.581,0,0,1,6.683,33Zm15.745,5.46a25.433,25.433,0,0,0,5.7-8.068A24.051,24.051,0,0,1,33.317,33,18.581,18.581,0,0,1,22.428,38.457Z" transform="translate(100 1905)" fill="#5043ac"/>
    <g id="typing" transform="translate(671 1883)">
      <g id="Group_34" data-name="Group 34" transform="translate(0 20)">
        <g id="Group_33" data-name="Group 33">
          <path id="Path_329" data-name="Path 329" d="M40,22.542A2.452,2.452,0,0,0,37.656,20H2.344A2.452,2.452,0,0,0,0,22.542V41.1s0,.008,0,.012,0,.016,0,.025v5.971a18.539,18.539,0,0,0,.727,5.151l.884,3.059v3.833A.816.816,0,0,0,2.393,60a.816.816,0,0,0,.781-.847V55.19a.913.913,0,0,0-.036-.254l-.92-3.183a16.713,16.713,0,0,1-.656-4.644V41.139a.824.824,0,0,1,.787-.854.824.824,0,0,1,.787.854v2.077a.816.816,0,0,0,.781.847.816.816,0,0,0,.781-.847V39.885a.824.824,0,0,1,.787-.854.824.824,0,0,1,.787.854v3.331a.784.784,0,1,0,1.563,0V38.807a.79.79,0,1,1,1.575,0v4.408a.784.784,0,1,0,1.562,0V33.243a.79.79,0,1,1,1.575,0V45.563a.838.838,0,0,0,.59.822.76.76,0,0,0,.879-.419l1.842-3.7a.836.836,0,0,1,1.161-.4.971.971,0,0,1,.455,1.067l-1.194,5.37a8.475,8.475,0,0,1-1.243,2.91L12.7,54.69a.9.9,0,0,0-.15.5v3.963a.784.784,0,1,0,1.563,0V55.467L16.3,52.217A10.228,10.228,0,0,0,17.8,48.7l.692-3.112h3.016L22.2,48.7a10.23,10.23,0,0,0,1.5,3.512l2.189,3.249v3.686a.784.784,0,1,0,1.563,0V55.19a.9.9,0,0,0-.15-.5l-2.34-3.473a8.476,8.476,0,0,1-1.243-2.91l-1.194-5.37a.971.971,0,0,1,.455-1.067.836.836,0,0,1,1.161.4l1.842,3.7a.76.76,0,0,0,.879.419.838.838,0,0,0,.59-.822V33.243a.79.79,0,1,1,1.575,0v9.973a.784.784,0,1,0,1.563,0V38.807a.79.79,0,1,1,1.575,0v4.408a.784.784,0,1,0,1.563,0V39.885a.79.79,0,1,1,1.575,0v3.331a.784.784,0,1,0,1.563,0V41.139a.79.79,0,1,1,1.575,0v5.971a16.715,16.715,0,0,1-.656,4.644l-.92,3.183a.913.913,0,0,0-.036.254v3.963a.784.784,0,1,0,1.563,0V55.32l.884-3.059A18.539,18.539,0,0,0,40,47.109V41.138c0-.008,0-.016,0-.024s0-.008,0-.012ZM21.006,43.335l.125.563H18.869l.125-.563a2.761,2.761,0,0,0-.817-2.657h3.645A2.761,2.761,0,0,0,21.006,43.335Zm17.432-4.6a2.179,2.179,0,0,0-1.785.094,2.352,2.352,0,0,0-2.14-1.5,2.189,2.189,0,0,0-1.062.276,2.335,2.335,0,0,0-2.075-1.353,2.176,2.176,0,0,0-.787.147V33.242a2.358,2.358,0,1,0-4.7,0V42.21l-.373-.75a2.456,2.456,0,0,0-1.634-1.333.906.906,0,0,0,.05-.3.816.816,0,0,0-.781-.847H17.734a.816.816,0,0,0-.781.847.909.909,0,0,0,.042.272,2.37,2.37,0,0,0-2.511,1.358l-.373.75V33.243a2.458,2.458,0,0,0-2.35-2.549,2.458,2.458,0,0,0-2.35,2.549v3.163a2.176,2.176,0,0,0-.787-.147,2.336,2.336,0,0,0-2.075,1.353,2.189,2.189,0,0,0-1.062-.276,2.352,2.352,0,0,0-2.14,1.5,2.179,2.179,0,0,0-1.785-.094V22.542a.817.817,0,0,1,.781-.847H37.656a.817.817,0,0,1,.781.847Z" transform="translate(0 -20)" fill="#5043ac"/>
        </g>
      </g>
      <g id="Group_36" data-name="Group 36" transform="translate(4.219 29.492)">
        <g id="Group_35" data-name="Group 35">
          <path id="Path_330" data-name="Path 330" d="M58.141,132H54.781a.85.85,0,0,0,0,1.695h3.359a.85.85,0,0,0,0-1.695Z" transform="translate(-54 -132.003)" fill="#5043ac"/>
        </g>
      </g>
      <g id="Group_38" data-name="Group 38" transform="translate(14.174 29.492)">
        <g id="Group_37" data-name="Group 37">
          <path id="Path_331" data-name="Path 331" d="M183.441,132H182.2a.85.85,0,0,0,0,1.695h1.237a.85.85,0,0,0,0-1.695Z" transform="translate(-181.422 -132.003)" fill="#5043ac"/>
        </g>
      </g>
      <g id="Group_40" data-name="Group 40" transform="translate(4.219 34.237)">
        <g id="Group_39" data-name="Group 39">
          <path id="Path_332" data-name="Path 332" d="M56.131,188h-1.35a.85.85,0,0,0,0,1.695h1.35a.85.85,0,0,0,0-1.695Z" transform="translate(-54 -188)" fill="#5043ac"/>
        </g>
      </g>
      <g id="Group_42" data-name="Group 42" transform="translate(16.044 34.237)">
        <g id="Group_41" data-name="Group 41">
          <path id="Path_333" data-name="Path 333" d="M207.594,188h-1.454a.85.85,0,0,0,0,1.695h1.454a.85.85,0,0,0,0-1.695Z" transform="translate(-205.358 -188)" fill="#5043ac"/>
        </g>
      </g>
      <g id="Group_44" data-name="Group 44" transform="translate(4.219 24.746)">
        <g id="Group_43" data-name="Group 43">
          <path id="Path_334" data-name="Path 334" d="M57.481,76h-2.7a.85.85,0,0,0,0,1.695h2.7a.85.85,0,0,0,0-1.695Z" transform="translate(-54 -76.005)" fill="#5043ac"/>
        </g>
      </g>
      <g id="Group_46" data-name="Group 46" transform="translate(12.936 24.746)">
        <g id="Group_45" data-name="Group 45">
          <path id="Path_335" data-name="Path 335" d="M168.838,76h-2.475a.85.85,0,0,0,0,1.695h2.475a.85.85,0,0,0,0-1.695Z" transform="translate(-165.582 -76.005)" fill="#5043ac"/>
        </g>
      </g>
      <g id="Group_48" data-name="Group 48" transform="translate(9.968 24.747)">
        <g id="Group_47" data-name="Group 47">
          <path id="Path_336" data-name="Path 336" d="M128.924,76.257a.74.74,0,0,0-1.1,0,.9.9,0,0,0,0,1.2.74.74,0,0,0,1.1,0,.9.9,0,0,0,0-1.2Z" transform="translate(-127.59 -76.01)" fill="#5043ac"/>
        </g>
      </g>
      <g id="Group_50" data-name="Group 50" transform="translate(18.242 29.492)">
        <g id="Group_49" data-name="Group 49">
          <path id="Path_337" data-name="Path 337" d="M236.351,132h-2.07a.85.85,0,0,0,0,1.695h2.07a.85.85,0,0,0,0-1.695Z" transform="translate(-233.5 -132.003)" fill="#5043ac"/>
        </g>
      </g>
      <g id="Group_52" data-name="Group 52" transform="translate(24.023 29.492)">
        <g id="Group_51" data-name="Group 51">
          <path id="Path_338" data-name="Path 338" d="M308.834,132.248a.738.738,0,0,0-1.1,0,.9.9,0,0,0,0,1.2.738.738,0,0,0,1.1,0,.9.9,0,0,0,0-1.2Z" transform="translate(-307.5 -132)" fill="#5043ac"/>
        </g>
      </g>
      <g id="Group_54" data-name="Group 54" transform="translate(31.306 29.492)">
        <g id="Group_53" data-name="Group 53">
          <path id="Path_339" data-name="Path 339" d="M404.432,132h-2.94a.85.85,0,0,0,0,1.695h2.94a.85.85,0,0,0,0-1.695Z" transform="translate(-400.711 -132.003)" fill="#5043ac"/>
        </g>
      </g>
      <g id="Group_56" data-name="Group 56" transform="translate(21.471 34.237)">
        <g id="Group_55" data-name="Group 55">
          <path id="Path_340" data-name="Path 340" d="M277.19,188h-1.576a.85.85,0,0,0,0,1.695h1.576a.85.85,0,0,0,0-1.695Z" transform="translate(-274.833 -188)" fill="#5043ac"/>
        </g>
      </g>
      <g id="Group_58" data-name="Group 58" transform="translate(32.639 34.237)">
        <g id="Group_57" data-name="Group 57">
          <path id="Path_341" data-name="Path 341" d="M420.015,188H418.56a.85.85,0,0,0,0,1.695h1.454a.85.85,0,0,0,0-1.695Z" transform="translate(-417.779 -188)" fill="#5043ac"/>
        </g>
      </g>
      <g id="Group_60" data-name="Group 60" transform="translate(19.219 24.746)">
        <g id="Group_59" data-name="Group 59">
          <path id="Path_342" data-name="Path 342" d="M248.851,76h-2.07a.85.85,0,0,0,0,1.695h2.07a.85.85,0,0,0,0-1.695Z" transform="translate(-246 -76.005)" fill="#5043ac"/>
        </g>
      </g>
      <g id="Group_62" data-name="Group 62" transform="translate(31.643 24.746)">
        <g id="Group_61" data-name="Group 61">
          <path id="Path_343" data-name="Path 343" d="M408.391,76h-2.586a.85.85,0,0,0,0,1.695h2.586a.85.85,0,0,0,0-1.695Z" transform="translate(-405.024 -76.005)" fill="#5043ac"/>
        </g>
      </g>
      <g id="Group_64" data-name="Group 64" transform="translate(25.906 24.746)">
        <g id="Group_63" data-name="Group 63">
          <path id="Path_344" data-name="Path 344" d="M334.085,76h-1.712a.85.85,0,0,0,0,1.695h1.712a.85.85,0,0,0,0-1.695Z" transform="translate(-331.592 -76.005)" fill="#5043ac"/>
        </g>
      </g>
    </g>
    <g id="call-center-worker-with-headset" transform="translate(1189 1897.412)">
      <path id="Path_345" data-name="Path 345" d="M16.859,27.59A2.054,2.054,0,1,1,14.8,25.5,2.073,2.073,0,0,1,16.859,27.59ZM25.2,25.5a2.092,2.092,0,1,0,2.054,2.092A2.073,2.073,0,0,0,25.2,25.5Zm14.8.926V30.4a3.582,3.582,0,0,1-3.548,3.614H33.877C31.326,41.23,24.811,45.588,20,45.588S8.674,41.23,6.123,34.014H3.548A3.582,3.582,0,0,1,0,30.4V26.424a3.623,3.623,0,0,1,1.86-3.18C1.9,17.6,3.512,13.191,6.668,10.144,9.8,7.121,14.283,5.588,20,5.588s10.2,1.533,13.332,4.556c3.155,3.048,4.77,7.456,4.807,13.1A3.624,3.624,0,0,1,40,26.424ZM32.49,27.6c0-.93-.047-1.8-.116-2.65-1.575-1.468-4.433-2.581-8.041-2.995a5.362,5.362,0,0,1,1.131,2.2c-2.21-1.773-6.548-1.351-9.829-5.32-.188-.222-.351-.433-.491-.627l-.005-.006h0c-.584-.8-.783-1.282-.794-.753-.1,4.561-3.27,8.117-6.795,8.619-.022.5-.041,1.008-.041,1.537a16.641,16.641,0,0,0,.835,5.269c1.98,2.432,5.249,3.119,8.143,3.3A3.675,3.675,0,0,1,19.634,34.7c1.9,0,3.446,1.115,3.446,2.492s-1.543,2.491-3.446,2.491a3.6,3.6,0,0,1-3.211-1.592A16.706,16.706,0,0,1,10.2,36.662c2.787,4.184,7.106,6.4,9.8,6.4C24.239,43.058,32.49,37.6,32.49,27.6ZM36,22.81c-.226-9.85-5.745-15.053-16-15.053S4.222,12.96,4,22.81H5.362a17.539,17.539,0,0,1,3.156-8.15C11.07,11.315,14.933,9.619,20,9.619s8.93,1.7,11.483,5.042a17.54,17.54,0,0,1,3.156,8.15H36Z" fill="#5043ac"/>
    </g>
    <g id="arrival" transform="translate(1785 1853.444)">
      <g id="Group_66" data-name="Group 66" transform="translate(1.421 82.622)">
        <g id="Group_65" data-name="Group 65">
          <path id="Path_346" data-name="Path 346" d="M46.336,390.869H18.984a1.011,1.011,0,0,0,0,1.976H46.336a1.011,1.011,0,0,0,0-1.976Z" transform="translate(-18.187 -390.869)" fill="#5043ac"/>
        </g>
      </g>
      <g id="Group_68" data-name="Group 68" transform="translate(32.862 82.622)">
        <g id="Group_67" data-name="Group 67">
          <path id="Path_347" data-name="Path 347" d="M424.343,390.869h-2.908a1.011,1.011,0,0,0,0,1.976h2.908a1.011,1.011,0,0,0,0-1.976Z" transform="translate(-420.638 -390.869)" fill="#5043ac"/>
        </g>
      </g>
      <g id="Group_70" data-name="Group 70" transform="translate(5.782 87.58)">
        <g id="Group_69" data-name="Group 69">
          <path id="Path_348" data-name="Path 348" d="M88.174,442.048H74.816a1.011,1.011,0,0,0,0,1.976H88.174a1.011,1.011,0,0,0,0-1.976Z" transform="translate(-74.019 -442.048)" fill="#5043ac"/>
        </g>
      </g>
      <g id="Group_72" data-name="Group 72" transform="translate(0 49.556)">
        <g id="Group_71" data-name="Group 71" transform="translate(0)">
          <path id="Path_349" data-name="Path 349" d="M39.282,68.4c-1.016-1.775-3.051-3.016-5.884-3.589l-.043-.007L22.017,63.29,17.089,51.118a.838.838,0,0,0-.574-.53l-4.654-1.018a.717.717,0,0,0-.739.323,1.173,1.173,0,0,0-.159.951L13.9,62.208l-7.472-1L4.683,56.9a.838.838,0,0,0-.574-.53L.935,55.681A.717.717,0,0,0,.2,56a1.173,1.173,0,0,0-.159.951L2.42,66.178a3.617,3.617,0,0,0,2.564,2.776l3.468.758,6.322,1.3a3.107,3.107,0,0,0-.191,1.082,2.387,2.387,0,0,0,2.092,2.594A2.387,2.387,0,0,0,18.767,72.1q0-.132-.011-.261l1.211.25a3.1,3.1,0,0,0-.2,1.115A2.387,2.387,0,0,0,21.855,75.8,2.387,2.387,0,0,0,23.947,73.2c0-.1-.005-.2-.014-.3l12.3,2.537a3.156,3.156,0,0,0,.675.075,3.065,3.065,0,0,0,2.938-2.92l.095-.666A5.491,5.491,0,0,0,39.282,68.4ZM12.885,51.8l2.96.647,5.869,14.495-2.527-.553-1.122-4.116a.773.773,0,0,0-1.01-.62,1.058,1.058,0,0,0-.5,1.252L17.4,66l-.9-.2Zm3.79,20.915a.632.632,0,1,1,.5-.618A.569.569,0,0,1,16.675,72.716Zm5.181,1.1a.632.632,0,1,1,.5-.618A.569.569,0,0,1,21.856,73.82Zm16.516-2.231-.095.666a1.47,1.47,0,0,1-.562,1.041,1.5,1.5,0,0,1-1.212.2L8.721,67.764,5.26,67.007a1.866,1.866,0,0,1-1.323-1.432L1.958,57.911l1.48.324L5.2,62.581a.822.822,0,0,0,.627.539l8.606,1.147.7,2.708a.877.877,0,0,0,.62.672L23,69.231a.649.649,0,0,0,.138.015.758.758,0,0,0,.639-.4,1.189,1.189,0,0,0,.073-1.033l-.982-2.424,10.3,1.372c2.274.463,3.947,1.4,4.736,2.641l-3.337-.614a.841.841,0,0,0-.9.832.978.978,0,0,0,.671,1.122l4.055.746C38.38,71.523,38.376,71.556,38.372,71.589Z" transform="translate(0 -49.556)" fill="#5043ac"/>
        </g>
      </g>
      <g id="Group_74" data-name="Group 74" transform="translate(2.622 50.643)">
        <g id="Group_73" data-name="Group 73">
          <path id="Path_350" data-name="Path 350" d="M40.188,62.394l-5.643-1.6a.81.81,0,0,0-.954.743,1.014,1.014,0,0,0,.6,1.183l5.643,1.6a.655.655,0,0,0,.178.025.856.856,0,0,0,.776-.768A1.014,1.014,0,0,0,40.188,62.394Z" transform="translate(-33.571 -60.772)" fill="#5043ac"/>
        </g>
      </g>
    </g>
  </g>
</svg>
