<svg xmlns="http://www.w3.org/2000/svg" width="144" height="164" viewBox="0 0 144 164">
  <g id="Group_6" data-name="Group 6" transform="translate(-6148 -1106)">
    <circle id="Ellipse_14" data-name="Ellipse 14" cx="2" cy="2" r="2" transform="translate(6148 1106)" fill="rgba(199,199,199,0.55)"/>
    <circle id="Ellipse_14-2" data-name="Ellipse 14" cx="2" cy="2" r="2" transform="translate(6168 1106)" fill="rgba(199,199,199,0.55)"/>
    <circle id="Ellipse_14-3" data-name="Ellipse 14" cx="2" cy="2" r="2" transform="translate(6188 1106)" fill="rgba(199,199,199,0.55)"/>
    <circle id="Ellipse_14-4" data-name="Ellipse 14" cx="2" cy="2" r="2" transform="translate(6208 1106)" fill="rgba(199,199,199,0.55)"/>
    <circle id="Ellipse_14-5" data-name="Ellipse 14" cx="2" cy="2" r="2" transform="translate(6228 1106)" fill="rgba(199,199,199,0.55)"/>
    <circle id="Ellipse_14-6" data-name="Ellipse 14" cx="2" cy="2" r="2" transform="translate(6248 1106)" fill="rgba(199,199,199,0.55)"/>
    <circle id="Ellipse_14-7" data-name="Ellipse 14" cx="2" cy="2" r="2" transform="translate(6268 1106)" fill="rgba(199,199,199,0.55)"/>
    <circle id="Ellipse_14-8" data-name="Ellipse 14" cx="2" cy="2" r="2" transform="translate(6288 1106)" fill="rgba(199,199,199,0.55)"/>
    <circle id="Ellipse_14-9" data-name="Ellipse 14" cx="2" cy="2" r="2" transform="translate(6148 1126)" fill="rgba(199,199,199,0.55)"/>
    <circle id="Ellipse_14-10" data-name="Ellipse 14" cx="2" cy="2" r="2" transform="translate(6168 1126)" fill="rgba(199,199,199,0.55)"/>
    <circle id="Ellipse_14-11" data-name="Ellipse 14" cx="2" cy="2" r="2" transform="translate(6188 1126)" fill="rgba(199,199,199,0.55)"/>
    <circle id="Ellipse_14-12" data-name="Ellipse 14" cx="2" cy="2" r="2" transform="translate(6208 1126)" fill="rgba(199,199,199,0.55)"/>
    <circle id="Ellipse_14-13" data-name="Ellipse 14" cx="2" cy="2" r="2" transform="translate(6228 1126)" fill="rgba(199,199,199,0.55)"/>
    <circle id="Ellipse_14-14" data-name="Ellipse 14" cx="2" cy="2" r="2" transform="translate(6248 1126)" fill="rgba(199,199,199,0.55)"/>
    <circle id="Ellipse_14-15" data-name="Ellipse 14" cx="2" cy="2" r="2" transform="translate(6268 1126)" fill="rgba(199,199,199,0.55)"/>
    <circle id="Ellipse_14-16" data-name="Ellipse 14" cx="2" cy="2" r="2" transform="translate(6288 1126)" fill="rgba(199,199,199,0.55)"/>
    <circle id="Ellipse_14-17" data-name="Ellipse 14" cx="2" cy="2" r="2" transform="translate(6148 1146)" fill="rgba(199,199,199,0.55)"/>
    <circle id="Ellipse_14-18" data-name="Ellipse 14" cx="2" cy="2" r="2" transform="translate(6168 1146)" fill="rgba(199,199,199,0.55)"/>
    <circle id="Ellipse_14-19" data-name="Ellipse 14" cx="2" cy="2" r="2" transform="translate(6188 1146)" fill="rgba(199,199,199,0.55)"/>
    <circle id="Ellipse_14-20" data-name="Ellipse 14" cx="2" cy="2" r="2" transform="translate(6208 1146)" fill="rgba(199,199,199,0.55)"/>
    <circle id="Ellipse_14-21" data-name="Ellipse 14" cx="2" cy="2" r="2" transform="translate(6228 1146)" fill="rgba(199,199,199,0.55)"/>
    <circle id="Ellipse_14-22" data-name="Ellipse 14" cx="2" cy="2" r="2" transform="translate(6248 1146)" fill="rgba(199,199,199,0.55)"/>
    <circle id="Ellipse_14-23" data-name="Ellipse 14" cx="2" cy="2" r="2" transform="translate(6268 1146)" fill="rgba(199,199,199,0.55)"/>
    <circle id="Ellipse_14-24" data-name="Ellipse 14" cx="2" cy="2" r="2" transform="translate(6288 1146)" fill="rgba(199,199,199,0.55)"/>
    <circle id="Ellipse_14-25" data-name="Ellipse 14" cx="2" cy="2" r="2" transform="translate(6148 1166)" fill="rgba(199,199,199,0.55)"/>
    <circle id="Ellipse_14-26" data-name="Ellipse 14" cx="2" cy="2" r="2" transform="translate(6168 1166)" fill="rgba(199,199,199,0.55)"/>
    <circle id="Ellipse_14-27" data-name="Ellipse 14" cx="2" cy="2" r="2" transform="translate(6188 1166)" fill="rgba(199,199,199,0.55)"/>
    <circle id="Ellipse_14-28" data-name="Ellipse 14" cx="2" cy="2" r="2" transform="translate(6208 1166)" fill="rgba(199,199,199,0.55)"/>
    <circle id="Ellipse_14-29" data-name="Ellipse 14" cx="2" cy="2" r="2" transform="translate(6228 1166)" fill="rgba(199,199,199,0.55)"/>
    <circle id="Ellipse_14-30" data-name="Ellipse 14" cx="2" cy="2" r="2" transform="translate(6248 1166)" fill="rgba(199,199,199,0.55)"/>
    <circle id="Ellipse_14-31" data-name="Ellipse 14" cx="2" cy="2" r="2" transform="translate(6268 1166)" fill="rgba(199,199,199,0.55)"/>
    <circle id="Ellipse_14-32" data-name="Ellipse 14" cx="2" cy="2" r="2" transform="translate(6288 1166)" fill="rgba(199,199,199,0.55)"/>
    <circle id="Ellipse_14-33" data-name="Ellipse 14" cx="2" cy="2" r="2" transform="translate(6148 1186)" fill="rgba(199,199,199,0.55)"/>
    <circle id="Ellipse_14-34" data-name="Ellipse 14" cx="2" cy="2" r="2" transform="translate(6168 1186)" fill="rgba(199,199,199,0.55)"/>
    <circle id="Ellipse_14-35" data-name="Ellipse 14" cx="2" cy="2" r="2" transform="translate(6188 1186)" fill="rgba(199,199,199,0.55)"/>
    <circle id="Ellipse_14-36" data-name="Ellipse 14" cx="2" cy="2" r="2" transform="translate(6208 1186)" fill="rgba(199,199,199,0.55)"/>
    <circle id="Ellipse_14-37" data-name="Ellipse 14" cx="2" cy="2" r="2" transform="translate(6228 1186)" fill="rgba(199,199,199,0.55)"/>
    <circle id="Ellipse_14-38" data-name="Ellipse 14" cx="2" cy="2" r="2" transform="translate(6248 1186)" fill="rgba(199,199,199,0.55)"/>
    <circle id="Ellipse_14-39" data-name="Ellipse 14" cx="2" cy="2" r="2" transform="translate(6268 1186)" fill="rgba(199,199,199,0.55)"/>
    <circle id="Ellipse_14-40" data-name="Ellipse 14" cx="2" cy="2" r="2" transform="translate(6288 1186)" fill="rgba(199,199,199,0.55)"/>
    <circle id="Ellipse_14-41" data-name="Ellipse 14" cx="2" cy="2" r="2" transform="translate(6148 1206)" fill="rgba(199,199,199,0.55)"/>
    <circle id="Ellipse_14-42" data-name="Ellipse 14" cx="2" cy="2" r="2" transform="translate(6168 1206)" fill="rgba(199,199,199,0.55)"/>
    <circle id="Ellipse_14-43" data-name="Ellipse 14" cx="2" cy="2" r="2" transform="translate(6188 1206)" fill="rgba(199,199,199,0.55)"/>
    <circle id="Ellipse_14-44" data-name="Ellipse 14" cx="2" cy="2" r="2" transform="translate(6208 1206)" fill="rgba(199,199,199,0.55)"/>
    <circle id="Ellipse_14-45" data-name="Ellipse 14" cx="2" cy="2" r="2" transform="translate(6228 1206)" fill="rgba(199,199,199,0.55)"/>
    <circle id="Ellipse_14-46" data-name="Ellipse 14" cx="2" cy="2" r="2" transform="translate(6248 1206)" fill="rgba(199,199,199,0.55)"/>
    <circle id="Ellipse_14-47" data-name="Ellipse 14" cx="2" cy="2" r="2" transform="translate(6268 1206)" fill="rgba(199,199,199,0.55)"/>
    <circle id="Ellipse_14-48" data-name="Ellipse 14" cx="2" cy="2" r="2" transform="translate(6288 1206)" fill="rgba(199,199,199,0.55)"/>
    <circle id="Ellipse_14-49" data-name="Ellipse 14" cx="2" cy="2" r="2" transform="translate(6148 1226)" fill="rgba(199,199,199,0.55)"/>
    <circle id="Ellipse_14-50" data-name="Ellipse 14" cx="2" cy="2" r="2" transform="translate(6168 1226)" fill="rgba(199,199,199,0.55)"/>
    <circle id="Ellipse_14-51" data-name="Ellipse 14" cx="2" cy="2" r="2" transform="translate(6188 1226)" fill="rgba(199,199,199,0.55)"/>
    <circle id="Ellipse_14-52" data-name="Ellipse 14" cx="2" cy="2" r="2" transform="translate(6208 1226)" fill="rgba(199,199,199,0.55)"/>
    <circle id="Ellipse_14-53" data-name="Ellipse 14" cx="2" cy="2" r="2" transform="translate(6228 1226)" fill="rgba(199,199,199,0.55)"/>
    <circle id="Ellipse_14-54" data-name="Ellipse 14" cx="2" cy="2" r="2" transform="translate(6248 1226)" fill="rgba(199,199,199,0.55)"/>
    <circle id="Ellipse_14-55" data-name="Ellipse 14" cx="2" cy="2" r="2" transform="translate(6268 1226)" fill="rgba(199,199,199,0.55)"/>
    <circle id="Ellipse_14-56" data-name="Ellipse 14" cx="2" cy="2" r="2" transform="translate(6288 1226)" fill="rgba(199,199,199,0.55)"/>
    <circle id="Ellipse_14-57" data-name="Ellipse 14" cx="2" cy="2" r="2" transform="translate(6148 1246)" fill="rgba(199,199,199,0.55)"/>
    <circle id="Ellipse_14-58" data-name="Ellipse 14" cx="2" cy="2" r="2" transform="translate(6168 1246)" fill="rgba(199,199,199,0.55)"/>
    <circle id="Ellipse_14-59" data-name="Ellipse 14" cx="2" cy="2" r="2" transform="translate(6188 1246)" fill="rgba(199,199,199,0.55)"/>
    <circle id="Ellipse_14-60" data-name="Ellipse 14" cx="2" cy="2" r="2" transform="translate(6208 1246)" fill="rgba(199,199,199,0.55)"/>
    <circle id="Ellipse_14-61" data-name="Ellipse 14" cx="2" cy="2" r="2" transform="translate(6228 1246)" fill="rgba(199,199,199,0.55)"/>
    <circle id="Ellipse_14-62" data-name="Ellipse 14" cx="2" cy="2" r="2" transform="translate(6248 1246)" fill="rgba(199,199,199,0.55)"/>
    <circle id="Ellipse_14-63" data-name="Ellipse 14" cx="2" cy="2" r="2" transform="translate(6268 1246)" fill="rgba(199,199,199,0.55)"/>
    <circle id="Ellipse_14-64" data-name="Ellipse 14" cx="2" cy="2" r="2" transform="translate(6288 1246)" fill="rgba(199,199,199,0.55)"/>
    <circle id="Ellipse_14-65" data-name="Ellipse 14" cx="2" cy="2" r="2" transform="translate(6148 1266)" fill="rgba(199,199,199,0.55)"/>
    <circle id="Ellipse_14-66" data-name="Ellipse 14" cx="2" cy="2" r="2" transform="translate(6168 1266)" fill="rgba(199,199,199,0.55)"/>
    <circle id="Ellipse_14-67" data-name="Ellipse 14" cx="2" cy="2" r="2" transform="translate(6188 1266)" fill="rgba(199,199,199,0.55)"/>
    <circle id="Ellipse_14-68" data-name="Ellipse 14" cx="2" cy="2" r="2" transform="translate(6208 1266)" fill="rgba(199,199,199,0.55)"/>
    <circle id="Ellipse_14-69" data-name="Ellipse 14" cx="2" cy="2" r="2" transform="translate(6228 1266)" fill="rgba(199,199,199,0.55)"/>
    <circle id="Ellipse_14-70" data-name="Ellipse 14" cx="2" cy="2" r="2" transform="translate(6248 1266)" fill="rgba(199,199,199,0.55)"/>
    <circle id="Ellipse_14-71" data-name="Ellipse 14" cx="2" cy="2" r="2" transform="translate(6268 1266)" fill="rgba(199,199,199,0.55)"/>
    <circle id="Ellipse_14-72" data-name="Ellipse 14" cx="2" cy="2" r="2" transform="translate(6288 1266)" fill="rgba(199,199,199,0.55)"/>
  </g>
</svg>
