<svg xmlns="http://www.w3.org/2000/svg" width="808.321" height="500" viewBox="0 0 808.321 500">
  <g id="undraw_suburbs_8b83" transform="translate(0)">
    <path id="Path_219" data-name="Path 219" d="M52.493,553.508c5.11,9.477,15.956,13.545,15.956,13.545s2.56-11.3-2.55-20.774-15.956-13.545-15.956-13.545S47.382,544.031,52.493,553.508Z" transform="translate(-35.374 -224.107)" fill="#3f3d56"/>
    <path id="Path_220" data-name="Path 220" d="M50.278,556.052c9.226,5.551,12.779,16.576,12.779,16.576s-11.405,2.026-20.631-3.525-12.779-16.576-12.779-16.576S41.052,550.5,50.278,556.052Z" transform="translate(-29.647 -229.77)" fill="#3a6ec9"/>
    <path id="Path_221" data-name="Path 221" d="M657.606,269.373c0,75.775-45.047,102.233-100.615,102.233S456.374,345.148,456.374,269.373,556.99,97.2,556.99,97.2,657.606,193.6,657.606,269.373Z" transform="translate(-153.989 -97.199)" fill="#f2f2f2"/>
    <path id="Path_222" data-name="Path 222" d="M546.915,262.815l1.03-63.417,42.885-78.456L548.107,189.45l.463-28.515,29.556-56.762-29.434,49.216h0l.833-51.285,31.65-45.19L549.658,94.039,550.178,0l-3.271,124.491.269-5.135L515,70.1l31.662,59.113-3,57.277-.089-1.52-37.1-51.832,36.983,57.2-.375,7.163-.067.108.031.588-7.607,145.316H545.6l1.22-75.059,36.893-57.063Z" transform="translate(-147.58)" fill="#3f3d56"/>
    <path id="Path_223" data-name="Path 223" d="M1054.6,269.373c0,75.775-45.047,102.233-100.615,102.233S853.374,345.148,853.374,269.373,953.99,97.2,953.99,97.2,1054.6,193.6,1054.6,269.373Z" transform="translate(-269.669 -97.199)" fill="#f2f2f2"/>
    <path id="Path_224" data-name="Path 224" d="M943.915,262.815l1.03-63.417,42.887-78.456L945.107,189.45l.464-28.515,29.556-56.762-29.434,49.216h0l.833-51.285,31.647-45.19L946.658,94.039,947.178,0l-3.271,124.491.269-5.135L912,70.1l31.662,59.113-3,57.277-.089-1.52-37.1-51.832,36.983,57.2-.375,7.163-.067.108.031.588-7.607,145.316H942.6l1.219-75.059,36.894-57.063Z" transform="translate(-263.259)" fill="#3f3d56"/>
    <circle id="Ellipse_8" data-name="Ellipse 8" cx="38.489" cy="38.489" r="38.489" transform="translate(38.904 156.006)" fill="#ff6584"/>
    <path id="Path_225" data-name="Path 225" d="M37.98,354.177l-5.65-9.417,52.732-45.2h135.6v13.183l-48.966,52.732-56.5,11.3Z" transform="translate(-9.42 -87.288)" fill="#3f3d56"/>
    <path id="Path_226" data-name="Path 226" d="M295.889,324.877V295.411H278.136V304.7l-5.589-6.351-45.2,45.2-7.533,7.533L210.4,388.75l16.949,41.433H313.98V345.434Z" transform="translate(-61.307 -86.078)" fill="#ccc"/>
    <rect id="Rectangle_7" data-name="Rectangle 7" width="143.132" height="86.632" transform="translate(22.909 257.472)" fill="#f2f2f2"/>
    <rect id="Rectangle_8" data-name="Rectangle 8" width="30.133" height="26.366" transform="translate(116.133 284.781)" fill="#3f3d56"/>
    <rect id="Rectangle_9" data-name="Rectangle 9" width="26.366" height="60.266" transform="translate(77.525 283.839)" fill="#ccc"/>
    <path id="Path_227" data-name="Path 227" d="M62.234,409.971v-9.416h-11.3v9.416h11.3Z" transform="translate(-14.841 -116.716)" fill="#3f3d56"/>
    <path id="Path_228" data-name="Path 228" d="M61.292,424.474H50.934v9.417h11.3v-9.417Z" transform="translate(-14.841 -123.685)" fill="#3f3d56"/>
    <rect id="Rectangle_10" data-name="Rectangle 10" width="11.3" height="9.417" transform="translate(54.926 283.839)" fill="#3f3d56"/>
    <rect id="Rectangle_11" data-name="Rectangle 11" width="11.3" height="9.417" transform="translate(54.926 300.789)" fill="#3f3d56"/>
    <path id="Path_229" data-name="Path 229" d="M286.812,411.3v-9.416h-11.3V411.3h11.3Z" transform="translate(-80.28 -117.103)" fill="#3f3d56"/>
    <path id="Path_230" data-name="Path 230" d="M285.871,425.8H275.512v9.417h11.3V425.8Z" transform="translate(-80.28 -124.073)" fill="#3f3d56"/>
    <rect id="Rectangle_12" data-name="Rectangle 12" width="11.3" height="9.417" transform="translate(214.065 284.781)" fill="#3f3d56"/>
    <rect id="Rectangle_13" data-name="Rectangle 13" width="11.3" height="9.417" transform="translate(214.065 301.73)" fill="#3f3d56"/>
    <path id="Path_231" data-name="Path 231" d="M421.489,354.1l-5.65-9.416,52.733-45.2h135.6v13.183L555.2,365.4l-56.5,11.3Z" transform="translate(-121.169 -87.266)" fill="#3f3d56"/>
    <path id="Path_232" data-name="Path 232" d="M679.4,324.8V295.338H661.645v9.291l-5.589-6.351-45.2,45.2-7.533,7.533-9.417,37.666,16.95,41.433h86.632V345.361Z" transform="translate(-173.056 -86.057)" fill="#ccc"/>
    <rect id="Rectangle_14" data-name="Rectangle 14" width="143.132" height="86.632" transform="translate(294.67 257.421)" fill="#f2f2f2"/>
    <rect id="Rectangle_15" data-name="Rectangle 15" width="30.133" height="26.366" transform="translate(387.894 284.729)" fill="#3f3d56"/>
    <rect id="Rectangle_16" data-name="Rectangle 16" width="26.366" height="60.266" transform="translate(349.285 283.787)" fill="#ccc"/>
    <path id="Path_233" data-name="Path 233" d="M445.743,409.9v-9.416h-11.3V409.9h11.3Z" transform="translate(-126.59 -116.695)" fill="#3f3d56"/>
    <path id="Path_234" data-name="Path 234" d="M444.8,424.4H434.443v9.417h11.3V424.4Z" transform="translate(-126.59 -123.664)" fill="#3f3d56"/>
    <rect id="Rectangle_17" data-name="Rectangle 17" width="11.3" height="9.417" transform="translate(326.686 283.787)" fill="#3f3d56"/>
    <rect id="Rectangle_18" data-name="Rectangle 18" width="11.3" height="9.417" transform="translate(326.686 300.737)" fill="#3f3d56"/>
    <path id="Path_235" data-name="Path 235" d="M670.322,411.227v-9.416h-11.3v9.416h11.3Z" transform="translate(-192.029 -117.082)" fill="#3f3d56"/>
    <path id="Path_236" data-name="Path 236" d="M669.38,425.73H659.022v9.417h11.3V425.73Z" transform="translate(-192.029 -124.051)" fill="#3f3d56"/>
    <rect id="Rectangle_19" data-name="Rectangle 19" width="11.3" height="9.417" transform="translate(485.826 284.729)" fill="#3f3d56"/>
    <rect id="Rectangle_20" data-name="Rectangle 20" width="11.3" height="9.417" transform="translate(485.826 301.679)" fill="#3f3d56"/>
    <path id="Path_237" data-name="Path 237" d="M793.489,354.1l-5.65-9.416,52.733-45.2h135.6v13.183L927.2,365.4l-56.5,11.3Z" transform="translate(-229.565 -87.266)" fill="#3f3d56"/>
    <path id="Path_238" data-name="Path 238" d="M1051.4,324.8V295.338h-17.751v9.291l-5.591-6.351-45.2,45.2-7.533,7.533-9.417,37.666,16.95,41.433h86.63V345.361Z" transform="translate(-281.451 -86.057)" fill="#ccc"/>
    <rect id="Rectangle_21" data-name="Rectangle 21" width="143.132" height="86.632" transform="translate(558.274 257.421)" fill="#f2f2f2"/>
    <rect id="Rectangle_22" data-name="Rectangle 22" width="30.133" height="26.366" transform="translate(651.498 284.729)" fill="#3f3d56"/>
    <rect id="Rectangle_23" data-name="Rectangle 23" width="26.366" height="60.266" transform="translate(612.89 283.787)" fill="#ccc"/>
    <path id="Path_239" data-name="Path 239" d="M817.743,409.9v-9.416h-11.3V409.9h11.3Z" transform="translate(-234.986 -116.695)" fill="#3f3d56"/>
    <path id="Path_240" data-name="Path 240" d="M816.8,424.4H806.443v9.417h11.3V424.4Z" transform="translate(-234.986 -123.664)" fill="#3f3d56"/>
    <rect id="Rectangle_24" data-name="Rectangle 24" width="11.3" height="9.417" transform="translate(590.291 283.787)" fill="#3f3d56"/>
    <rect id="Rectangle_25" data-name="Rectangle 25" width="11.3" height="9.417" transform="translate(590.291 300.737)" fill="#3f3d56"/>
    <path id="Path_241" data-name="Path 241" d="M1042.322,411.227v-9.416h-11.3v9.416h11.3Z" transform="translate(-300.424 -117.082)" fill="#3f3d56"/>
    <path id="Path_242" data-name="Path 242" d="M1041.38,425.73h-10.36v9.417h11.3V425.73Z" transform="translate(-300.424 -124.051)" fill="#3f3d56"/>
    <rect id="Rectangle_26" data-name="Rectangle 26" width="11.3" height="9.417" transform="translate(749.431 284.729)" fill="#3f3d56"/>
    <rect id="Rectangle_27" data-name="Rectangle 27" width="11.3" height="9.417" transform="translate(749.431 301.679)" fill="#3f3d56"/>
    <rect id="Rectangle_28" data-name="Rectangle 28" width="1.417" height="55.981" transform="translate(537.897 288.121)" fill="#3f3d56"/>
    <path id="Path_243" data-name="Path 243" d="M797.8,499.316c.09,19.575-13.682,35.507-13.682,35.507s-13.918-15.8-14.009-35.38,13.682-35.507,13.682-35.507S797.71,479.741,797.8,499.316Z" transform="translate(-245.407 -204.061)" fill="#3a6ec9"/>
    <rect id="Rectangle_29" data-name="Rectangle 29" width="1.417" height="55.981" transform="translate(279.961 286.703)" fill="#3f3d56"/>
    <path id="Path_244" data-name="Path 244" d="M433.8,497.316c.09,19.575-13.682,35.507-13.682,35.507s-13.918-15.8-14.009-35.38,13.682-35.507,13.682-35.507S433.71,477.741,433.8,497.316Z" transform="translate(-139.343 -203.478)" fill="#3a6ec9"/>
    <path id="Path_245" data-name="Path 245" d="M433.8,497.316c.09,19.575-13.682,35.507-13.682,35.507s-13.918-15.8-14.009-35.38,13.682-35.507,13.682-35.507S433.71,477.741,433.8,497.316Z" transform="translate(-139.343 -203.478)" opacity="0.1"/>
    <rect id="Rectangle_30" data-name="Rectangle 30" width="1.417" height="55.981" transform="translate(261.537 286.703)" fill="#3f3d56"/>
    <path id="Path_246" data-name="Path 246" d="M407.8,497.316c.09,19.575-13.682,35.507-13.682,35.507s-13.918-15.8-14.009-35.38,13.682-35.507,13.682-35.507S407.71,477.741,407.8,497.316Z" transform="translate(-131.767 -203.478)" fill="#3a6ec9"/>
    <rect id="Rectangle_31" data-name="Rectangle 31" width="805.695" height="1.417" transform="translate(2.626 342.688)" fill="#3f3d56"/>
    <path id="Path_247" data-name="Path 247" d="M290.34,520.57s.726.832-.518,2.441-.239,5.1,2.123,5.191,3.509,1.079,2.939,2.382-1.254,4.4,1.319,3.93,3.387.553,2.931,1.341,1.147-1.566,1.147-1.566,1.434,2.136,3.194.641,2.46-15.051-1.128-15.281S290.34,520.57,290.34,520.57Z" transform="translate(-105.302 -220.286)" fill="#2f2e41"/>
    <path id="Path_248" data-name="Path 248" d="M286.8,514.4l.817,5.724h3.68l-1.227-6.541Z" transform="translate(-83.568 -149.65)" fill="#ffb8b8"/>
    <path id="Path_249" data-name="Path 249" d="M319.111,615.107s4.906,4.5,3.679,4.906-5.723,5.315-6.541,5.724c-.731.366-8.585,2.862-7.359,0a10.752,10.752,0,0,1,4.088-4.5l.818-4.906Z" transform="translate(-110.977 -248.11)" fill="#f2f2f2"/>
    <path id="Path_250" data-name="Path 250" d="M319.111,615.107s4.906,4.5,3.679,4.906-5.723,5.315-6.541,5.724c-.731.366-8.585,2.862-7.359,0a10.752,10.752,0,0,1,4.088-4.5l.818-4.906Z" transform="translate(-110.977 -248.11)" opacity="0.1"/>
    <path id="Path_251" data-name="Path 251" d="M293.72,508.342l.818,5.724h3.679l-1.227-6.541Z" transform="translate(-85.586 -147.885)" fill="#ffb8b8"/>
    <path id="Path_252" data-name="Path 252" d="M301.671,572.646l5.358-17.717s-8.994-8.176-2.862-10.629,7.767,9.812,7.767,9.812l-2.044,21.259h-8.176Z" transform="translate(-108.911 -227.383)" fill="#ffb8b8"/>
    <path id="Path_253" data-name="Path 253" d="M315.574,566.069s-10.566,13.552-8.962,15.566,4.465,14.278,4.465,14.278-.409,4.906,1.226,4.906,5.723-.818,5.723-2.044-3.679-16.762-3.679-16.762l10.629-13.9Z" transform="translate(-110.302 -233.821)" fill="#3a6ec9"/>
    <path id="Path_254" data-name="Path 254" d="M318.189,564.868l10.629-5.723s7.359,3.679,5.315,6.95-11.447,11.856-11.447,11.856,2.862,13.9,2.453,14.309-4.906,2.044-6.132,1.635-7.768-16.353-6.132-17.171,6.95-9.4,6.95-9.4Z" transform="translate(-112.099 -231.803)" fill="#3a6ec9"/>
    <path id="Path_255" data-name="Path 255" d="M276.155,787.451s7.359,4.5,8.176,4.5,11.856,2.862,6.95,4.906-23.712-.818-23.3-2.044,0-8.585.818-8.585S276.155,787.451,276.155,787.451Z" transform="translate(-99.091 -297.971)" fill="#2f2e41"/>
    <path id="Path_256" data-name="Path 256" d="M287.694,786.528s7.359,4.5,8.176,4.5,11.856,2.862,6.95,4.906-23.712-.818-23.3-2.044,0-8.585.818-8.585S287.694,786.528,287.694,786.528Z" transform="translate(-102.454 -297.702)" fill="#2f2e41"/>
    <path id="Path_257" data-name="Path 257" d="M275.9,666.723s1.935,11.093,3.979,15.59-.409,25.756-1.635,29.026-13.082,42.108-9.4,42.517a93.221,93.221,0,0,0,11.038,0l11.856-37.2L289.7,666.778Z" transform="translate(-99.14 -263.15)" fill="#575a88"/>
    <path id="Path_258" data-name="Path 258" d="M275.9,666.723s1.935,11.093,3.979,15.59-.409,25.756-1.635,29.026-13.082,42.108-9.4,42.517a93.221,93.221,0,0,0,11.038,0l11.856-37.2L289.7,666.778Z" transform="translate(-99.14 -263.15)" opacity="0.1"/>
    <path id="Path_259" data-name="Path 259" d="M281.156,662.576s1.635,11.038,5.315,13.491,2.453,4.906,2.453,4.906l-1.635,21.668s-15.944,39.247-11.038,44.152,9.4,2.862,11.447,2.453,5.723-8.994,3.679-11.447,4.088-17.17,5.723-19.623,0-5.724,2.044-6.541,6.541-6.132,6.541-9.812,5.723-42.926,2.044-45.379-27.264,5.063-27.264,5.063Z" transform="translate(-101.23 -260.011)" fill="#575a88"/>
    <circle id="Ellipse_9" data-name="Ellipse 9" cx="8.994" cy="8.994" r="8.994" transform="translate(163.164 327.342)" fill="#ffb8b8"/>
    <circle id="Ellipse_10" data-name="Ellipse 10" cx="7.359" cy="7.359" r="7.359" transform="translate(185.24 296.272)" fill="#ffb8b8"/>
    <path id="Path_260" data-name="Path 260" d="M278.2,571.838s4.906,8.994,7.359,8.994-9.812,9.4-9.812,9.4-4.088-11.856-4.906-12.265S278.2,571.838,278.2,571.838Z" transform="translate(-99.911 -235.502)" fill="#ffb8b8"/>
    <path id="Path_261" data-name="Path 261" d="M278.159,582.367s-10.629,3.679-10.22,4.906-2.862,4.088-2.862,5.315-.818,12.265,4.088,21.259,12.673,15.535,8.994,19.623-9.4,11.038-3.271,11.038,15.944-8.994,24.938-5.723,6.95-8.994,6.95-8.994,1.226-9.4-1.226-12.265-11.038-23.3-11.038-25.756-8.177-11.855-10.22-11.855S278.159,582.367,278.159,582.367Z" transform="translate(-98.233 -237.855)" fill="#8985a8"/>
    <path id="Path_262" data-name="Path 262" d="M301.443,532.03" transform="translate(-108.844 -223.902)" fill="none" stroke="#2f2e41" stroke-miterlimit="10" stroke-width="1"/>
    <path id="Path_263" data-name="Path 263" d="M304.328,530.181s3.329,6.329,3.5,7.457,5.9-7.457,5.9-7.457l-6.541-4.5Z" transform="translate(-109.685 -222.053)" fill="#ffb8b8"/>
    <path id="Path_264" data-name="Path 264" d="M305.685,535.927l6.95-7.359,8.176,3.679s7.626,16.762,8.105,17.988-12.194,6.95-13.42,6.95-9.812-12.673-9.812-12.673S303.641,538.38,305.685,535.927Z" transform="translate(-109.816 -222.894)" fill="#f2f2f2"/>
    <path id="Path_265" data-name="Path 265" d="M271.8,455.6v7.359H276.7l-1.614-7.359Z" transform="translate(-79.197 -132.755)" fill="#ffb8b8"/>
    <path id="Path_266" data-name="Path 266" d="M304.149,560.588a3.049,3.049,0,0,0-2.88,1.936c-.32.864-.211,1.773,1.307,2.152,3.271.818,3.679,0,3.679,0s5.677-.818,4.474-2.453-4.474-1.635-4.474-1.635Z" transform="translate(-108.751 -232.224)" fill="#ffb8b8"/>
    <path id="Path_267" data-name="Path 267" d="M326.034,610.492s4.906,4.5,3.679,4.906-5.723,5.315-6.541,5.724c-.731.366-8.585,2.862-7.359,0a10.752,10.752,0,0,1,4.088-4.5l.818-4.906Z" transform="translate(-112.994 -246.765)" fill="#f2f2f2"/>
    <path id="Path_268" data-name="Path 268" d="M263.632,560.969c.563-.33,1.227-.74,1.243-1.392a1.233,1.233,0,0,0-.808-1.083,3.619,3.619,0,0,0-1.413-.19,1.838,1.838,0,0,0-.546.054c-.466.144-.734.617-1.1.937a4.6,4.6,0,0,1-1.951.781,12.774,12.774,0,0,0-3.27,1.355,1.534,1.534,0,0,0-.518.426,2.088,2.088,0,0,0-.208,1.058,10.593,10.593,0,0,1-1.545,3.838c-.621,1.244-1.029,2.793-.3,3.977a13.518,13.518,0,0,1,.809,1.148c.516,1.076-.128,2.4.245,3.535a3.092,3.092,0,0,0,.783,1.174,6.22,6.22,0,0,0,2.576,1.56c.929.286,2.082.477,2.445,1.378a7.332,7.332,0,0,0,.344,1.2,1.894,1.894,0,0,0,1.343.674,5.741,5.741,0,0,0,1.74.126,2.16,2.16,0,0,0,1.5-.8,4.387,4.387,0,0,1,.608-.9c.592-.495,1.491-.1,2.251-.235a1.647,1.647,0,0,0,1.29-1.211,2.292,2.292,0,0,1,.262-.925c.472-.6,1.714-.178,2.026-.878.2-.455-.221-.936-.631-1.22a17.948,17.948,0,0,1-2.014-1.366,2.345,2.345,0,0,1-.855-2.16c.281-1.185,1.829-1.838,1.88-3.055a2.189,2.189,0,0,0-1.033-1.724,15.9,15.9,0,0,1-1.712-1.2c-.367-.355-.643-.8-1.041-1.119a4.885,4.885,0,0,0-2.624-.74c-.492-.051-2.456-.278-2.379-1.028C261.094,562.337,263.132,561.262,263.632,560.969Z" transform="translate(-94.678 -231.556)" fill="#2f2e41"/>
    <path id="Path_269" data-name="Path 269" d="M303.836,538.376s-4.5,1.635-4.5,3.679-2.044,8.585,0,8.585,6.132-1.569,6.132-1.569Z" transform="translate(-107.967 -225.751)" fill="#f2f2f2"/>
    <path id="Path_270" data-name="Path 270" d="M303.057,566.634s11.856-4.088,12.265-4.088,6.132-3.271,5.723-4.5l-1.635-10.22s-6.541-13.491-2.044-13.491,6.95,10.629,6.95,10.629,9.812,18.4,4.5,22.485S301.422,578.9,300.2,577.673,303.057,566.634,303.057,566.634Z" transform="translate(-108.414 -224.575)" fill="#ffb8b8"/>
    <path id="Path_271" data-name="Path 271" d="M318.287,540.556l2.76,2.659-3.577,3.473s-4.906-2.044-4.5-.818,2.862,4.906,4.5,4.906,10.146-5.315,10.183-6.95-5.277-7.359-6.5-7.768S318.287,540.556,318.287,540.556Z" transform="translate(-112.197 -225.069)" fill="#ffb8b8"/>
    <path id="Path_272" data-name="Path 272" d="M313.16,536.292s6.006,5.3,6.824,5.3,2.3-7.967,2.3-7.967-4.846-3.158-6.642-2.3S313.16,536.292,313.16,536.292Z" transform="translate(-112.258 -223.655)" fill="#f2f2f2"/>
    <path id="Path_273" data-name="Path 273" d="M283.559,584.484s0-5.724,12.265-5.724h5.315l-2.453,13.491-8.176,2.453Z" transform="translate(-103.633 -237.519)" fill="#8985a8"/>
    <path id="Path_274" data-name="Path 274" d="M312.261,518.365a31.745,31.745,0,0,1-3.6-.222c-.937-2.265-2.131-4.166-3.423-4.875a12.948,12.948,0,0,0-3.44-1.887c-2.724-1.157-7.258-.435-7.524.881-5.36,2.561-4.006,7.059-4.006,7.059.833,1.76,2.7.98,4.286.183a3.132,3.132,0,0,0,2.73,2.411c2.618.1,3.887,1.195,3.256,2.639s-1.389,4.876,1.461,4.354,3.752.613,3.247,1.485,1.271-1.735,1.271-1.735,1.589,2.367,3.538.71a1.48,1.48,0,0,0,.406-.7,2.93,2.93,0,0,0,2.033.356c2.335-1.045.885-3.5.885-3.5s3.118-.478,2.113-.4-1.64-1.223.06-3.57S313.836,518.418,312.261,518.365Z" transform="translate(-105.545 -217.717)" fill="#2f2e41"/>
    <rect id="Rectangle_32" data-name="Rectangle 32" width="1.226" height="3.679" transform="matrix(0.949, 0.316, -0.316, 0.949, 189.738, 298.421)" fill="#3a6ec9"/>
    <rect id="Rectangle_33" data-name="Rectangle 33" width="203.372" height="1.417" transform="translate(74.196 498.583)" fill="#3f3d56"/>
    <rect id="Rectangle_34" data-name="Rectangle 34" width="203.372" height="1.417" transform="translate(511.412 431.973)" fill="#3f3d56"/>
    <path id="Path_275" data-name="Path 275" d="M962.834,522.8l11.428-2.23s2.787-9.477,6.132-8.362-2.23,10.592-2.23,10.592l-15.889,7.247Z" transform="translate(-301.401 -218.1)" fill="#a0616a"/>
    <path id="Path_276" data-name="Path 276" d="M860.814,540.566l-5.017,6.411s-7.247-.279-5.017,3.624,7.247,1.672,7.526.836,8.362-8.083,8.362-8.083Z" transform="translate(-268.789 -226.39)" fill="#a0616a"/>
    <path id="Path_277" data-name="Path 277" d="M894.028,529.14l4.181-2.23s17.84-1.394,24.529,3.066-28.153,5.017-28.153,5.017Z" transform="translate(-281.515 -222.35)" fill="#3a6ec9"/>
    <path id="Path_278" data-name="Path 278" d="M904.917,521.925s-2.23-5.3.836-5.854a13.762,13.762,0,0,1,5.3,0l-3.345,2.787Z" transform="translate(-284.46 -219.177)" fill="#3f3d56"/>
    <path id="Path_279" data-name="Path 279" d="M904.917,521.925s-2.23-5.3.836-5.854a13.762,13.762,0,0,1,5.3,0l-3.345,2.787Z" transform="translate(-284.46 -219.177)" opacity="0.1"/>
    <path id="Path_280" data-name="Path 280" d="M877.46,569.446l-8.083-.557,1.394,2.509s-11.15,3.345-7.526,12.822a122.493,122.493,0,0,0,9.2,18.4l3.624,6.969s7.526,1.115,7.8-1.115,0-3.345-1.394-4.46a6.827,6.827,0,0,1-2.23-4.46c0-1.115.279-2.23-.557-2.788s-1.115-1.394-1.115-3.066-3.066-7.8-3.066-7.8,9.756-.279,12.822,2.23,13.1,11.986,13.1,11.986a8.443,8.443,0,0,1,1.394,1.951c.557,1.115.557,1.672,1.672,2.23s.279,2.787,0,3.066-3.066,11.428-3.066,11.428-3.066,5.3.279,5.575,6.411.557,6.69,0a15.159,15.159,0,0,1,1.115-2.23c.836-1.394,0-4.46,0-4.46s8.083-10.313,5.575-16.725-7.8-20.906-7.8-20.906l-8.083-3.345-14.773-5.3Z" transform="translate(-272.334 -234.642)" fill="#2f2e41"/>
    <path id="Path_281" data-name="Path 281" d="M880.272,624.25s-1.672,6.411-2.23,6.69-6.69,5.575-2.509,6.411,7.247.557,8.084-.279.557-1.672,1.951-1.951,3.9-1.115,3.624-3.066-1.672-7.247-2.509-7.8S880.272,624.25,880.272,624.25Z" transform="translate(-275.703 -250.702)" fill="#2f2e41"/>
    <path id="Path_282" data-name="Path 282" d="M916.407,644.414a4.766,4.766,0,0,0-1.115,5.575c1.394,3.624,3.345,7.526,3.345,7.526s2.23,6.969,5.854,5.854a3.952,3.952,0,0,0,2.563-2.995,7.162,7.162,0,0,0-1.012-5.828l-2.108-3.163-2.23-5.854Z" transform="translate(-287.588 -256.649)" fill="#2f2e41"/>
    <path id="Path_283" data-name="Path 283" d="M904.985,528.747s-3.345-.279-3.9.557-3.066,11.986,0,13.1,12.265,3.066,13.658,1.672,1.951-13.658,1.951-13.658Z" transform="translate(-283.135 -222.933)" fill="#a0616a"/>
    <path id="Path_284" data-name="Path 284" d="M904.985,528.747s-3.345-.279-3.9.557-3.066,11.986,0,13.1,12.265,3.066,13.658,1.672,1.951-13.658,1.951-13.658Z" transform="translate(-283.135 -222.933)" opacity="0.1"/>
    <path id="Path_285" data-name="Path 285" d="M892.29,540.829s3.9,3.9,6.411,3.345,8.362-3.066,8.92-4.181,7.526-1.394,7.526-1.394L907.62,559.5l5.3,17.561s3.066-3.624-5.3-3.9-19.512-4.46-21.463-10.035c0,0-12.265-1.672-12.822-1.951s1.394-1.951,1.394-1.951l8.083-2.23,5.854-7.526Z" transform="translate(-275.456 -225.816)" fill="#f2f2f2"/>
    <path id="Path_286" data-name="Path 286" d="M893.522,528.745s1.394-1.951,0-1.951a53.711,53.711,0,0,0-6.69.279c-1.394.279-6.69-1.115-7.247.557s-.557,11.986.557,12.822,1.672.836.279,2.509-4.739,7.247-3.9,9.2-8.92,2.509-7.526,4.739a4.578,4.578,0,0,0,3.624,2.23s.557-4.46,3.9-2.23,7.8,7.8,11.428,4.181a16.344,16.344,0,0,0,5.3-11.707,39.456,39.456,0,0,0-.557-10.592C892.128,535.992,893.522,528.745,893.522,528.745Z" transform="translate(-274.18 -222.373)" fill="#3a6ec9"/>
    <path id="Path_287" data-name="Path 287" d="M922,534.466s2.23,1.951,0,6.69-8.083,15.888-3.345,23.136,6.69,9.2,5.575,10.592a5.415,5.415,0,0,0-1.115,3.066l3.066-1.115a35.077,35.077,0,0,1,1.672-6.69c1.115-2.787-2.23-11.15-2.23-11.15l1.115-10.871s4.46-6.969,5.017-7.247-1.115-12.265-1.115-12.265-2.787-.836-4.181,0S922,534.466,922,534.466Z" transform="translate(-288.167 -222.798)" fill="#3a6ec9"/>
    <path id="Path_288" data-name="Path 288" d="M879.143,528.372h-1.672l-11.428,5.854s-.836-3.624-1.394-2.787-.279,3.066-1.672,3.624-2.23,1.394,0,2.509,2.509.279,2.509,2.23,1.672,2.23,3.066,1.672,1.672-.836,3.066-.279.557,1.394,2.509.557,6.969-.557,6.969-.557Z" transform="translate(-272.066 -222.836)" fill="#3a6ec9"/>
    <path id="Path_289" data-name="Path 289" d="M933.561,528.413l1.951-.558s5.854.558,7.247.558,2.787-.279,3.624-.279,5.017-.557,5.575-1.115,3.066-1.951,3.345-1.115,3.345,6.132.557,8.641-3.345,1.394-5.017,2.509-15.052,3.345-15.331,3.066S933.561,528.413,933.561,528.413Z" transform="translate(-293.034 -222.041)" fill="#3a6ec9"/>
    <circle id="Ellipse_11" data-name="Ellipse 11" cx="8.362" cy="8.362" r="8.362" transform="translate(620.736 300.239)" fill="#a0616a"/>
    <path id="Path_290" data-name="Path 290" d="M907.7,530.6a1.583,1.583,0,0,1,.173.585,2.189,2.189,0,0,0,2.1,1.688,1.308,1.308,0,0,0,1.134,1.584,7.209,7.209,0,0,0,1.242-2.432,2.232,2.232,0,0,1,.42-.954,1.915,1.915,0,0,1,1.19-.447,62.589,62.589,0,0,1,6.707-.5,1.667,1.667,0,0,0,.882-.18c.63-.406.42-1.385.022-2.021a6.324,6.324,0,0,0-3.373-2.632,15.958,15.958,0,0,0-3.106-.515,38.277,38.277,0,0,0-4.2-.436,6.872,6.872,0,0,0-4.015,1.074c-.838.591-2.214,2.246-1.541,3.291.108.167.448.25.593.42.2.232.2.583.422.793C906.724,530.266,907.4,530.155,907.7,530.6Z" transform="translate(-284.757 -221.658)" fill="#2f2e41"/>
    <path id="Path_291" data-name="Path 291" d="M913.858,513.031s-9.477,3.345-8.641,8.083,3.345,10.313,8.641,10.035,8.083-6.044,8.083-6.044l-1.394-7.894S915.252,513.031,913.858,513.031Z" transform="translate(-284.76 -218.366)" fill="#3f3d56"/>
    <path id="Path_292" data-name="Path 292" d="M915.745,535.637s3.726-4.042,5.6-1.7C921.347,533.938,921.262,533.822,915.745,535.637Z" transform="translate(-287.843 -224.245)" fill="#2f2e41"/>
    <path id="Path_293" data-name="Path 293" d="M906.715,672.5c-5,0-11.179-1.655-17.2-7.638-14.748-14.648-28.76-16.117-28.9-16.13l.052-.555c.142.013,14.352,1.5,29.241,16.289,7.65,7.6,15.547,8.064,20.824,7.115a26.024,26.024,0,0,0,9.756-3.932l.329.45a26.605,26.605,0,0,1-9.964,4.027,23.27,23.27,0,0,1-4.134.374Z" transform="translate(-271.778 -257.744)" fill="#2f2e41"/>
    <circle id="Ellipse_12" data-name="Ellipse 12" cx="3.345" cy="3.345" r="3.345" transform="translate(593.001 395.987)" fill="#2f2e41"/>
    <circle id="Ellipse_13" data-name="Ellipse 13" cx="3.345" cy="3.345" r="3.345" transform="translate(616.694 411.597)" fill="#2f2e41"/>
  </g>
</svg>
