<svg id="house-black-silhouette-without-door" xmlns="http://www.w3.org/2000/svg" width="20" height="20" viewBox="0 0 20 20">
  <path id="Path_297" data-name="Path 297" d="M19.749,14.648a1.008,1.008,0,0,0-.078-1.41L10.733,5.16a1.087,1.087,0,0,0-1.453.017L.311,13.669a1,1,0,0,0-.043,1.408l.225.242a.958.958,0,0,0,1.346.106l.67-.62v9.077a.992.992,0,0,0,.976,1.008h3.5a.992.992,0,0,0,.976-1.008v-6.35h4.459v6.35a.94.94,0,0,0,.917,1.007h3.7a.992.992,0,0,0,.976-1.008V14.933l.414.375c.228.207.707.041,1.069-.371Z" transform="translate(0 -4.89)" fill="#3a6ec9"/>
</svg>
