<svg xmlns="http://www.w3.org/2000/svg" width="200" height="679" viewBox="0 0 200 679">
  <g id="Group_1" data-name="Group 1" transform="translate(-658 -121.331)">
    <g id="Group_30" data-name="Group 30" transform="translate(360.136 -1673.668)">
      <g id="house_1_" data-name="house (1)" transform="translate(387 1773.539)">
        <path id="Path_312" data-name="Path 312" d="M64.307,62.542a3.95,3.95,0,0,0-2.541-1.828,3.767,3.767,0,0,0-3.007.657l-8.295,6.058L50.44,48.57l2.882,2.945a3.137,3.137,0,0,0,2.251.971h0a3.183,3.183,0,0,0,2.4-1.137,3.83,3.83,0,0,0-.152-5.081l-5.463-5.581a.874.874,0,0,0-1.311.047,1.079,1.079,0,0,0,.043,1.432l5.463,5.581a1.672,1.672,0,0,1,.066,2.218,1.371,1.371,0,0,1-1.047.5h0a1.369,1.369,0,0,1-.982-.423l-4.447-4.546h0L32.9,27.856a.872.872,0,0,0-1.271,0l-17.2,17.688h0L9.992,50.1a1.354,1.354,0,0,1-2.033-.067A1.672,1.672,0,0,1,8.02,47.82L31.272,23.911a1.353,1.353,0,0,1,1.969,0l13.6,13.9a.874.874,0,0,0,1.311-.047,1.079,1.079,0,0,0-.043-1.432L34.509,22.43a3.1,3.1,0,0,0-4.51.007l-7.441,7.654V28.726a1.677,1.677,0,0,0-.434-1.138,1.407,1.407,0,0,0-1.042-.47h0l-5.325.008a1.407,1.407,0,0,0-1.043.474,1.679,1.679,0,0,0-.43,1.14l.014,9.85L6.744,46.348a3.83,3.83,0,0,0-.139,5.083,3.157,3.157,0,0,0,2.3,1.128h.1a3.127,3.127,0,0,0,2.256-.978l2.875-2.96.011,8.908a17.946,17.946,0,0,0-2.817-.226H9.743v-.6A3.558,3.558,0,0,0,6.356,53H3.387A3.557,3.557,0,0,0,0,56.7V72.567a1.032,1.032,0,0,0,.266.712.917.917,0,0,0,.662.3.917.917,0,0,0,.662-.3,1.032,1.032,0,0,0,.266-.712V56.7a1.609,1.609,0,0,1,1.531-1.672H6.356A1.608,1.608,0,0,1,7.891,56.7V80.679A1.609,1.609,0,0,1,6.36,82.351H3.387a1.609,1.609,0,0,1-1.531-1.672V78.9a1.032,1.032,0,0,0-.266-.712.916.916,0,0,0-.662-.3.917.917,0,0,0-.664.3A1.033,1.033,0,0,0,0,78.907v1.776a3.558,3.558,0,0,0,3.387,3.7H6.356a3.558,3.558,0,0,0,3.387-3.7v-.138l13.587,5.615a.744.744,0,0,0,.08.027,5.977,5.977,0,0,0,1.764.273,5.518,5.518,0,0,0,.939-.085l19.96-3.14h.014a9.4,9.4,0,0,0,4.631-2.265l.034-.032,12.9-12.665A4.677,4.677,0,0,0,64.307,62.542ZM20.7,29.143V32l-4.559,4.688-.011-7.534ZM16,57.925l-.014-11.207L32.263,29.985,48.581,46.669l.029,22.114L45.98,70.7,43.2,70.532l-.073-.807a6.234,6.234,0,0,0-4.72-5.67L38.387,50.9a1.763,1.763,0,0,0-1.679-1.83h0l-8.843.014a1.6,1.6,0,0,0-1.187.539,1.908,1.908,0,0,0-.49,1.3L26.2,62.388a16.8,16.8,0,0,1-4.987-2.157q-.293-.187-.591-.362c-.08-.046-.159-.085-.234-.133-.121-.069-.239-.138-.363-.2-.1-.052-.2-.1-.293-.153s-.208-.108-.312-.161-.214-.1-.319-.154-.2-.093-.295-.137l-.332-.145c-.1-.042-.2-.085-.3-.124s-.221-.085-.332-.131-.208-.079-.312-.118l-.319-.113c-.106-.037-.228-.077-.343-.113-.1-.031-.2-.063-.3-.093q-.194-.058-.389-.112C16.125,57.96,16.065,57.943,16,57.925Zm12.043-6.817,8.49-.015L36.552,63.8l-7.76-.975-.731-.092ZM62.419,66.764,49.532,79.415A7.616,7.616,0,0,1,45.8,81.233l-19.959,3.14h-.026a4.066,4.066,0,0,1-1.872-.13L9.743,78.376V59.331h1.588a16.3,16.3,0,0,1,4,.5l.146.038c.159.042.319.085.478.133l.041.013q.239.072.478.151l.085.028q.253.085.5.178l.052.019q.522.2,1.036.43l.056.025q.254.117.506.242l.014.007q.239.122.483.254l.057.03q.234.128.465.264l.087.052q.233.139.463.284a18.436,18.436,0,0,0,7.144,2.714h.024L37.844,66q.086.014.171.031a4.184,4.184,0,0,1,3.141,3.159,4.819,4.819,0,0,1,.125.737l.041.453L21.84,68.514a.9.9,0,0,0-.683.238,1.015,1.015,0,0,0-.322.682.991.991,0,0,0,.843,1.1l20.6,1.97H42.3l3.884.238h.052a.241.241,0,0,0,.055,0,.267.267,0,0,0,.062-.005c.021-.005.055-.01.08-.017s.039-.008.058-.014a.859.859,0,0,0,.087-.035c.015-.007.032-.012.047-.019a.9.9,0,0,0,.126-.076l3.3-2.409h0l9.737-7.113a2.023,2.023,0,0,1,1.616-.354,2.121,2.121,0,0,1,1.366.982,2.514,2.514,0,0,1-.357,3.083Z" transform="translate(-21.337)" fill="#3a6ec9"/>
      </g>
      <text id="Who_we_are" data-name="Who we are" transform="translate(326 1890)" fill="#424b5a" font-size="30" font-family="SourceSansPro-Regular, Source Sans Pro"><tspan x="0" y="0">Who we are</tspan></text>
      <g id="Group" transform="translate(0 -36)">
        <text id="Rentiers_dedicate_their_time" data-name="Rentiers dedicate their time" transform="translate(311.51 1949)" fill="#707070" font-size="15" font-family="SourceSansPro-Regular, Source Sans Pro"><tspan x="0" y="0">Rentiers dedicate their time</tspan></text>
        <text id="to_find_a_better_home_for_you." data-name="to find a better home for you." transform="translate(307.145 1968)" fill="#707070" font-size="15" font-family="SourceSansPro-Regular, Source Sans Pro"><tspan x="0" y="0">to find a better home for you.</tspan></text>
        <text id="That_means_you_can_get_the" data-name="That means you can get the" transform="translate(312.297 1987)" fill="#707070" font-size="15" font-family="SourceSansPro-Regular, Source Sans Pro"><tspan x="0" y="0">That means you can get the</tspan></text>
        <text id="most_up_to_date_listings_" data-name="most up to date listings, " transform="translate(321.942 2006)" fill="#707070" font-size="15" font-family="SourceSansPro-Regular, Source Sans Pro"><tspan x="0" y="0">most up to date listings,</tspan></text>
        <text id="_24_hours_a_day_" data-name="24 hours a day, " transform="translate(349.775 2025)" fill="#707070" font-size="15" font-family="SourceSansPro-Regular, Source Sans Pro"><tspan x="0" y="0">24 hours a day,</tspan></text>
        <text id="_365_days_a_year." data-name="365 days a year." transform="translate(349.04 2044)" fill="#707070" font-size="15" font-family="SourceSansPro-Regular, Source Sans Pro"><tspan x="0" y="0">365 days a year.</tspan></text>
      </g>
    </g>
    <g id="Group_4" data-name="Group 4" transform="translate(-241.682 -633.771)">
      <text id="What_we_do" data-name="What we do" transform="translate(926.818 1081.102)" fill="#424b5a" font-size="30" font-family="SourceSansPro-Regular, Source Sans Pro"><tspan x="0" y="0">What we do</tspan></text>
      <g id="house_2_" data-name="house (2)" transform="translate(966.816 986.101)">
        <path id="Path_317" data-name="Path 317" d="M349,342.8v4.035h-5V342.8a16.344,16.344,0,0,0,5,0Zm0,0" transform="translate(-297.92 -296.773)" fill="#3a6ec9"/>
        <path id="Path_319" data-name="Path 319" d="M280,172.817a12.672,12.672,0,0,0,12.5,12.809v-2.562a10.25,10.25,0,0,1,0-20.5V160A12.671,12.671,0,0,0,280,172.817Zm0,0" transform="translate(-243.243 -140.267)" fill="#3a6ec9"/>
        <path id="Path_320" data-name="Path 320" d="M64.537,21.9,33.118.194a1.076,1.076,0,0,0-1.229,0L.47,21.9a1.085,1.085,0,0,0,.615,1.978H5.419V57.511A1.084,1.084,0,0,0,6.5,58.6H44.42v2.17a4.335,4.335,0,0,0,8.667,0V58.6H58.5a1.084,1.084,0,0,0,1.083-1.085V43.165a15.145,15.145,0,0,0,1.6-19.292H63.92a1.085,1.085,0,0,0,.614-1.978ZM32.5,2.405,60.443,21.7H59.349a15.1,15.1,0,0,0-10.595-4.338c-.291,0-.576.027-.867.043L33.094,7.772a1.082,1.082,0,0,0-1.18,0L10.506,21.7H4.563ZM7.585,23.874h3.249a1.085,1.085,0,0,0,.59-.174L32.5,9.976l12.211,7.951A15.2,15.2,0,0,0,33.642,31.469H22.753a1.084,1.084,0,0,0-1.085,1.085V56.425H7.585Zm16.25,32.552V33.639h9.808A15.193,15.193,0,0,0,41.169,45.69V56.425Zm19.5,0v-9.7a15.073,15.073,0,0,0,2.167.658V48.83a1.084,1.084,0,0,0-1.083,1.085v6.511Zm4.334-8.734c.36.026.717.056,1.083.056s.724-.03,1.083-.056v1.141H47.669Zm3.25,13.076a2.167,2.167,0,0,1-4.334,0V51h4.334Zm2.167-4.34V49.916A1.084,1.084,0,0,0,52,48.831V47.385A15.08,15.08,0,0,0,57.419,45V56.425Zm-4.334-10.85A13.349,13.349,0,0,1,36.21,37.76a12.806,12.806,0,0,1,2.679-14.3,13.549,13.549,0,0,1,14.562-2.967,12.976,12.976,0,0,1-4.7,25.081Zm0,0" transform="translate(0 0)" fill="#3a6ec9"/>
        <path id="Path_321" data-name="Path 321" d="M192,296.008h2.5v7.686H192Zm0,0" transform="translate(-166.131 -256.665)" fill="#3a6ec9"/>
      </g>
      <g id="Group_3" data-name="Group 3" transform="translate(-7 -34)">
        <text id="Our_up_to_date_database_lets" data-name="Our up to date database lets" transform="translate(917.864 1138.102)" fill="#707070" font-size="15" font-family="SourceSansPro-Regular, Source Sans Pro"><tspan x="0" y="0">Our up to date database lets</tspan></text>
        <text id="you_search_for_your_dream" data-name="you search for your dream" transform="translate(924.344 1157.102)" fill="#707070" font-size="15" font-family="SourceSansPro-Regular, Source Sans Pro"><tspan x="0" y="0">you search for your dream</tspan></text>
        <text id="home_or_find_the_value_of_your" data-name="home or find the value of your" transform="translate(912.908 1176.102)" fill="#707070" font-size="15" font-family="SourceSansPro-Regular, Source Sans Pro"><tspan x="0" y="0">home or find the value of your</tspan></text>
        <text id="current_home._Then_we_will" data-name="current home. Then we will" transform="translate(918.338 1195.102)" fill="#707070" font-size="15" font-family="SourceSansPro-Regular, Source Sans Pro"><tspan x="0" y="0">current home. Then we will</tspan></text>
        <text id="contact_you_in_minutes_to" data-name="contact you in minutes to" transform="translate(924.188 1214.102)" fill="#707070" font-size="15" font-family="SourceSansPro-Regular, Source Sans Pro"><tspan x="0" y="0">contact you in minutes to</tspan></text>
        <text id="make_your_dream_a_reality." data-name="make your dream a reality." transform="translate(919.978 1233.102)" fill="#707070" font-size="15" font-family="SourceSansPro-Regular, Source Sans Pro"><tspan x="0" y="0">make your dream a reality.</tspan></text>
      </g>
    </g>
    <g id="Group_2" data-name="Group 2" transform="translate(-247.682 -780.771)">
      <text id="Why_choose_us" data-name="Why choose us" transform="translate(954.818 1459.102)" fill="#424b5a" font-size="30" font-family="SourceSansPro-Regular, Source Sans Pro"><tspan x="0" y="0">Why us</tspan></text>
      <g id="handshake" transform="translate(966.351 1364.101)">
        <g id="Group_27" data-name="Group 27" transform="translate(27.521 29.816)">
          <g id="Group_26" data-name="Group 26">
            <path id="Path_322" data-name="Path 322" d="M268.366,248.146l-13.6-6.412a1.809,1.809,0,0,0-.549-.154l-4.259-.58a1.5,1.5,0,0,0-1.7.913c-.139.6.4,1.2,1.19,1.3l4.018.544,13.364,6.3a1.8,1.8,0,0,0,1.98-.325,1,1,0,0,0-.444-1.586Z" transform="translate(-248.236 -240.968)" fill="#3a6ec9"/>
          </g>
        </g>
        <g id="Group_29" data-name="Group 29" transform="translate(0.466 0.003)">
          <g id="Group_28" data-name="Group 28" transform="translate(0)">
            <path id="Path_323" data-name="Path 323" d="M65.209,36.956a.957.957,0,0,0-1.346-.048L60,40.516,42.271,23.063,65.162,1.648a.868.868,0,0,0,.3-.657A.91.91,0,0,0,65.208.3.956.956,0,0,0,63.862.258L40.242,22.351a.889.889,0,0,0-.3.68.9.9,0,0,0,.28.693l1.568,1.543-.5.441-10.477-.9a.959.959,0,0,0-.477.085l-8.3,3.772c-.024-.006-.048-.013-.073-.017l-4.775-.841.386-.985a.952.952,0,0,0-.534-1.231L1.775,19.495a.952.952,0,1,0-.708,1.768l14.385,5.744L6.974,48.627,1.739,46.779A.952.952,0,1,0,1.1,48.573l6.105,2.158a.958.958,0,0,0,1.207-.551l1.417-3.614,3.712,2.076-.409.662a4,4,0,0,0,4.646,5.9,4,4,0,0,0,1.856,2.806,4.037,4.037,0,0,0,3.34.4,4,4,0,0,0,5.2,3.2,3.994,3.994,0,0,0,1.856,2.8,4,4,0,0,0,5.514-1.3l.65-1.053.536.329a4,4,0,0,0,5.511-1.309,3.962,3.962,0,0,0,.585-2.333,3.963,3.963,0,0,0,.926.112,4.021,4.021,0,0,0,3.421-1.907,3.96,3.96,0,0,0,.585-2.333,3.965,3.965,0,0,0,.924.112A4.024,4.024,0,0,0,52.1,52.815a3.959,3.959,0,0,0,.585-2.335,4,4,0,0,0,3.028-7.291l-.654-.4,2.192-2.283L59.3,42.525a.965.965,0,0,0,1.321.018l4.537-4.228a.865.865,0,0,0,.307-.66.909.909,0,0,0-.26-.693ZM18.331,52.507a2.1,2.1,0,0,1-3.573-2.2L20.1,41.663a2.107,2.107,0,0,1,2.853-.7,1.758,1.758,0,0,1,.929,1.25,2.361,2.361,0,0,1-.246,1.709Zm5.2,3.2a2.1,2.1,0,0,1-3.572-2.2l4.274-6.915a2.107,2.107,0,0,1,2.853-.7,1.758,1.758,0,0,1,.929,1.25,2.361,2.361,0,0,1-.246,1.709Zm5.2,3.2a2.1,2.1,0,0,1-2.886.685,2.11,2.11,0,0,1-.684-2.883l3.206-5.187a2.107,2.107,0,0,1,2.853-.7,1.758,1.758,0,0,1,.929,1.25,2.361,2.361,0,0,1-.246,1.709Zm7.3-.2-2.1,3.4a2.1,2.1,0,0,1-3.572-2.2l2.137-3.458a2.107,2.107,0,0,1,2.853-.7A1.759,1.759,0,0,1,36.266,57a2.361,2.361,0,0,1-.246,1.709ZM53.4,41.761l-4.729-2.9a.969.969,0,0,0-1.312.313,1.057,1.057,0,0,0-.1.759.781.781,0,0,0,.414.551L54.715,44.8a2.1,2.1,0,1,1-2.2,3.57L44.961,43.74a.953.953,0,0,0-1.312.313,1.043,1.043,0,0,0-.106.761.768.768,0,0,0,.419.549l5.823,3.571a2.1,2.1,0,1,1-2.2,3.57l-5.277-3.236A.953.953,0,0,0,41,49.581a1.043,1.043,0,0,0-.106.761.768.768,0,0,0,.419.549l3.542,2.173a2.1,2.1,0,1,1-2.2,3.57s-3.115-1.909-3.145-1.923a.953.953,0,0,0-1.227.359,1.043,1.043,0,0,0-.106.761.768.768,0,0,0,.419.549l1.325.813a2.1,2.1,0,1,1-2.2,3.57l-.532-.326.448-.726a4.113,4.113,0,0,0,.488-3.135,3.914,3.914,0,0,0-1.824-2.468,3.976,3.976,0,0,0-2.294-.54,4.121,4.121,0,0,0-.01-1.921,3.914,3.914,0,0,0-1.824-2.468,3.975,3.975,0,0,0-2.294-.54,4.053,4.053,0,0,0-1.834-4.389,3.977,3.977,0,0,0-2.294-.54,3.993,3.993,0,0,0-7.281-3.045L14.547,47.02l-4.014-2.244,5.945-15.161,3.236.57a4,4,0,0,0,4.776,6.152L30.08,33.8a.738.738,0,0,0,.475-.479,1.125,1.125,0,0,0,0-.782.96.96,0,0,0-1.264-.472L23.7,34.6a2.1,2.1,0,1,1-1.74-3.813L30.9,26.724l10.635.917h.082a.955.955,0,0,0,.631-.238l.905-.8L55.9,39.155Z" transform="translate(-0.466 -0.003)" fill="#3a6ec9"/>
          </g>
        </g>
      </g>
      <g id="Group_1-2" data-name="Group 1" transform="translate(0 -65)">
        <text id="We_are_changing_the_future_of" data-name="We are changing the future of" transform="translate(911.308 1547.102)" fill="#707070" font-size="15" font-family="SourceSansPro-Regular, Source Sans Pro"><tspan x="0" y="0">We are changing the future of</tspan></text>
        <text id="real_estate_with_the_help_of" data-name="real estate with the help of" transform="translate(923.198 1566.102)" fill="#707070" font-size="15" font-family="SourceSansPro-Regular, Source Sans Pro"><tspan x="0" y="0">real estate with the help of</tspan></text>
        <text id="latest_communication_tools_" data-name="latest communication tools, " transform="translate(918.608 1585.102)" fill="#707070" font-size="15" font-family="SourceSansPro-Regular, Source Sans Pro"><tspan x="0" y="0">latest communication tools,</tspan></text>
        <text id="market_information_dedicated" data-name="market information &amp; dedicated" transform="translate(905.682 1604.102)" fill="#707070" font-size="15" font-family="SourceSansPro-Regular, Source Sans Pro"><tspan x="0" y="0">market information &amp; dedicated</tspan></text>
        <text id="marketers._There_is_no_better" data-name="marketers. There is no better" transform="translate(916.402 1623.102)" fill="#707070" font-size="15" font-family="SourceSansPro-Regular, Source Sans Pro"><tspan x="0" y="0">marketers. There is no better</tspan></text>
        <text id="feeling_to_hand_you_the_keys." data-name="feeling to hand you the keys." transform="translate(920.088 1642.102)" fill="#707070" font-size="15" font-family="SourceSansPro-Regular, Source Sans Pro"><tspan x="0" y="0">feeling to hand you the keys.</tspan></text>
      </g>
    </g>
  </g>
</svg>
