<svg xmlns="http://www.w3.org/2000/svg" width="80" height="80" viewBox="0 0 80 80">
  <g id="quotation-marks" transform="translate(0 -39.159)">
    <path id="Path_351" data-name="Path 351" d="M16.479,70.88c.976-7.9,8.645-16.331,14.641-16.511a1.4,1.4,0,0,0,1.115-.538,1.345,1.345,0,0,0,.7-.9c2.092-5.025.976-8.973-2.51-12.2-4.044-3.769-10.458,0-13.665,3.41C8.67,52.754.443,67.649.862,81.827A75.858,75.858,0,0,0,1.838,110a10.729,10.729,0,0,0,9.621,8.435c4.183.359,12.828,1.974,16.593-1.256s4.044-9.512,4.462-14.9c.418-5.922,1.673-17.049-2.231-21.716C26.379,76.084,15.224,80.93,16.479,70.88Z" fill="#3a6ec9"/>
    <path id="Path_352" data-name="Path 352" d="M218.439,70.88c.976-7.9,8.645-16.331,14.641-16.511a1.4,1.4,0,0,0,1.115-.538,1.345,1.345,0,0,0,.7-.9c2.092-5.025.976-8.973-2.51-12.2-4.044-3.769-10.458,0-13.665,3.41-8.087,8.614-16.314,23.51-15.9,37.688A75.863,75.863,0,0,0,203.8,110a10.729,10.729,0,0,0,9.621,8.435c4.183.359,12.828,1.974,16.593-1.256s4.044-9.512,4.462-14.9c.418-5.922,1.673-17.049-2.231-21.716C228.339,76.084,217.044,80.93,218.439,70.88Z" transform="translate(-155.946)" fill="#3a6ec9"/>
  </g>
</svg>
