<svg xmlns="http://www.w3.org/2000/svg" width="20" height="20" viewBox="0 0 20 20">
  <path id="area" d="M17.3,14.6l-1.1,1.1.853.854H13.326l5.1-5.1v2.064l1.561,1.562V2.184A2.186,2.186,0,0,0,17.806,0H4.879L6.44,1.562H8.581L3.441,6.706V2.979l.853.854,1.1-1.1L2.7.028,0,2.728l1.1,1.1.775-.776V15.936A2.186,2.186,0,0,0,4.062,18.12h12.91L16.2,18.9,17.3,20,20,17.3Zm-6.183,1.958H8.935l9.493-9.5V9.244ZM3.44,13.25,15.122,1.562h2.2L3.44,15.453ZM18.428,2.667V4.851L6.727,16.558H4.544Zm-7.639-1.1h2.124L3.44,11.041V8.915Zm0,0" transform="translate(0 0)" fill="#3a6ec9"/>
</svg>
