<svg xmlns="http://www.w3.org/2000/svg" width="20" height="20" viewBox="0 0 20 20">
  <g id="bathtub" transform="translate(1 -16.067)">
    <g id="Group_149" data-name="Group 149" transform="translate(-1 16.067)">
      <g id="Group_148" data-name="Group 148">
        <path id="Path_775" data-name="Path 775" d="M18,26.781h-.333v-7.5a3.1,3.1,0,0,0-3-3.214,2.773,2.773,0,0,0-2.655,2.89,1.738,1.738,0,0,0-1.345,1.753.327.327,0,0,0,.333.357h2.667A.327.327,0,0,0,14,20.71a1.741,1.741,0,0,0-1.319-1.748c.1-1.135.736-2.181,1.986-2.181A2.406,2.406,0,0,1,17,19.281v7.5H6.968a1.681,1.681,0,0,0-1.634-1.429A1.7,1.7,0,0,0,4,24.638a1.64,1.64,0,0,0-1.467.964,1.879,1.879,0,0,0-.867-.25A1.681,1.681,0,0,0,.032,26.781H0a1.074,1.074,0,0,0,0,2.143H.4l.9,3.821a2.388,2.388,0,0,0,2.267,1.893h.267l-.433.929a.325.325,0,0,0,.133.464.19.19,0,0,0,.133.036.346.346,0,0,0,.3-.179l.583-1.25H13.8l.567,1.214a.321.321,0,0,0,.3.214c.067,0,.1,0,.133-.071a.391.391,0,0,0,.133-.464l-.418-.895A2.4,2.4,0,0,0,16.7,32.781l.908-3.857H18a1.074,1.074,0,0,0,0-2.143Zm-4.7-6.429H11.4a1.019,1.019,0,0,1,.967-.714A.979.979,0,0,1,13.3,20.353ZM1.667,26.067a1.089,1.089,0,0,1,.8.393.29.29,0,0,0,.333.107.339.339,0,0,0,.233-.286,1.057,1.057,0,0,1,1-.929.923.923,0,0,1,.867.536.328.328,0,0,0,.367.179h.1a.979.979,0,0,1,.933.714H.733A.979.979,0,0,1,1.667,26.067Zm14.433,6.5a1.736,1.736,0,0,1-1.633,1.357H3.6a1.736,1.736,0,0,1-1.633-1.357L1.1,28.924H16.9ZM18,28.21H0a.327.327,0,0,1-.333-.357A.327.327,0,0,1,0,27.5H18a.358.358,0,0,1,0,.714Z" transform="translate(1 -16.067)" fill="#3a6ec9"/>
        <path id="Path_776" data-name="Path 776" d="M298,153.493a.327.327,0,0,0,.333-.357v-.179a.334.334,0,1,0-.667,0v.179A.327.327,0,0,0,298,153.493Z" transform="translate(-286 -146.886)" fill="#3a6ec9"/>
        <path id="Path_777" data-name="Path 777" d="M298,187.841a.347.347,0,0,0,.333-.357v-.393a.334.334,0,1,0-.667,0v.393A.327.327,0,0,0,298,187.841Z" transform="translate(-286 -179.591)" fill="#3a6ec9"/>
        <path id="Path_778" data-name="Path 778" d="M298,226.027a.327.327,0,0,0,.333-.357v-.179a.334.334,0,1,0-.667,0v.179A.327.327,0,0,0,298,226.027Z" transform="translate(-286 -216.384)" fill="#3a6ec9"/>
        <path id="Path_779" data-name="Path 779" d="M332.133,153.493a.327.327,0,0,0,.333-.357v-.179a.334.334,0,1,0-.667,0v.179A.327.327,0,0,0,332.133,153.493Z" transform="translate(-318.8 -146.886)" fill="#3a6ec9"/>
        <path id="Path_780" data-name="Path 780" d="M331.8,187.483a.327.327,0,0,0,.333.357.347.347,0,0,0,.333-.357v-.393a.334.334,0,1,0-.667,0Z" transform="translate(-318.8 -179.59)" fill="#3a6ec9"/>
        <path id="Path_781" data-name="Path 781" d="M331.8,225.669a.334.334,0,1,0,.667,0v-.179a.334.334,0,1,0-.667,0Z" transform="translate(-318.8 -216.383)" fill="#3a6ec9"/>
        <path id="Path_782" data-name="Path 782" d="M366.267,153.493a.327.327,0,0,0,.333-.357v-.179a.334.334,0,1,0-.667,0v.179A.327.327,0,0,0,366.267,153.493Z" transform="translate(-351.601 -146.886)" fill="#3a6ec9"/>
        <path id="Path_783" data-name="Path 783" d="M365.933,187.483a.327.327,0,0,0,.333.357.347.347,0,0,0,.333-.357v-.393a.334.334,0,1,0-.667,0v.393Z" transform="translate(-351.6 -179.59)" fill="#3a6ec9"/>
        <path id="Path_784" data-name="Path 784" d="M365.933,225.669a.334.334,0,1,0,.667,0v-.179a.334.334,0,1,0-.667,0Z" transform="translate(-351.6 -216.383)" fill="#3a6ec9"/>
      </g>
    </g>
  </g>
</svg>
