<svg xmlns="http://www.w3.org/2000/svg" width="20" height="20" viewBox="0 0 20 20">
  <g id="bed_1_" data-name="bed (1)" transform="translate(0 -32)">
    <g id="Group_143" data-name="Group 143" transform="translate(0 32)">
      <g id="Group_142" data-name="Group 142">
        <path id="Path_772" data-name="Path 772" d="M19.667,43.538h-.333V42.385a1.953,1.953,0,0,0-1-1.76V34.692a.391.391,0,0,0-.2-.352,1.7,1.7,0,0,0,.2-.8A1.447,1.447,0,0,0,17,32a1.447,1.447,0,0,0-1.333,1.538,1.7,1.7,0,0,0,.185.769H4.148a1.7,1.7,0,0,0,.185-.769A1.447,1.447,0,0,0,3,32a1.447,1.447,0,0,0-1.333,1.538,1.7,1.7,0,0,0,.2.8.391.391,0,0,0-.2.352v5.932a1.953,1.953,0,0,0-1,1.76v1.154H.333A.362.362,0,0,0,0,43.923v5.385a.362.362,0,0,0,.333.385H.667v1.923A.362.362,0,0,0,1,52H2.333a.362.362,0,0,0,.333-.385V49.692H17.333v1.923a.362.362,0,0,0,.333.385H19a.362.362,0,0,0,.333-.385V49.692h.333A.362.362,0,0,0,20,49.308V43.923A.362.362,0,0,0,19.667,43.538ZM17,32.769a.777.777,0,1,1-.667.769A.723.723,0,0,1,17,32.769Zm-14,0a.777.777,0,0,1,0,1.538.777.777,0,0,1,0-1.538Zm-.667,2.308H17.667v5.385H16.325a2.1,2.1,0,0,0,.342-1.154v-.769A1.811,1.811,0,0,0,15,36.615H12.333a1.811,1.811,0,0,0-1.667,1.923v.769a2.1,2.1,0,0,0,.342,1.154H8.991a2.1,2.1,0,0,0,.342-1.154v-.769a1.811,1.811,0,0,0-1.667-1.923H5a1.811,1.811,0,0,0-1.667,1.923v.769a2.1,2.1,0,0,0,.342,1.154H2.333ZM16,38.538v.769a1.085,1.085,0,0,1-1,1.154H12.333a1.085,1.085,0,0,1-1-1.154v-.769a1.085,1.085,0,0,1,1-1.154H15A1.085,1.085,0,0,1,16,38.538Zm-7.333,0v.769a1.085,1.085,0,0,1-1,1.154H5a1.085,1.085,0,0,1-1-1.154v-.769a1.085,1.085,0,0,1,1-1.154H7.667A1.085,1.085,0,0,1,8.667,38.538ZM1.333,42.385a1.085,1.085,0,0,1,1-1.154H17.667a1.085,1.085,0,0,1,1,1.154v1.154H1.333ZM2,51.231H1.333V49.692H2Zm16.667,0H18V49.692h.667Zm.667-2.308H.667V44.308H19.333Z" transform="translate(0 -32)" fill="#3a6ec9"/>
      </g>
    </g>
    <g id="Group_145" data-name="Group 145" transform="translate(1.333 47.385)">
      <g id="Group_144" data-name="Group 144">
        <path id="Path_773" data-name="Path 773" d="M33.667,352H32.333a.389.389,0,0,0,0,.769h1.333a.389.389,0,0,0,0-.769Z" transform="translate(-32 -352)" fill="#3a6ec9"/>
      </g>
    </g>
    <g id="Group_147" data-name="Group 147" transform="translate(4 47.385)">
      <g id="Group_146" data-name="Group 146">
        <path id="Path_774" data-name="Path 774" d="M110.333,352h-14a.389.389,0,0,0,0,.769h14a.389.389,0,0,0,0-.769Z" transform="translate(-96 -352)" fill="#3a6ec9"/>
      </g>
    </g>
  </g>
</svg>
