<svg xmlns="http://www.w3.org/2000/svg" width="20" height="20" viewBox="0 0 20 20">
  <g id="parked-car" transform="translate(0 -37.486)">
    <path id="Path_766" data-name="Path 766" d="M14.183,85.906a.555.555,0,0,0-.2.038l-.747.284-.775-2.6a1.785,1.785,0,0,0-1.447-1.338H3.764a1.785,1.785,0,0,0-1.447,1.338l-.774,2.6-.737-.28a.554.554,0,0,0-.2-.038c-.353,0-.609.372-.609.884V87.4c0,.6.353,1.084.786,1.084H.871l-.125.42a10.89,10.89,0,0,0-.37,2.588v5.175c0,.6.353,1.084.786,1.084H2.188c.433,0,.786-.487.786-1.084V95.372h8.833v1.292c0,.6.353,1.084.786,1.084H13.62c.433,0,.786-.487.786-1.084V91.489a10.891,10.891,0,0,0-.37-2.587l-.125-.42h.095c.433,0,.786-.487.786-1.084V86.79C14.792,86.278,14.536,85.906,14.183,85.906ZM2.106,87.892l1.173-3.94a1.073,1.073,0,0,1,.868-.8h6.489a1.073,1.073,0,0,1,.868.8l1.173,3.94c.131.441-.044.8-.39.8H2.5C2.15,88.695,1.975,88.334,2.106,87.892Zm2.618,4.984c0,.239-.142.434-.314.434H2.182c-.173,0-.314-.2-.314-.434V91.4c0-.239.141-.434.314-.434H4.409c.173,0,.314.2.314.434Zm8.17,0c0,.239-.142.434-.314.434H10.351c-.173,0-.314-.2-.314-.434V91.4c0-.239.142-.434.314-.434h2.227c.173,0,.314.2.314.434Z" transform="translate(0 -40.263)" fill="#3a6ec9"/>
    <g id="Group_138" data-name="Group 138" transform="translate(14.31 37.486)">
      <path id="Path_767" data-name="Path 767" d="M199.7,37.486h-3.723c-.542,0-.983.609-.983,1.356v5.137c0,.748.441,1.357.983,1.357h1.495V56.864c0,.28.164.506.367.506s.367-.227.367-.506V45.336H199.7c.542,0,.983-.609.983-1.357V38.843C200.682,38.095,200.241,37.486,199.7,37.486Zm-.843,4.259a1.138,1.138,0,0,1-.937.4h-.539c-.065,0-.117.073-.117.162v1.254c0,.136-.08.247-.179.247h-.408c-.1,0-.179-.111-.179-.247v-4.3c0-.136.08-.247.179-.247H197.7c.681,0,.936.142,1.145.386a1.781,1.781,0,0,1,.332,1.175A1.841,1.841,0,0,1,198.855,41.745Z" transform="translate(-194.992 -37.486)" fill="#3a6ec9"/>
      <path id="Path_768" data-name="Path 768" d="M226.923,61.437a.712.712,0,0,0-.523-.156h-.37c-.065,0-.117.073-.117.162v1.031c0,.089.053.162.117.162h.222a2.8,2.8,0,0,0,.293-.019.8.8,0,0,0,.378-.138,1,1,0,0,0,0-1.042Z" transform="translate(-223.644 -58.872)" fill="#3a6ec9"/>
    </g>
  </g>
</svg>
