<svg xmlns="http://www.w3.org/2000/svg" width="15" height="25" viewBox="0 0 15 25">
  <g id="right" transform="translate(0)">
    <g id="Group_15" data-name="Group 15">
      <path id="Path_298" data-name="Path 298" d="M142.832,12.139,129.082.16A.715.715,0,0,0,128.4.037.53.53,0,0,0,128,.521V2.6a.478.478,0,0,0,.171.358L139.02,12.5l-10.844,9.538a.478.478,0,0,0-.171.358v2.083a.53.53,0,0,0,.392.483.734.734,0,0,0,.233.038.692.692,0,0,0,.452-.161l13.75-11.979A.461.461,0,0,0,142.832,12.139Z" transform="translate(-128.005 0.001)" fill="#fff"/>
    </g>
  </g>
</svg>
